<?xml version="1.0" encoding="utf-8"?>
<!DOCTYPE svg PUBLIC "-//W3C//DTD SVG 1.0//EN" "http://www.w3.org/TR/2001/REC-SVG-20010904/DTD/svg10.dtd">
<svg version="1.0"
    xmlns="http://www.w3.org/2000/svg" width="1024px" height="500px" viewBox="-500 -30 2024 1024" preserveAspectRatio="xMidYMid meet">
    <g fill="#000000">
        <path d="M739 862.2 c-1.9 -0.9 -3.9 -2.7 -4.5 -3.9 -0.5 -1.3 -1.5 -2.3 -2.2 -2.3 -2.2 0 -1.5 -6.1 1.7 -15.6 3.6 -10.5 8.2 -28.5 10.4 -40.4 1.8 -9.7 4.5 -29.3 4.1 -29.8 -0.2 -0.2 -2.9 0.1 -6.2 0.7 -3.2 0.6 -13.2 2.2 -22.3 3.7 -30.3 4.7 -34.4 5.3 -53 8.3 -10.2 1.7 -23.1 3.8 -28.8 4.7 -15.1 2.4 -25.2 1.7 -33.6 -2.5 -10.3 -5.1 -18.6 -16.5 -18.6 -25.8 0 -2.3 -0.4 -4.3 -0.8 -4.5 -0.9 -0.4 -17.2 -107.5 -17.2 -113 0 -3.6 0.2 -3.8 3.3 -3.8 l3.3 0 3.3 22.8 c1.8 12.5 4.2 27.9 5.2 34.2 3.7 22.6 7.9 52.6 7.9 56.3 0 2 0.3 3.7 0.8 3.7 0.4 0 1.5 2.2 2.5 4.9 2.6 7.4 8.4 14.1 15.4 17.8 9.2 5 11.2 5 39.4 0.4 14 -2.2 41.2 -6.6 60.5 -9.6 45.5 -7.1 46.4 -7.1 46.4 -0.1 0 10.7 -6.9 51.8 -10.5 63.1 -7.3 22.8 -7.6 25.6 -2.7 26.3 3.4 0.5 5.8 -3.4 10.1 -16.1 6.8 -20.7 12.5 -48.4 14.6 -71.9 0.4 -4.3 1.1 -7.8 1.6 -7.8 0.5 0 0.9 -0.6 0.9 -1.4 0 -1.8 -6.2 -0.7 75 -13.6 38.2 -6.1 72.1 -11.7 75.2 -12.5 12 -3 20.3 -9.6 25.3 -20.1 3.1 -6.6 3.7 -14.2 2.1 -26.7 l-0.9 -6.7 6 -6.3 c13.4 -14 17.1 -33.9 9.3 -50.2 -3.9 -8.2 -13.9 -18.8 -21.2 -22.3 -2.6 -1.3 -4.9 -3.1 -5.2 -4 -0.5 -1.6 -4.2 -27.4 -8.7 -59.7 -4.8 -35.4 -6.1 -43 -8.1 -46.9 -5.1 -10.2 -12.8 -16.6 -22.5 -18.7 -6.7 -1.5 -7.4 -1.4 -71.1 9.2 -49.6 8.3 -55.2 8.9 -55.2 6.4 0 -0.8 -0.4 -1.5 -1 -1.5 -0.6 0 -1 -3.7 -1 -9 0 -8.1 0.2 -9 1.9 -9 1.6 0 2 1.1 2.6 8.3 l0.6 8.3 52.7 -8.9 c61.6 -10.3 69.8 -11 79.4 -6.5 7.4 3.5 14.3 10.4 17.8 18.1 2.5 5.4 3.5 10.5 7.5 40.2 5 37.1 9.3 66.7 9.7 67 0.2 0.1 2.8 1.6 5.9 3.3 6.9 3.9 15.8 13.1 19.3 20 5.8 11.5 7.1 24.2 3.6 37.6 -2.4 9.6 -6 16.2 -11.9 22.2 l-4.6 4.7 0 14.6 c0 13 -0.3 15.1 -2.2 19.4 -4.8 10.3 -13.5 17.9 -24.3 21.1 -4.8 1.5 -53 9.4 -128.5 21.2 -13.2 2.1 -24.1 3.8 -24.2 3.8 0 0.1 -0.9 6.4 -1.8 14.1 -3.2 26.8 -7.1 45.9 -13.7 66.5 -4.2 13.2 -6.2 16.9 -10.3 18.6 -4.3 1.8 -4.3 1.8 -8.5 -0.4z"/>
        <path d="M615 768.3 c-5.8 -2.2 -10.2 -8.3 -11.4 -15.8 -0.3 -2.2 -1.7 -11.4 -3 -20.5 -1.4 -9.1 -4.8 -31.3 -7.5 -49.5 -2.8 -18.1 -6.9 -45.4 -9.1 -60.5 -2.2 -15.1 -5.4 -36.1 -7 -46.6 -3.7 -23.5 -3.8 -28.6 -0.7 -34.5 4.1 -7.7 5 -7.9 56.2 -15.9 25.3 -3.9 59.7 -9.4 76.5 -12.1 16.8 -2.7 39.1 -6.3 49.5 -8 10.5 -1.6 35.2 -5.7 55 -8.9 64.2 -10.5 67.5 -11 76.4 -11 7.5 0 9.3 0.3 12.1 2.2 6.8 4.7 6.7 4.4 12.6 46.9 7.7 56.2 7.8 57 7 61.1 -0.6 3.4 -1.1 3.9 -4.9 4.9 -13.1 3.5 -25.7 14 -32 26.9 -2.9 5.8 -3.2 7.3 -3.2 15.5 0 11 2.4 17 10.3 25.7 9.6 10.4 21.3 15.8 34.2 15.8 10.1 0 10.4 0.4 10.4 14.9 0.1 11.1 0 11.9 -2.6 15.8 -1.4 2.2 -4.2 4.7 -6.1 5.6 -4.4 2.1 -74.3 13.6 -226.7 37.3 -21.4 3.3 -42.9 6.7 -62.4 9.9 -8.9 1.5 -20.7 1.9 -23.6 0.8z m33 -10.2 c10.2 -1.6 27.5 -4.4 38.5 -6.1 11 -1.7 25.4 -4 32 -5.1 6.6 -1 25.1 -3.9 41 -6.4 16 -2.5 35.8 -5.7 44 -7 8.3 -1.3 26.7 -4.2 41 -6.5 47.5 -7.5 73.7 -12.1 76.4 -13.4 6.6 -3.5 9.4 -9.2 8.5 -17.2 l-0.7 -5.4 -7.1 0 c-8.5 0 -17.1 -2.1 -23.8 -5.7 -7.3 -4 -16.2 -13.4 -20 -21.1 -3.3 -6.6 -3.3 -6.7 -3.3 -21.7 0 -14.8 0 -15.1 3.2 -21.8 3.6 -7.6 12 -17 19.2 -21.6 2.5 -1.6 7.6 -4 11.3 -5.2 5.9 -1.9 6.7 -2.4 6.3 -4.3 -0.3 -1.1 -2.5 -17.2 -5 -35.6 -2.5 -18.4 -5 -37.3 -5.7 -42 -1.3 -10.1 -3.7 -15.4 -8.1 -18 -4.2 -2.6 -5.7 -2.5 -28.1 1.1 -10.5 1.7 -26.1 4.1 -34.6 5.4 -8.5 1.3 -23.4 3.8 -33 5.4 -16 2.8 -37.2 6.2 -68.5 11.1 -6.6 1.1 -21.9 3.5 -34 5.5 -45.6 7.3 -42.5 6.8 -82 13 -23.4 3.7 -26.4 4.6 -30.2 8.7 -4.1 4.4 -4.2 6.2 -1.2 25.8 8 54.1 25.1 167.4 26 173.5 1.3 8.1 2.6 11 6.6 14.6 4.8 4.5 2.7 4.5 31.3 0z"/>
        <path d="M646 716 c-5.4 -1.3 -7 -4.1 -7 -12.4 0 -7.9 1.2 -10.6 5.7 -12.4 2.3 -1 36.5 -6.3 65.3 -10.2 3.6 -0.4 18.5 -2.9 33.2 -5.4 31.7 -5.5 37.3 -5.7 41.7 -2 3 2.5 3.1 2.9 3.1 10.4 0 7 -0.2 8 -2.6 10.4 -1.5 1.4 -3 2.6 -3.3 2.6 -0.4 0 -5.4 0.9 -11.2 1.9 -29.4 5.4 -113.9 18.2 -118.9 18 -1.4 -0.1 -4.1 -0.5 -6 -0.9z m37.7 -11 c38.1 -5.4 87.7 -13.7 91.6 -15.3 4.8 -2.1 6.2 -4.2 4.9 -7.2 -2.1 -4.5 -4.5 -4.6 -25.8 -0.9 -22.3 3.9 -33.9 5.7 -73.1 11.4 -14.9 2.2 -28.2 4.4 -29.6 4.9 -2.4 0.9 -5.7 4.6 -5.7 6.3 0 1.9 4.2 4.8 6.9 4.8 1.6 0 15.4 -1.8 30.8 -4z"/>
        <path d="M639 660 c-5.5 -1.3 -7 -4.1 -7 -12.6 0 -9.4 1.9 -12 10 -13.3 3 -0.6 9.6 -1.7 14.5 -2.5 23.4 -4.1 54.6 -8.6 59.8 -8.6 7.1 0 11.1 1.9 12.6 6.1 2.5 7.1 0.6 16.5 -3.7 18.8 -1 0.5 -7.9 1.9 -15.3 3.1 -7.4 1.1 -22.8 3.6 -34.4 5.5 -24.9 4 -31.8 4.7 -36.5 3.5z m61.4 -15.2 c13.5 -1.9 16.4 -2.6 18.8 -4.6 3.4 -2.9 3.4 -5.7 -0.2 -8.3 -2.8 -2 -2.8 -2 -47 5.1 -10.2 1.7 -20.3 3.3 -22.5 3.6 -5 0.8 -9.1 2.8 -9.9 5 -1 2.5 0.2 5.3 3 6.7 2.1 1.1 5.4 0.8 22.2 -2 10.8 -1.8 26.9 -4.2 35.6 -5.5z"/>
        <path d="M751.4 642.3 c-4.4 -0.9 -6.8 -4.9 -7.2 -12.1 -0.3 -7.6 1 -11 5 -13 1.5 -0.7 12.5 -2.8 24.5 -4.6 32.5 -5.1 39.7 -5.9 45.3 -5.4 7.3 0.7 9.3 3 9.8 11.1 0.4 6.9 -1.2 11.8 -4.7 13.6 -3.1 1.7 -61.9 11.2 -67.5 11 -1.7 -0.1 -4.1 -0.4 -5.2 -0.6z m37.7 -11.7 c24.5 -4 27.5 -4.7 29.7 -6.9 2.9 -3 2.5 -6.8 -1 -8.4 -2.5 -1.1 -7.3 -0.6 -40.5 4.6 -22.7 3.5 -25.2 4.5 -25.3 9.8 0 2.7 3.5 5.3 7.1 5.3 1.5 0 15 -2 30 -4.4z"/>
        <path d="M625.9 598.7 c-2.8 -2.2 -3.9 -5.5 -3.9 -12.2 0 -6 0.3 -6.9 2.8 -9.4 3 -3.1 4.1 -3.3 31.2 -7.1 15.1 -2.1 26.1 -3.9 74 -11.5 15.7 -2.5 32.6 -5.2 37.5 -6 35.3 -5.7 49.3 -8 65.5 -10.8 21.7 -3.7 31.8 -4.1 34.9 -1.3 4.8 4.3 5.2 16.1 0.8 21.1 -2.4 2.8 -10.4 4.6 -44.7 10 -9.1 1.4 -20.5 3.2 -25.5 4 -42.6 6.8 -53.7 8.6 -58.5 9.5 -9.3 1.7 -62.6 10 -80.5 12.6 -18.5 2.6 -31.1 3 -33.6 1.1z m26.1 -7.8 c6.9 -1.1 15.4 -2.4 19 -2.9 11.1 -1.5 163.8 -26 181.5 -29.1 6.6 -1.1 11.5 -4.3 11.5 -7.4 0 -0.8 -1 -2.5 -2.1 -3.6 -1.7 -1.7 -2.9 -2 -6.3 -1.5 -4.2 0.6 -61.5 9.7 -101.1 16.1 -12.1 2 -26.3 4.2 -31.5 5 -5.2 0.9 -18 2.9 -28.5 4.5 -10.4 1.7 -28 4.4 -39.1 6 -11 1.6 -20.8 3.2 -21.7 3.5 -2.2 0.9 -4.9 5.3 -4.1 6.8 3.1 5.4 4.4 5.6 22.4 2.6z"/>
        <path d="M915.8 672.3 c-1 -0.2 -1.8 -1.1 -1.8 -1.9 0 -0.9 -1.1 -1.4 -3.3 -1.4 -7.2 0 -15.7 -9.2 -17.8 -19.2 -3.2 -14.6 3.8 -28.9 17.3 -35.9 5.1 -2.7 18.9 -3.8 25.4 -2 5.9 1.6 12.2 7.5 15.5 14.5 2.5 5.2 2.9 7.3 2.9 14.7 0 13.8 -3.8 22.8 -12.2 28.9 -3.9 2.9 -4.5 3 -14.2 2.9 -5.6 -0.1 -10.9 -0.3 -11.8 -0.6z m20.5 -9.8 c9.4 -7.2 12.8 -20.9 7.7 -30.8 -4 -7.9 -12 -13.7 -18.7 -13.7 -9.6 0.1 -23 12 -25.3 22.3 -1.2 5.9 4 15.7 10.5 19.7 1.9 1.2 3.5 2.8 3.5 3.5 0 0.9 1.6 1.5 4.8 1.8 12.3 0.9 12.7 0.9 17.5 -2.8z"/>
        <path d="M566 630.5 l0 -5.5 3.5 0 3.5 0 0 5.5 0 5.5 -3.5 0 -3.5 0 0 -5.5z"/>
        <path d="M563.7 617.8 c-0.3 -2.9 -2.4 -17.2 -4.6 -31.8 -5.7 -37.1 -5.3 -48 2 -58.6 7.7 -11.3 14.8 -14.1 46.4 -18.8 9.4 -1.4 21.3 -3.2 26.5 -4.1 5.2 -0.8 19.9 -3 32.5 -4.9 12.7 -2 31.8 -4.9 42.5 -6.6 25.8 -4.1 38.1 -6 39.2 -6 0.4 0 0.8 -3.8 0.8 -8.5 l0 -8.5 3.5 0 3.5 0 0 10.6 c0 7.1 -0.4 10.9 -1.2 11.8 -1.3 1.2 -14.7 3.4 -91.3 15.2 -71.3 10.9 -77.6 12 -82.5 14.6 -10.2 5.3 -18 16.4 -18.7 26.8 -0.3 3.4 1.3 17 4.1 35.7 2.5 16.5 4.6 32 4.6 34.2 0 4 -0.1 4.1 -3.4 4.1 -3.3 0 -3.3 -0.1 -3.9 -5.2z"/>
        <path d="M129 571.5 l0 -8.5 3.5 0 3.5 0 0 8.5 0 8.5 -3.5 0 -3.5 0 0 -8.5z"/>
        <path d="M110.5 530.8 c-5.1 -100.2 -0.7 -159.8 16 -219.3 3.5 -12.6 13.1 -41.4 14 -42.3 0.3 -0.3 -3.6 -2.7 -8.7 -5.4 -9.7 -5.1 -12.2 -6.8 -23 -15.5 -30.4 -24.6 -37.3 -61.6 -17.7 -95.1 5.2 -8.7 19 -22 27.5 -26.4 7.6 -4 16.8 -6.8 22.1 -6.8 2.9 0 3.3 0.3 3.3 2.5 0 2.2 -0.4 2.5 -3.3 2.5 -4.4 0 -13.5 3.2 -20.4 7.1 -8.1 4.6 -17.5 13.9 -23.3 23 -11.8 18.4 -15 36.4 -9.5 53.3 2.5 7.7 9.2 20.3 12.1 22.7 0.8 0.6 1.4 1.7 1.5 2.3 0.1 3.1 24.8 21.5 35.9 26.8 3.6 1.7 6.8 3.6 7.2 4.2 1.6 2.3 0.6 7.2 -4.3 21.9 -14.7 44.2 -20.9 73.5 -25.1 119.2 -1.9 20.3 -1.6 89.8 0.5 128 2.1 38.9 2.2 35.5 -0.6 35.5 l-2.3 0 -1.9 -38.2z"/>
        <path d="M127.7 543.8 c-0.4 -9 -1 -22.7 -1.3 -30.5 l-0.7 -14.3 3.5 0 3.5 0 0.6 12.8 c0.4 7 1 20.7 1.4 30.5 l0.6 17.7 -3.5 0 -3.5 0 -0.6 -16.2z"/>
        <path d="M447.5 546.6 c-11.4 -5.4 -18.5 -17.8 -22.6 -39.3 l-1.2 -6.3 -5.1 0 c-10.2 0 -20.9 -4.3 -27.6 -11 -7.6 -7.6 -11 -17.4 -11 -31.6 0 -13.2 3.1 -22.2 11.3 -32.7 2.8 -3.7 2.7 -3.6 -4.4 1.8 -9 6.8 -23.9 14.2 -37.9 18.9 -13.8 4.6 -21.9 6.3 -37.9 7.6 -42.2 3.6 -81.5 -9.7 -106.7 -36.1 -17.4 -18.3 -29.2 -44.4 -31.1 -68.6 l-0.6 -8.3 3.7 0 c3.3 0 3.6 0.2 3.6 2.9 0 8.8 5.3 26.7 11.7 39.6 11.6 23.2 28.2 39.7 51.7 51 18.7 9 35.1 12.8 55.1 12.8 20.2 0 36.3 -3.6 58.7 -13.3 35.3 -15.2 61.1 -46.5 69.9 -85 2.6 -11 3.6 -33.9 2 -44.9 -3.3 -22.5 -11.2 -41.9 -23.8 -58.8 -12.2 -16.3 -27.1 -26.7 -49.9 -34.8 -15.2 -5.3 -25.1 -6.8 -41.8 -6.3 -26.6 1 -52.8 9.5 -75.4 24.5 -11.1 7.4 -26.3 22.1 -34.2 33 -6.6 9.2 -14.5 24.8 -17.6 34.6 -1 3.1 -2.1 5.7 -2.6 5.7 -0.4 0 -0.8 1.2 -0.8 2.8 0 1.5 -0.7 6.2 -1.5 10.5 -0.8 4.3 -1.5 9.4 -1.5 11.3 0 3.2 -0.2 3.4 -3.5 3.4 l-3.5 0 0 -5.7 c0 -6.6 3.1 -24.3 4.2 -24.3 0.4 0 0.8 -1.4 0.8 -3 0 -3.4 5.2 -17.4 9.8 -26.5 7.7 -15.2 23.6 -33.5 39.7 -45.5 15.6 -11.7 39.2 -21.7 60.7 -25.7 7 -1.4 14.4 -1.8 29.8 -1.8 22.4 0 28.4 0.9 45 6.7 37.8 13.2 61.5 41.3 71.1 84.3 2.9 12.7 3.7 42.2 1.5 56 -3.8 24.7 -13 45.6 -29 65.4 -0.6 0.8 3.2 -2 8.4 -6.2 5.9 -4.7 10.1 -8.9 10.9 -10.9 1.9 -4.3 9.4 -11.7 15.4 -15.2 11.6 -6.8 28.9 -10.3 46.4 -9.3 5.9 0.4 12.1 0.9 13.6 1.3 l2.9 0.7 -3 -5.9 c-6.6 -13.2 -12.2 -34 -12.2 -45.4 l0 -5 3.5 0 c3.2 0 3.5 0.2 3.5 2.9 0 12.6 9.4 39 18.9 52.9 3.5 5.2 4.1 6.9 4.1 11.1 0 5 0 5.1 -3.1 5.1 -2 0 -4.3 -1 -6.4 -2.9 -8 -7 -25 -9.8 -40.5 -6.7 -16 3.2 -31.7 13.1 -36.4 22.9 -1.1 2.4 -5.7 6.9 -13.4 13 -18.2 14.7 -26.9 25.2 -30.7 37.2 -6.2 19.9 9.4 42.2 31 44.2 4.5 0.4 6.5 1 6.5 1.9 0 0.8 1 1.4 2.4 1.4 2.1 0 2.5 0.6 3.1 4.3 1.1 6.6 6.2 21.3 9 26.2 4.5 7.6 13.8 14.5 19.6 14.5 1.5 0 1.9 0.7 1.9 3.5 l0 3.5 -4.7 0 c-3 0 -6.7 -0.9 -9.8 -2.4z"/>
        <path d="M464 545.6 c0 -3.2 0.2 -3.4 4.3 -4 5.6 -0.9 13.4 -4.6 17.6 -8.5 3.9 -3.5 7 -3.9 12.7 -1.5 5.2 2.2 15.4 1.5 21.2 -1.5 13.6 -6.9 18.7 -17.5 19.9 -40.8 0.3 -6.8 1 -12.3 1.4 -12.3 0.5 0 0.9 -1.3 0.9 -2.8 0 -2.4 0.7 -3.2 4 -4.7 2.2 -1 6.1 -4 8.5 -6.6 10.6 -11.4 12 -25 3.9 -39.6 -1.9 -3.4 -3.4 -7.5 -3.4 -9.2 0 -2.7 0.4 -3.1 3.7 -3.7 2.8 -0.5 5.8 0 12.8 2.4 10.7 3.7 22.5 6.2 29.5 6.2 l5 0 0 3.5 0 3.5 -6.7 0 c-6.7 0 -19.6 -1.9 -26.3 -4 -5.8 -1.7 -6.1 -1.5 -4.5 2.9 2.1 6.1 2.9 18.7 1.5 26 -2.2 12.1 -9.3 22 -18.5 25.8 l-4.5 1.8 0 7 c-0.1 11.8 -1.7 25.2 -4 32 -2.7 8.2 -9 15.4 -16.8 19.2 -5.3 2.6 -6.5 2.8 -19.2 2.9 -13.4 0.1 -13.5 0.1 -18.5 3.3 -6.1 3.9 -13.3 6.1 -19.7 6.1 -4.8 0 -4.8 0 -4.8 -3.4z"/>
        <path d="M457.5 534.3 c-7 -1 -12.7 -8.8 -16.4 -22.3 -2.1 -7.3 -2.6 -13.5 -1.5 -17.5 0.4 -1.5 2.5 -2.6 8.4 -4.4 4.4 -1.3 12.5 -4.6 18.1 -7.2 9.6 -4.6 16.9 -6.3 16.9 -3.9 0 0.6 0.6 1 1.4 1 1.6 0 2.6 5.1 2.6 13.8 l0 6.2 -3.4 0 -3.3 0 -0.6 -6.1 c-0.3 -3.3 -0.7 -6.3 -1 -6.5 -0.3 -0.3 -3.4 0.9 -6.8 2.7 -3.5 1.8 -10.7 4.6 -16 6.4 l-9.6 3.1 1.9 6.8 c2.3 8.6 4.8 13.3 9 17.3 4.6 4.4 8.2 5 13.8 2.1 5.2 -2.7 8.1 -7.5 8.8 -15 0.4 -4.7 0.5 -4.8 3.8 -4.8 l3.4 0 0 6.3 c0 13 -4.5 20 -13.9 21.7 -5.4 1 -10 1.1 -15.6 0.3z"/>
        <path d="M497.1 524.4 l-3.4 -1.4 0.7 -9.7 c0.4 -5.5 0.1 -15.8 -0.5 -23.9 -1.7 -18.9 -2.9 -17.8 18.9 -17.2 9.2 0.2 17.3 0.8 18 1.2 1.6 0.9 1.6 24.8 0.1 33.2 -2.5 13.7 -9.8 19.4 -24.9 19.3 -3 0 -7 -0.6 -8.9 -1.5z m13.5 -6.9 c9.7 -2.8 13.3 -9.8 14.1 -26.6 l0.5 -10.6 -3.2 -0.7 c-1.8 -0.3 -7.5 -0.6 -12.7 -0.6 -8.7 0 -9.5 0.2 -8.8 1.8 0.3 0.9 0.9 9.4 1.2 18.7 0.4 13.8 0.8 17.2 2.1 18.3 1.9 1.4 0.9 1.5 6.8 -0.3z"/>
        <path d="M125 479 l0 -19 3.5 0 3.5 0 0 19 0 19 -3.5 0 -3.5 0 0 -19z"/>
        <path d="M410.8 483.6 c-5.2 -1.9 -8.2 -4 -11.2 -7.8 -5.6 -7.4 -6.1 -22.3 -1.1 -32.3 3.1 -6 11.9 -15.7 20.3 -22.3 4.7 -3.6 6 -4.2 10.3 -4.2 4.4 0 5.3 0.4 8.8 3.9 3.9 3.9 17.2 11.1 20.5 11.1 1.2 0 1.6 0.9 1.6 3.6 l0 3.6 -5.2 -0.4 c-6.6 -0.5 -15.5 -4.6 -21.8 -9.8 l-4.8 -4 -9.4 8.9 c-12.8 12.1 -18 21.8 -15.7 29.1 1.9 5.8 5.8 10.1 11.7 12.8 4.8 2.2 6.4 2.4 13.1 1.9 9.6 -0.7 17.1 -3.2 34.1 -11.2 21.6 -10.1 34.5 -12.5 57.3 -10.5 11.2 1 15.1 1 17.9 0.1 4.4 -1.4 9.6 -7.1 10.5 -11.2 0.5 -2.5 1 -2.9 3.9 -2.9 3.3 0 3.4 0.1 3.4 4.3 0 6 -3.6 12.5 -8.3 15 -5.5 2.8 -10.3 3.1 -27.6 1.8 -13.4 -1.1 -16.6 -1.1 -22.6 0.2 -12 2.6 -13.7 3.2 -28 9.9 -16.1 7.6 -20.9 9.3 -29.7 10.8 -8.7 1.4 -23.6 1.2 -28 -0.4z"/>
        <path d="M766.6 445.3 c-1.7 -57.9 -6.6 -111 -13.5 -147 -2.1 -10.9 -9 -37.1 -12 -45.7 -3.6 -10.1 -2.9 -13.7 3.3 -16.7 14.5 -7.3 32.6 -23.5 39 -35 4.6 -8.4 8.2 -18.8 9 -26.5 1.3 -11.8 -4.7 -26.7 -15.3 -37.4 -7.6 -7.7 -15.5 -12.2 -26.9 -15.1 -9.1 -2.3 -12.2 -2.4 -24.3 -0.3 -16.1 2.8 -32.4 8.6 -46.1 16.5 -9.6 5.6 -12.3 5.4 -24 -2 -31.1 -19.6 -72.6 -35 -113.8 -42.2 -56.8 -10 -136.4 -3.2 -201 17 -44.6 14 -79.9 30.3 -106 49 -12.3 8.8 -11.9 8.9 -32.3 -6.4 -25 -18.6 -40.7 -27.2 -52 -28.3 -4.1 -0.4 -4.7 -0.7 -4.7 -2.8 0 -2 0.5 -2.4 3.3 -2.4 1.8 0 6 0.7 9.2 1.5 12.6 3.3 25.1 10.6 49.5 29 7.7 5.8 14.2 10.5 14.6 10.5 0.4 0 5.9 -3.5 12.3 -7.9 46.8 -31.6 118.4 -56.3 187.1 -64.6 31.3 -3.7 74.4 -4.9 97.5 -2.5 51.7 5.1 100.6 21.2 140.3 46.1 l9.3 5.8 3.8 -2.3 c26.2 -16.5 63.1 -24 85 -17.1 14 4.5 26.1 14.5 33 27.4 4.5 8.5 6.1 15 6.1 25.1 0 19.7 -7.8 36.1 -24.4 51.7 -7.1 6.6 -11.7 9.8 -27.6 19.1 -1.2 0.7 -0.9 2.7 2.3 12.8 14.1 45.3 20.8 98.9 24.3 195.2 l0.7 18.2 -2.5 0 -2.5 0 -0.7 -22.7z"/>
        <path d="M748 449.5 l0 -11.5 3.5 0 3.5 0 0 11.5 0 11.5 -3.5 0 -3.5 0 0 -11.5z"/>
        <path d="M125.3 430.8 c1.2 -45.1 6.5 -78.6 19.7 -125.2 3.8 -13.3 12.9 -37.6 14.1 -37.6 0.5 0 0.9 -0.9 0.9 -2 0 -2.6 8.5 -18.9 15.6 -29.8 19 -29.3 46.6 -55.8 78.4 -75.4 31.5 -19.4 63.8 -32.4 109 -43.7 59.4 -14.9 125.2 -19.1 176.6 -11.1 49.4 7.6 96.4 26.7 127.4 51.7 9 7.3 28 26.7 28 28.7 0 0.8 0.7 1.6 1.5 2 0.8 0.3 2.1 1.8 2.8 3.3 0.6 1.5 1.9 3.5 2.8 4.4 2.6 2.6 9.7 15.2 16 28.4 20.4 42.6 32.6 107.9 35.5 190.3 l0.7 19.2 -3.6 0 -3.7 0 0 -8.7 c0 -16.3 -3.4 -62.2 -6 -80.8 -3.2 -22.7 -4.4 -30.3 -6.6 -41.5 -7.2 -36.1 -20.3 -71.4 -35.4 -95.4 -2.2 -3.5 -4 -6.6 -4 -6.9 0 -0.3 -1.1 -1.8 -2.5 -3.3 -1.4 -1.5 -2.5 -3.1 -2.5 -3.6 0 -1.8 -26.8 -27.7 -34.7 -33.5 -36.3 -26.8 -89.2 -45.2 -144.7 -50.4 -16.1 -1.5 -55 -0.7 -73.6 1.6 -67.9 8.1 -128 26.8 -172.5 53.6 -42 25.3 -71.4 55.5 -92.6 95.4 -2.9 5.5 -5.7 10.2 -6.1 10.3 -0.4 0.2 -0.8 1.2 -0.8 2.2 0 1.1 -1.6 5.8 -3.5 10.6 -17.6 43.5 -29.5 106.3 -29.5 155.7 l0 14.7 -3.7 0 -3.6 0 0.6 -23.2z"/>
        <path d="M463 437.5 l0 -3.5 8.5 0 8.5 0 0 3.5 0 3.5 -8.5 0 -8.5 0 0 -3.5z"/>
        <path d="M548 439.3 c0 -2.7 -2.4 -8.6 -4.2 -10.7 -1 -1.1 -2.3 -3.1 -3 -4.5 -0.6 -1.4 -4 -5.2 -7.5 -8.4 l-6.4 -5.8 -3 6 c-1.9 3.8 -5 7.8 -8.2 10.6 -5.8 5.1 -16.1 10.5 -20.1 10.5 -1.4 0 -2.6 0.5 -2.6 1 0 0.6 -2.2 1 -5 1 l-5 0 0 -3.5 c0 -3.4 0.1 -3.5 3.9 -3.5 2.2 0 4.1 -0.4 4.3 -0.8 0.2 -0.4 2.8 -2 5.9 -3.5 11.3 -5.5 19.6 -14.1 22 -22.9 1 -3.8 1 -3.8 6.3 -3.8 5.2 0 5.6 0.2 12.5 6.6 3.9 3.6 7.1 6.9 7.1 7.4 0 0.4 1.4 2.2 3 4 1.7 1.8 3 4.1 3 5.1 0 1 0.4 1.9 1 1.9 1.2 0 3 6.6 3 11.3 0 3.6 -0.1 3.7 -3.5 3.7 -2.6 0 -3.5 -0.4 -3.5 -1.7z"/>
        <path d="M282.2 434.8 c-4 -0.5 -11.5 -2 -16.7 -3.3 -30.6 -7.7 -55.8 -29.2 -67.1 -57.3 -11.1 -27.8 -9.3 -63.3 4.7 -91.6 16.5 -33 45.8 -54.9 85.4 -63.8 8.5 -1.9 12.9 -2.2 29.5 -2.2 22.5 0 31.3 1.6 45.5 8.3 19.9 9.3 33.7 22.5 42.9 40.9 8.9 18 12 32 11.9 55.7 0 19.5 -1.9 30.5 -8.1 45.9 -6.8 17.2 -22 36.3 -36.7 46.3 -19 12.8 -45.1 21.3 -65.6 21.3 l-5.9 0 0 -3.5 c0 -3.5 0 -3.5 4.6 -3.5 6.2 0 22.8 -3.5 31.6 -6.6 41.8 -14.9 67.4 -47.2 72.8 -91.8 2.5 -20.7 -4.7 -49.1 -17.3 -67.6 -4.7 -6.8 -15.5 -17.7 -22.1 -22.2 -21.1 -14.4 -47.8 -19.9 -72.7 -14.9 -12.8 2.5 -23.5 6 -34.7 11.2 -35.4 16.4 -59.7 49.7 -65.3 89.5 -3.6 25.6 9.4 58.3 30.6 76.9 15.7 13.8 38.7 23.6 59.3 25.2 l8.2 0.6 0 3.8 c0 3.9 0 3.9 -3.7 3.8 -2.1 -0.1 -7.1 -0.6 -11.1 -1.1z"/>
        <path d="M611 422.8 l0 -3.5 7.3 -0.7 c28.6 -2.6 59.9 -21.3 76 -45.4 11.3 -16.9 19.5 -38.7 21.4 -56.4 0.6 -5.8 0.6 -5.8 3.9 -5.8 3.4 0 3.4 0 3.4 4.8 0 6.7 -2.6 20.7 -5.6 29.9 -4 12.5 -13.6 30.9 -20.9 40 -18.6 23.2 -46.9 38 -76.2 40 l-9.3 0.6 0 -3.5z"/>
        <path d="M594.5 406.9 c-23 -2.7 -41.6 -11.2 -57.9 -26.8 -16.8 -16.2 -27 -37.9 -28.3 -60.3 l-0.6 -9.8 3.5 0 3.5 0 0.6 6.3 c2.5 25.3 16.2 49.4 37.1 64.9 46.7 34.7 108.6 19.7 134.6 -32.7 21 -42.3 10.5 -98 -23.7 -125.6 -17 -13.6 -37.1 -19.9 -56.8 -17.9 -35.7 3.7 -68.8 27.9 -83 60.7 -4 9.3 -7.2 21.1 -8.1 29.9 l-0.7 6.4 -3.5 0 -3.5 0 0.6 -9.2 c2.3 -36.7 26.1 -70.4 60.9 -86.2 21.9 -10 48 -12.2 70 -6 31.7 8.9 52.7 31.9 62.6 68.3 2.4 8.9 2.6 11.1 2.6 32.1 0.1 23.2 -0.3 26.2 -4.6 40 -7.9 25 -27.3 47.4 -49.9 57.8 -15.5 7.1 -36.8 10.2 -55.4 8.1z"/>
        <path d="M252.5 376.9 c-6.9 -3.3 -11.2 -7.6 -14.7 -14.7 -3.2 -6.6 -3.3 -6.9 -3.3 -20.2 0.1 -12.7 0.2 -13.8 2.8 -18.7 3.9 -7.6 8.1 -11.8 14.5 -15 5.1 -2.5 6.8 -2.8 15.7 -2.8 8.4 0 10.7 0.4 14.7 2.3 6.2 3.1 12.1 8.9 15.5 15.4 2.4 4.7 2.8 6.6 3.1 17.3 0.3 10.6 0.1 12.7 -1.9 18 -2.9 7.8 -11.3 16.4 -18.3 18.8 -7.2 2.5 -22.8 2.3 -28.1 -0.4z m22 -6.6 c9.7 -3.2 18.2 -15 19.2 -26.3 1.3 -14.4 -12.9 -31.3 -26.2 -31.3 -12.5 0 -25.2 13.7 -26.3 28.3 -0.7 9.2 4.3 19.7 12 25.5 7.4 5.6 13.1 6.6 21.3 3.8z"/>
        <path d="M547.3 342.6 c-8.2 -2.6 -14.6 -8.6 -18.6 -17.3 -1.9 -4.1 -2.2 -6.5 -2.2 -17.3 0 -14.8 1.6 -20.5 7.6 -27.4 5.9 -6.7 12.9 -9.7 23.9 -10.4 8.6 -0.5 9.3 -0.3 15.4 2.7 7.5 3.7 10.8 7.2 14.9 16.1 2.9 5.9 3.1 7.2 3.1 18 0.1 10.5 -0.1 12 -2.6 17.3 -3.9 8.3 -7.8 12.9 -14 16.2 -4.6 2.5 -6.6 3 -14.3 3.2 -5.7 0.2 -10.6 -0.2 -13.2 -1.1z m18.7 -7.7 c12.4 -5.6 20.5 -20.8 17.6 -33.1 -4 -17 -18.5 -27.7 -31.1 -22.8 -20.5 7.8 -25.7 35.7 -9.3 50.5 4.9 4.4 11.1 7.3 15.8 7.4 1.4 0 4.5 -0.9 7 -2z"/>
        <path d="M717 301.4 c0 -12.2 -2.6 -27.9 -6.5 -40 -9.2 -28.1 -25.8 -49.6 -48.1 -62.4 -9.3 -5.3 -27.4 -11.6 -36.1 -12.6 l-6.3 -0.6 0 -3.4 c0 -3.3 0.1 -3.4 4.4 -3.4 2.4 0 8.6 0.8 13.8 1.9 31.9 6.4 57.6 26.6 71.9 56.6 9.6 20.2 13.8 39.5 13.9 63.8 l0 8.7 -3.5 0 -3.5 0 0 -8.6z"/>
        <path d="M489 296.2 c0 -8.2 2.7 -23.2 6.1 -33.6 10.4 -31.9 33.1 -57.6 63 -71.5 16.2 -7.5 34 -12.1 47 -12.1 l5.9 0 0 3.5 c0 3.5 0 3.5 -4.7 3.5 -2.5 0 -10.3 1.4 -17.2 3.1 -14.4 3.5 -29 10 -41.5 18.3 -10.4 7 -24.8 21.7 -32 32.9 -10 15.2 -17.8 37.6 -19.3 54.5 l-0.6 7.2 -3.3 0 -3.4 0 0 -5.8z"/>
        <path d="M136.8 247.7 c-14.5 -8.4 -25.1 -17.8 -31.8 -28.3 -3.9 -6.2 -7 -16.1 -7 -22.5 0 -4.9 0 -4.9 3.4 -4.9 3.2 0 3.4 0.1 3.9 4.6 0.9 8.1 7.1 19 16.1 28 7.2 7.1 23.1 18.4 26.1 18.4 0.5 0 2.2 -2.2 3.7 -4.9 9.4 -16.7 24.4 -36.6 39.2 -51.9 4.9 -5.1 8.7 -9.4 8.5 -9.6 -0.2 -0.2 -7.1 -5.4 -15.4 -11.6 -28.8 -21.7 -41.3 -24.6 -56.5 -13.4 -10.4 7.6 -19 21.1 -21.3 33.5 -1.1 5.8 -1.2 5.9 -4.4 5.9 l-3.3 0 0 -5.3 c0 -17.9 15.2 -39.8 32 -46 3.1 -1.2 7.6 -1.7 14 -1.7 16.7 0 23.7 3.3 51.3 24.3 17.5 13.3 17.6 14.5 3.4 28.8 -15.8 15.9 -27.2 30.7 -38.2 49.4 -3.2 5.5 -6 10.1 -6.1 10.3 -0.1 0.1 -2.3 0.5 -5 0.8 -4.4 0.5 -5.6 0.1 -12.6 -3.9z"/>
        <path d="M733 225.4 c-0.8 -0.3 -3.1 -3.5 -5 -7.2 -10.4 -20.1 -22.1 -36.9 -35.8 -51.3 -8.9 -9.3 -9.2 -9.9 -9.2 -14.3 0 -4.5 0.1 -4.6 4.8 -6.9 18.5 -9.3 43.4 -14.2 59.1 -11.8 17.7 2.8 30.6 15.5 31.9 31.7 l0.5 6.4 -3.5 0 c-3.2 0 -3.6 -0.3 -4.1 -3.3 -1.6 -10 -9.7 -19.9 -20.5 -25 -5.9 -2.8 -7.7 -3.2 -14.7 -3.1 -9.6 0.2 -23.6 3.7 -35.9 8.9 l-8.6 3.8 7.7 8.1 c12.6 13.1 20.9 24.8 32 45 3.1 5.6 5.7 10.3 5.9 10.5 0.2 0.2 3.4 -1.7 7.1 -4.2 13.6 -9.1 25.2 -23.9 26.9 -34.6 0.6 -3.9 0.8 -4.1 4.1 -4.1 l3.5 0 -0.4 6.3 c-0.8 12.2 -9.2 25.3 -23.2 35.8 -11.9 9.1 -16.5 10.9 -22.6 9.3z"/>
    </g>
    <g fill="#0d3b49" stroke="#0e3b49" stroke-width="1">
        <path d="M146.9 862 c-0.1 -0.3 -0.1 -0.8 -0.1 -1.2 0.1 -0.3 -0.6 -1.2 -1.5 -2 -1.2 -0.9 -1.5 -0.9 -0.9 0 0.4 0.6 0.5 1.2 0.2 1.2 -3.1 0 -8.5 -23.9 -10.6 -47 -1.2 -13.4 -2.3 -23 -4 -32.5 -0.6 -3.3 -1.4 -8 -1.8 -10.5 -0.4 -2.5 -1.1 -5 -1.5 -5.6 -1.5 -2.4 -5.4 -40 -6.7 -64.4 -1.1 -21.6 -3.5 -47.7 -6.9 -76 -1.2 -10 -1.7 -50.5 -0.9 -71 0.3 -9.2 0.3 -13.6 -0.2 -10 -0.5 4.1 -0.6 0.8 -0.2 -9.1 0.2 -8.6 0.1 -16.2 -0.3 -16.9 -0.4 -0.6 -0.8 -6.4 -0.8 -12.8 0 -11.5 0 -11.6 -0.6 -3.2 -0.3 4.7 -0.6 -11.1 -0.6 -35 0 -23.9 0.3 -41.9 0.7 -40 0.4 1.9 0.5 -1.8 0.4 -8.4 -0.2 -7.6 0 -11.3 0.6 -10.5 0.6 0.9 0.8 -1.2 0.5 -6 -0.3 -4.7 -0.1 -6.8 0.5 -6 0.6 0.9 0.7 -1.5 0.4 -6.6 -0.3 -5.5 -0.2 -7.2 0.4 -5.5 0.7 1.8 0.8 0.7 0.5 -4 -0.3 -4.9 -0.2 -5.8 0.5 -3.5 0.7 2.3 0.8 1.5 0.5 -3.5 -0.3 -4.7 -0.1 -5.8 0.5 -4 0.7 1.8 0.8 1 0.4 -3 -0.4 -4.2 -0.3 -5.1 0.6 -4 0.9 1.2 1 0.5 0.6 -3 -0.5 -3.4 -0.3 -4 0.4 -2.5 0.8 1.5 0.9 0.9 0.5 -2.5 -0.4 -3.5 -0.3 -4 0.5 -2.5 0.8 1.5 0.9 0.9 0.5 -2.5 -0.4 -3.4 -0.3 -4.1 0.6 -3 0.8 1.2 1 0.8 0.7 -1.7 -0.3 -1.9 0 -3 0.5 -2.6 0.6 0.4 0.8 -0.3 0.5 -1.5 -0.4 -1.2 -0.2 -2.2 0.4 -2.2 0.5 0 0.7 -1.3 0.3 -3.3 -0.5 -2.5 -0.4 -2.9 0.5 -1.7 0.9 1.2 1.1 0.9 0.8 -1.7 -0.3 -1.8 -0.2 -3 0.2 -2.8 0.9 0.5 9.5 -30.5 9.3 -33.3 -0.1 -1.2 0.2 -2 0.7 -1.7 1.2 0.8 3.2 -5.9 2.4 -8 -0.6 -1.4 -0.4 -1.6 0.6 -1 1 0.6 1.2 0.3 0.8 -1.3 -0.4 -1.2 -0.2 -2 0.2 -1.7 1.1 0.7 4.3 -9.1 3.5 -10.5 -0.3 -0.5 0 -1 0.7 -1 0.7 -0.1 0 -0.7 -1.7 -1.5 -2.6 -1.3 -2.7 -1.4 -0.5 -1 2.4 0.6 2.4 0.5 -0.3 -1 -1.6 -0.9 -3.5 -1.4 -4.3 -1.1 -1 0.4 -1.2 0.2 -0.8 -0.6 0.5 -0.8 0.2 -0.9 -1 -0.5 -1.1 0.5 -1.5 0.3 -1 -0.5 0.5 -0.8 0.2 -0.9 -1 -0.5 -1 0.4 -1.5 0.3 -1.1 -0.3 0.7 -1.1 -3.2 -3.3 -4.5 -2.5 -0.6 0.4 -0.9 0.1 -0.8 -0.6 0.2 -0.6 -0.3 -1.4 -1.1 -1.7 -0.9 -0.3 -1.1 0 -0.6 0.9 0.5 0.8 0.4 1.1 -0.1 0.6 -0.5 -0.5 -0.9 -1.4 -0.9 -2 0 -0.5 -0.6 -1.2 -1.4 -1.5 -0.9 -0.3 -1.1 0 -0.6 0.9 0.5 0.8 0.4 1.1 -0.1 0.6 -0.5 -0.5 -0.9 -1.4 -0.9 -2 0 -0.7 -0.9 -1.2 -2 -1.2 -1.1 0 -2 -0.7 -2 -1.5 0 -0.8 -0.8 -1.5 -1.7 -1.5 -1 0 -2.5 -0.9 -3.5 -2 -1.7 -1.9 -1.7 -1.9 0.2 -0.5 1.5 1 1.4 0.8 -0.3 -0.8 -1.3 -1.2 -2.7 -2 -3.1 -1.8 -0.4 0.3 -2.3 -1.1 -4.2 -3.2 l-3.4 -3.7 3.5 3 c3.6 3 3.6 3 -0.2 -0.8 -2.1 -2.1 -3.8 -4.2 -3.8 -4.6 0 -0.5 -0.8 -1.5 -1.8 -2.2 -1.6 -1.3 -1.6 -1.3 -0.2 0.6 1.4 1.9 1.4 1.9 -0.3 0.6 -0.9 -0.8 -1.5 -1.6 -1.3 -1.9 1 -0.9 -2.5 -6.3 -3.6 -5.6 -0.7 0.4 -0.8 0.3 -0.4 -0.4 0.9 -1.5 -1.2 -5.4 -2.4 -4.7 -0.6 0.4 -0.7 -0.1 -0.3 -1.1 0.4 -1.1 0.2 -1.5 -0.4 -1.1 -0.6 0.4 -1.4 0 -1.7 -0.9 -0.4 -1 -0.2 -1.3 0.6 -0.8 0.8 0.5 0.9 0.2 0.4 -1.2 -0.5 -1 -1.1 -2.7 -1.4 -3.7 -0.4 -1.5 -0.7 -1.6 -1.4 -0.5 -0.6 0.9 -0.7 0.6 -0.3 -0.9 0.8 -2.8 -0.5 -8 -1.5 -6.2 -1 1.4 -1.8 -6.6 -1.7 -16.6 0 -6.2 0.1 -6.5 0.8 -3 0.6 3.2 0.7 2.6 0.5 -3 -0.2 -4.2 0 -6.2 0.5 -5 0.7 1.9 0.8 1.9 0.8 -0.2 0.1 -1.2 1.2 -5.4 2.7 -9.3 1.4 -3.8 2.2 -7.5 1.8 -8.2 -0.5 -0.7 -0.3 -0.8 0.6 -0.3 1 0.6 1.2 0.4 0.7 -0.9 -0.4 -1 -0.3 -1.5 0.3 -1.1 0.5 0.3 1.4 -0.3 1.9 -1.4 1.4 -2.6 1.4 -3.4 -0.2 -2.5 -0.7 0.4 -0.9 0.3 -0.4 -0.2 0.5 -0.5 1.4 -0.9 1.9 -0.9 0.6 0 1.3 -0.6 1.6 -1.4 0.3 -0.9 0 -1.1 -0.9 -0.6 -0.8 0.5 -1.1 0.4 -0.6 -0.1 0.5 -0.5 1.4 -0.9 1.9 -0.9 0.6 0 1.3 -0.6 1.6 -1.4 0.3 -0.9 0 -1.1 -0.9 -0.6 -0.8 0.5 -1.1 0.4 -0.6 -0.1 0.5 -0.5 1.4 -0.9 2 -0.9 0.7 0 1.2 -0.8 1.2 -1.7 0 -1.9 3.4 -6 4.5 -5.3 0.4 0.2 1.5 -0.4 2.5 -1.5 1 -1.1 1.4 -2 1 -2 -0.4 0 0 -0.9 0.9 -1.9 1 -1.1 2.3 -1.7 3 -1.5 0.7 0.3 1.9 -0.3 2.7 -1.2 1.2 -1.5 1.2 -1.7 0 -0.9 -1 0.5 -1.2 0.4 -0.7 -0.4 0.4 -0.6 1.1 -0.9 1.6 -0.6 1.3 0.8 5.2 -1.4 4.5 -2.5 -0.4 -0.6 0.1 -0.7 1.1 -0.3 1.2 0.4 1.5 0.3 1 -0.5 -0.5 -0.8 -0.1 -1 1 -0.5 1.2 0.4 1.5 0.3 1 -0.5 -0.5 -0.8 -0.1 -1 1 -0.5 1.3 0.5 1.5 0.3 0.9 -0.7 -0.5 -0.9 -0.4 -1.1 0.3 -0.6 1.7 1 9.6 -1.5 8 -2.6 -0.8 -0.5 1 -0.6 4.2 -0.4 4 0.4 4.7 0.3 2.5 -0.3 -2.2 -0.6 -0.4 -0.9 6.5 -0.9 6.9 0 8.7 0.3 6.5 0.9 -2.3 0.6 -1.7 0.7 2.5 0.4 3 -0.2 4.9 -0.1 4.1 0.2 -1.6 0.6 9.9 5.4 13.6 5.7 1.1 0 1.9 0.4 1.7 0.8 -0.7 1.1 5.5 4 6.8 3.2 0.7 -0.4 0.8 -0.3 0.4 0.4 -0.7 1.2 3 3.6 4.4 2.7 0.5 -0.3 1.2 0 1.6 0.6 0.5 0.8 0.3 0.9 -0.6 0.4 -0.9 -0.6 -1.1 -0.4 -0.6 0.4 0.5 0.7 1.4 1 2.2 0.7 0.7 -0.3 1.6 0 2 0.6 0.5 0.7 0.2 0.8 -0.6 0.3 -0.9 -0.6 -1.1 -0.4 -0.6 0.4 0.5 0.7 1.4 1 2.2 0.7 0.7 -0.3 1.6 0 2 0.6 0.5 0.7 0.2 0.8 -0.6 0.3 -0.9 -0.6 -1.1 -0.4 -0.6 0.4 0.5 0.7 1.5 1 2.3 0.7 0.8 -0.3 1.2 -0.2 0.9 0.3 -0.8 1.3 2.1 3.4 3.5 2.5 0.7 -0.4 0.9 -0.3 0.6 0.3 -0.9 1.4 1.9 3.7 3.4 2.7 0.7 -0.4 0.9 -0.3 0.6 0.3 -0.9 1.4 1.9 3.7 3.4 2.7 0.7 -0.4 0.9 -0.3 0.6 0.3 -0.8 1.3 1.8 3.7 3.1 2.9 0.6 -0.3 1.6 0.2 2.3 1.2 1.3 1.6 1.3 1.6 -0.6 0.2 -1.9 -1.4 -1.9 -1.4 -0.6 0.3 0.8 1 2 1.6 2.7 1.3 0.7 -0.3 1.8 0.3 2.6 1.2 1.2 1.6 1.1 1.6 -0.7 0.2 -1.9 -1.4 -1.9 -1.4 -0.6 0.3 0.8 1 2 1.6 2.7 1.3 0.7 -0.3 1.8 0.3 2.6 1.2 1.1 1.5 1.1 1.6 -0.2 0.7 -0.9 -0.5 -0.7 -0.2 0.3 0.8 2.4 2.2 3 2.1 5.8 -0.4 1.3 -1.1 1.7 -1.7 0.9 -1.3 -1.3 0.7 -1.3 0.5 -0.1 -0.9 1.5 -1.8 2.6 -2.3 1.6 -0.7 -1 1.7 1.2 1.1 2.6 -0.7 1.2 -1.4 1.2 -1.6 0 -0.8 -0.9 0.5 -1.2 0.4 -0.7 -0.3 0.4 -0.6 1.3 -0.9 2 -0.6 0.8 0.3 1.7 0 2.2 -0.7 0.5 -0.8 0.3 -1 -0.7 -0.4 -0.8 0.5 -1.1 0.4 -0.6 -0.1 0.5 -0.5 1.6 -0.9 2.5 -0.9 0.9 0 1.6 -0.5 1.5 -1.1 -0.1 -0.7 0.5 -1.1 1.5 -1 0.9 0 1.6 -0.4 1.5 -1.1 -0.2 -0.7 0.3 -1 1.1 -0.7 0.8 0.3 1.7 0 2.2 -0.7 0.5 -0.8 0.3 -1 -0.6 -0.4 -0.8 0.5 -1.1 0.4 -0.6 -0.3 0.4 -0.6 1.2 -0.9 1.9 -0.6 0.7 0.2 2.1 -0.3 3.2 -1.1 1.9 -1.5 1.9 -1.6 -0.5 -0.5 -2.3 1 -2.4 1 -0.6 -0.4 1 -0.9 2.3 -1.3 2.7 -1 0.5 0.3 2.2 -0.2 3.9 -1.1 3.4 -1.8 4.1 -3.1 0.8 -1.5 -2.1 1 -2.2 1 -0.5 -0.4 1.1 -0.8 2.6 -1.2 3.5 -0.9 1 0.4 1.3 0.2 0.8 -0.5 -0.5 -0.8 -0.1 -1 1 -0.5 1.2 0.4 1.5 0.3 1 -0.5 -0.5 -0.8 -0.1 -1 1 -0.5 1.3 0.5 1.5 0.3 0.9 -0.7 -0.5 -0.8 -0.4 -1.1 0.3 -0.6 1.3 0.8 14.3 -5.4 13.6 -6.6 -0.3 -0.4 0.3 -0.5 1.2 -0.1 1.2 0.4 1.5 0.3 1 -0.5 -0.5 -0.8 -0.1 -1 1 -0.5 1.3 0.5 1.5 0.3 0.9 -0.7 -0.5 -0.9 -0.4 -1.1 0.4 -0.6 1.6 1 7.3 -1.3 6.4 -2.7 -0.4 -0.6 -0.1 -0.7 0.6 -0.2 1.6 1 9.2 -2.5 8.4 -3.8 -0.4 -0.6 0 -0.8 1 -0.4 2.2 0.8 7.9 -1.2 7 -2.6 -0.3 -0.6 -0.1 -0.7 0.6 -0.3 1.4 0.9 8.3 -1.2 7.6 -2.4 -0.3 -0.4 0.2 -1.1 1.1 -1.4 2.4 -0.9 3.1 -0.7 1.4 0.5 -1.8 1.3 -1.9 1.3 8.4 -2.1 5 -1.6 6.5 -2.5 5.5 -3.2 -1 -0.7 -0.8 -0.8 0.8 -0.3 2.3 0.6 19.5 -4.2 20.1 -5.7 0.2 -0.4 0.8 -0.6 1.2 -0.3 1.2 0.8 14 -2.7 14 -3.8 0 -0.4 0.5 -0.5 1 -0.2 0.6 0.4 2.4 0.3 4.2 0 2.3 -0.6 2.7 -0.9 1.7 -1.7 -1 -0.7 -0.5 -0.8 1.6 -0.4 4.2 0.7 20 -2.4 18.3 -3.6 -0.9 -0.7 -0.2 -0.8 2.1 -0.4 1.8 0.3 5.2 0.3 7.4 -0.1 3.4 -0.5 3.8 -0.8 2.2 -1.5 -1.2 -0.5 0.2 -0.5 3.4 -0.2 3.5 0.4 5.1 0.3 4.7 -0.4 -0.4 -0.6 0.9 -0.9 3.6 -0.6 3.6 0.3 3.9 0.2 1.8 -0.6 -2 -0.8 -1.4 -0.9 2.4 -0.5 2.8 0.3 7.9 0.2 11.5 -0.2 5.6 -0.6 6.1 -0.8 3.6 -1.4 -1.6 -0.4 1.1 -0.5 6 -0.2 6.2 0.3 8.6 0.1 7.6 -0.6 -1 -0.7 1.6 -0.8 8.5 -0.5 5.4 0.2 8.9 0 7.6 -0.4 -1.2 -0.4 9.8 -0.7 24.5 -0.7 14.7 0 24.6 0.3 21.8 0.7 -3.2 0.4 -1.2 0.5 5.5 0.3 5.8 -0.1 8.9 0 7 0.4 -3.1 0.6 -2.8 0.7 3 1.3 3.6 0.4 8.5 0.5 11 0.2 3 -0.3 3.9 -0.1 2.5 0.4 -1.6 0.7 -1.2 1 2.2 1.5 2.2 0.4 5.6 0.4 7.4 0.1 2.3 -0.4 3 -0.3 2.1 0.4 -1.6 1.1 8.3 3.3 12.6 2.8 1.5 -0.2 2 -0.1 1.2 0.2 -2.2 0.7 20 6.3 22.4 5.6 1.3 -0.3 1.7 -0.2 0.9 0.3 -1.6 1.1 18.2 7.7 19.8 6.7 0.7 -0.4 0.9 -0.3 0.5 0.4 -0.8 1.3 2.9 2.6 4.5 1.6 0.7 -0.4 0.9 -0.3 0.6 0.3 -0.9 1.4 4.1 3.5 6.7 2.8 1.4 -0.4 1.7 -0.3 0.8 0.3 -1.1 0.7 -1 1 0.3 1.6 2.3 0.8 2.7 0.8 2 -0.4 -0.3 -0.6 0.1 -0.7 0.9 -0.4 0.9 0.3 1.4 0.9 1.2 1.3 -0.3 0.4 5.2 3.5 12 6.9 6.9 3.5 12.2 5.8 11.9 5.1 -0.6 -0.8 -0.2 -0.8 1.4 0 1.1 0.7 2.1 1.4 2.1 1.7 0 0.3 -0.4 0.2 -1 -0.1 -0.5 -0.3 -1 -0.4 -1 -0.1 0 0.3 1 1 2.1 1.7 1.6 0.8 2 0.8 1.4 -0.1 -0.6 -0.9 -0.2 -0.9 1.4 -0.1 1.1 0.7 2.1 1.4 2.1 1.7 0 0.3 -0.5 0.2 -1.2 -0.2 -0.7 -0.5 -0.8 -0.3 -0.4 0.5 0.5 0.7 1.5 1 2.3 0.7 0.8 -0.3 1.2 -0.2 0.9 0.3 -0.3 0.5 1.1 1.9 3.1 3.1 2.9 1.7 3.4 1.8 2.2 0.4 -1.3 -1.6 -1.2 -1.6 1.4 0 2.7 1.8 3.9 3.4 1.5 2 -0.7 -0.4 -0.9 -0.3 -0.5 0.1 1.9 2.2 8.5 0.6 7.1 -1.7 -0.4 -0.7 -0.3 -0.8 0.4 -0.4 1.6 1 7.4 -2.2 6.6 -3.6 -0.4 -0.6 -0.3 -0.8 0.4 -0.5 1.3 0.9 4.4 -0.2 3.7 -1.3 -0.3 -0.4 0.2 -1.1 1.1 -1.4 0.8 -0.3 1.2 -0.2 0.9 0.4 -0.9 1.4 -0.1 1.3 3.9 -0.7 1.9 -0.9 3.3 -2 3 -2.5 -0.3 -0.4 0.1 -0.6 0.8 -0.3 1.9 0.7 19.3 -5.1 17.7 -5.9 -0.8 -0.3 -0.3 -0.4 1.1 -0.2 2.7 0.5 17.4 -1.7 16.6 -2.4 -0.2 -0.3 4.6 -0.5 10.7 -0.5 6.2 0 10.1 0.1 8.7 0.3 -1.8 0.3 -0.4 0.9 4.6 2.2 4 1 9.5 3 12.3 4.5 2.9 1.4 5.7 2.3 6.3 1.9 0.6 -0.4 0.8 -0.3 0.5 0.3 -0.8 1.3 1.8 3.7 3.1 2.9 0.5 -0.3 3.1 1.8 5.8 4.6 2.7 2.8 4.3 4.8 3.6 4.4 -1.8 -1.1 -1.5 0.9 0.5 2.5 1.4 1.2 1.6 1.2 0.8 0 -0.5 -0.9 -0.4 -1.2 0.3 -0.7 0.6 0.4 0.9 1.3 0.6 2 -0.3 0.8 0 1.7 0.7 2.2 0.8 0.5 1 0.3 0.4 -0.6 -0.5 -0.8 -0.4 -1.1 0.3 -0.6 0.6 0.4 0.8 1.4 0.5 2.3 -0.4 1.1 -0.3 1.4 0.5 0.9 0.8 -0.5 1 -0.1 0.5 1 -0.4 1.2 -0.3 1.5 0.5 1 0.8 -0.5 1 -0.1 0.5 1 -0.5 1.3 -0.3 1.5 0.7 0.9 0.9 -0.5 1.1 -0.4 0.6 0.3 -0.8 1.3 1.3 9.2 2.4 9.2 0.4 0 0.6 1.2 0.3 2.8 -0.3 2.2 -0.2 2.4 0.6 0.7 0.5 -1.3 0.8 1.6 0.8 8.5 0 6.9 -0.3 9.7 -0.8 8 -0.6 -1.7 -0.7 -0.9 -0.4 2.5 0.3 2.8 0.1 4.4 -0.3 3.7 -0.5 -0.8 -1.5 0.8 -2.6 4.5 -1 3.2 -2.7 7.5 -3.8 9.6 -1 2.1 -1.6 4.3 -1.2 4.9 0.4 0.7 0.3 0.8 -0.4 0.4 -1.2 -0.7 -3.6 3 -2.7 4.4 0.3 0.5 0 1.2 -0.6 1.6 -0.8 0.5 -0.9 0.3 -0.4 -0.7 0.8 -1.2 0.6 -1.2 -0.8 0 -1 0.7 -1.6 2.1 -1.5 3 0.2 0.8 -0.4 1.6 -1.2 1.6 -0.8 0 -1.5 0.7 -1.5 1.5 -0.1 0.8 -0.6 1.4 -1.2 1.3 -0.6 -0.1 -2.1 0.9 -3.3 2.2 -1.3 1.4 -2 2.5 -1.5 2.5 0.5 0 -0.2 1.1 -1.4 2.4 -1.3 1.4 -2.9 2.2 -3.5 2 -0.7 -0.3 -1.9 0.3 -2.7 1.2 -1.2 1.6 -1.2 1.7 0.1 0.9 1.3 -0.8 1.3 -0.7 0.1 0.8 -1.5 1.8 -2.6 2.3 -1.6 0.7 1 -1.7 -1.2 -1.1 -2.6 0.7 -1.2 1.4 -1.2 1.6 0 0.8 0.9 -0.5 1.2 -0.4 0.7 0.3 -0.4 0.6 -1.3 0.9 -2.1 0.6 -0.8 -0.3 -2.9 1 -5 3 -3.5 3.5 -5.3 4.7 -4 2.5 0.4 -0.6 -1.1 -0.1 -3.4 1 -2.3 1.2 -4.1 2.4 -4.1 2.7 0 0.3 0.4 0.3 0.9 0 0.5 -0.4 0.7 0.3 0.4 1.5 -0.5 1.6 -0.8 1.8 -1.5 0.7 -1.1 -1.5 -1.1 -1.3 1.6 7 1.1 3.2 2.2 5 2.9 4.5 0.7 -0.4 0.8 0 0.3 1.2 -0.8 2.2 3.3 18.5 4.6 18.5 0.5 0 0.6 0.4 0.3 1 -0.3 0.5 -0.3 2.6 0.1 4.6 0.5 2.5 0.9 3.2 1.5 2.2 0.6 -0.8 0.7 0.1 0.3 2.2 -0.5 2.8 -0.3 3.2 0.6 2 0.9 -1.2 1.1 -0.8 0.6 1.8 -0.4 2.3 -0.2 3.1 0.6 2.6 0.8 -0.5 0.9 0.4 0.5 3.2 -0.5 2.9 -0.4 3.5 0.4 2.4 0.8 -1.1 0.9 -0.4 0.4 2.5 -0.4 3.1 -0.3 3.7 0.5 2.5 0.9 -1.1 1 -0.3 0.6 3.5 -0.3 3.5 -0.2 4.4 0.4 3 0.7 -1.4 0.8 -0.5 0.5 3 -0.4 3.8 -0.3 4.5 0.5 3 0.7 -1.5 0.9 -0.6 0.5 3.5 -0.3 4.1 -0.2 4.9 0.5 3 0.6 -1.8 0.7 -0.8 0.3 3.4 -0.4 4.4 -0.3 5.7 0.6 5.1 0.9 -0.5 1 0.3 0.5 3 -0.5 2.7 -0.3 4 0.7 4.6 1.1 0.6 1.3 3.1 1.2 10.1 -0.1 5.9 0.1 8.7 0.7 7.8 0.6 -0.9 0.8 0.7 0.5 4.5 -0.3 4.7 -0.2 5.3 0.5 3 0.6 -2.1 0.7 0.1 0.4 7 -0.2 6.1 -0.1 9.2 0.5 8 0.5 -1.3 0.7 1.7 0.6 8 -0.3 8.4 -0.2 9.1 0.5 4 0.5 -4.1 0.6 -1.2 0.4 9 -0.2 8.8 0 13.8 0.5 12 0.5 -1.8 0.7 3.4 0.5 12.5 -0.2 9.4 0 14.1 0.5 12 0.5 -2.1 0.7 3.5 0.5 13.5 -0.2 11.3 0 16 0.6 14 0.6 -2 0.8 1 0.5 9.5 -0.2 7.6 -0.1 11.1 0.4 9 0.8 -3.4 0.8 -3.4 1 1.4 l0.1 4.9 3.8 -0.7 c2 -0.3 4.4 -0.6 5.2 -0.7 1 0 0.9 -0.3 -0.5 -1 -1.5 -0.7 -1.2 -0.8 1.4 -0.4 4 0.6 13.3 -0.4 12.6 -1.4 -0.2 -0.4 1 -0.6 2.8 -0.4 2.7 0.3 2.9 0.2 1.2 -0.7 -1.5 -0.7 -0.6 -0.8 3.4 -0.4 3.8 0.4 5.2 0.3 4.7 -0.5 -0.4 -0.7 -0.1 -0.9 0.8 -0.5 2.5 0.9 23.3 -2.8 21 -3.8 -1.3 -0.6 -0.8 -0.7 1.5 -0.3 4.8 0.7 13.2 -0.5 12.4 -1.8 -0.3 -0.6 -0.1 -0.7 0.6 -0.3 1.4 0.9 12.2 -0.3 11.6 -1.3 -0.2 -0.4 0.9 -0.5 2.6 -0.3 1.7 0.2 2.9 0 2.9 -0.7 0 -0.6 1.1 -0.8 3 -0.4 2 0.4 3 0.2 3 -0.7 0 -0.7 0.7 -1 1.7 -0.6 2.2 0.9 12.4 -0.4 11.8 -1.4 -0.3 -0.4 1.4 -0.6 3.8 -0.4 2.3 0.2 6.9 0.5 10.2 0.8 3.3 0.2 6.9 0.7 8 1.1 1.6 0.6 1.7 0.5 0.5 -0.4 -0.8 -0.6 -1 -1.1 -0.5 -1.1 1.4 0 4.3 2 3 2 -0.5 0 -0.2 0.5 0.8 1.1 0.9 0.5 2.1 0.8 2.6 0.4 0.5 -0.3 1.3 0 1.7 0.6 0.5 0.8 0.3 0.9 -0.7 0.4 -1.1 -0.6 -1.1 -0.5 -0.3 0.4 0.6 0.7 1.9 1.3 2.7 1.5 2.4 0.3 5.6 3.6 5.1 5 -0.3 0.7 0.3 1.9 1.2 2.7 1.2 0.9 1.5 1 1 0.2 -0.4 -0.7 -0.5 -1.3 -0.2 -1.3 0.3 0 1 1 1.7 2.1 0.8 1.6 0.8 2 0 1.5 -0.6 -0.4 -0.4 0.8 0.5 2.8 1 1.9 2.1 3.3 2.5 3.1 0.3 -0.3 0.9 0.5 1.3 1.8 0.9 3.3 0.6 4.5 -0.5 2.2 -0.8 -1.7 -0.9 -1.7 -0.4 0.5 0.2 1.4 0.5 3.6 0.6 5 l0.1 2.5 0.8 -2.5 c0.6 -1.7 0.7 -0.3 0.5 4 -0.4 4.8 -0.2 5.9 0.5 4 0.7 -1.9 0.8 -1.2 0.5 3 -0.4 4.1 -0.2 5 0.5 3.5 0.8 -1.5 0.9 -0.4 0.6 4 -0.4 4.4 -0.3 5.3 0.4 3.5 0.7 -1.8 0.8 -0.7 0.5 4 -0.3 4.7 -0.2 5.8 0.5 4 0.7 -1.8 0.8 -1.1 0.4 2.8 -0.4 3.7 -0.2 5.2 0.6 5.2 0.8 0 1 1.2 0.6 3.8 -0.4 2.8 -0.3 3.2 0.4 1.7 0.7 -1.4 0.9 -0.2 0.5 4.3 -0.4 4.2 -0.3 6.2 0.4 5.8 0.6 -0.4 0.8 0.6 0.4 2.9 -0.4 2.3 -0.2 3.5 0.6 3.5 0.8 0 0.9 1.3 0.5 4.2 -0.5 2.8 -0.4 3.9 0.4 3.5 0.7 -0.5 0.8 0.7 0.5 3.5 -0.5 3.2 -0.3 3.9 0.7 3.3 1 -0.6 1.2 -0.4 0.6 1 -0.4 1.1 -0.4 4.4 0 7.5 0.5 4.2 0.9 5 1.5 3.5 0.6 -1.3 0.6 -0.3 0.3 2.6 -0.5 4 -0.3 4.7 1.8 5.7 1.2 0.7 1.5 1 0.5 0.7 -1.1 -0.3 -1.6 -0.1 -1.1 0.6 0.3 0.6 1.5 0.9 2.5 0.6 1.1 -0.3 1.7 -0.1 1.4 0.3 -0.7 1.2 3.2 3.3 4.5 2.5 0.6 -0.4 0.9 -0.1 0.8 0.6 -0.2 0.6 0.3 1.4 1.1 1.7 1 0.3 1.1 0 0.5 -0.9 -0.7 -1.2 -0.5 -1.2 0.9 0 0.9 0.7 1.5 1.7 1.2 2.1 -0.5 0.9 5.9 7.2 6.7 6.5 0.3 -0.3 1.1 0.2 1.9 1.2 1.2 1.4 1.2 1.5 0 0.9 -0.9 -0.6 -1.2 -0.4 -0.9 0.5 0.3 0.8 1 1.4 1.5 1.4 0.6 0 1.5 0.4 2 0.9 0.5 0.5 0.2 0.6 -0.6 0.1 -0.9 -0.5 -1.2 -0.3 -0.9 0.6 0.3 0.8 1.1 1.3 1.7 1.1 0.7 -0.1 1 0.2 0.7 0.7 -0.8 1.2 0.4 4.2 1.4 3.6 0.9 -0.6 2.3 2.5 1.5 3.3 -0.3 0.3 -0.5 -0.1 -0.5 -0.8 0 -0.7 -0.2 -1.1 -0.5 -0.8 -0.9 0.9 0.6 3.8 1.6 3.2 0.6 -0.3 0.7 0.6 0.4 2.3 -0.4 1.6 -0.3 2.3 0.2 1.6 0.4 -0.6 0.8 4.6 0.8 11.7 0 7.1 -0.4 12.3 -0.8 11.7 -0.5 -0.7 -0.6 0.3 -0.3 2.3 0.5 2.7 0.3 3.1 -0.5 2 -0.8 -1.2 -1 -0.9 -0.6 1.2 0.2 1.5 0.1 2.5 -0.4 2.3 -1.1 -0.7 -2.2 3.2 -1.3 4.6 0.5 0.8 0.3 0.9 -0.6 0.4 -1 -0.6 -1.2 -0.4 -0.7 0.9 0.4 1 0.3 1.5 -0.3 1.1 -0.9 -0.6 -3.2 2.8 -2.8 4.2 0.2 0.4 0 0.8 -0.4 0.8 -1.5 0 -10.8 10 -10.7 11.5 0 0.9 0.3 0.7 0.9 -0.6 0.5 -1.2 1.5 -2.6 2.2 -3 1 -0.6 1.1 -0.5 0.1 0.7 -0.7 0.8 -1.5 3.5 -1.8 5.9 -0.3 2.9 -0.2 3.8 0.3 2.5 0.6 -1.2 0.9 2 0.8 8.8 0 6.3 -0.4 10.1 -0.9 9.4 -0.5 -0.7 -0.6 0.1 -0.3 2.1 0.3 1.9 0.2 3.1 -0.3 2.7 -1.2 -0.7 -2.4 3.1 -1.5 4.6 0.5 0.8 0.3 0.9 -0.6 0.4 -1 -0.6 -1.2 -0.4 -0.7 0.8 0.4 1 0.2 1.6 -0.5 1.4 -0.6 -0.1 -1.3 0.4 -1.6 1.2 -0.3 0.9 0 1.1 0.9 0.6 0.8 -0.5 1.1 -0.4 0.6 0.1 -0.5 0.5 -1.4 0.9 -2 0.9 -0.7 0 -1.2 0.8 -1.2 1.7 0 2.2 -3.1 5.3 -5.3 5.3 -0.9 0 -1.7 0.7 -1.7 1.5 -0.1 0.8 -0.6 1.4 -1.1 1.3 -0.6 -0.1 -3.8 0.9 -7 2.2 -3.2 1.4 -5.3 2.5 -4.5 2.5 3.3 0 -0.2 1.1 -8 2.5 -4.6 0.9 -10.2 1.3 -12.4 1 -3.1 -0.4 -3.6 -0.3 -2 0.5 1.5 0.8 0.8 0.9 -3 0.5 -3.6 -0.3 -4.5 -0.2 -3 0.5 1.5 0.7 0.6 0.8 -3 0.5 -3.7 -0.4 -4.5 -0.3 -3 0.5 1.5 0.7 0.5 0.8 -3.5 0.5 -4.2 -0.4 -4.9 -0.2 -3 0.5 1.9 0.7 1.2 0.8 -3 0.5 -4.2 -0.3 -4.9 -0.2 -3 0.5 1.9 0.7 1.2 0.8 -3 0.5 -4.2 -0.3 -4.9 -0.2 -3 0.5 1.9 0.7 1.1 0.8 -3 0.5 -3.4 -0.3 -4.8 -0.2 -3.5 0.3 1.5 0.7 1 1 -2.6 1.5 -2.6 0.3 -6.4 0.4 -8.5 0.2 -2.8 -0.3 -3.2 -0.3 -1.4 0.3 1.9 0.6 0.9 1 -5 1.9 -4.1 0.7 -9.5 1 -12 0.8 -3.6 -0.4 -4 -0.3 -2 0.5 1.9 0.7 1.2 0.8 -3 0.5 -4.2 -0.3 -4.9 -0.2 -3 0.5 1.9 0.7 1.2 0.8 -3 0.5 -4.2 -0.3 -4.9 -0.2 -3 0.5 1.9 0.7 1.2 0.9 -3 0.5 -3.3 -0.2 -4.7 -0.1 -3.5 0.4 1.5 0.6 0.9 0.9 -2.6 1.4 -2.6 0.3 -6.4 0.4 -8.5 0.2 -3.3 -0.4 -3.5 -0.3 -1.4 0.5 1.9 0.7 1.2 0.8 -3 0.5 -4.2 -0.3 -4.9 -0.2 -3 0.5 1.9 0.7 1.2 0.9 -3 0.5 -3.9 -0.3 -4.9 -0.2 -3.5 0.5 1.4 0.7 0.4 0.8 -3.5 0.5 -4.2 -0.4 -4.9 -0.2 -3 0.5 1.9 0.7 1.2 0.8 -3 0.5 -4.2 -0.3 -4.9 -0.2 -3 0.5 2.2 0.8 2.1 0.9 -1.2 0.7 -3.7 -0.3 -3.8 -0.2 -3.9 3.3 -0.1 3.3 -0.2 3.3 -1 1 -0.6 -1.7 -0.7 -0.3 -0.4 4.5 0.3 5.2 0.1 6.2 -0.5 4 -0.7 -2.2 -0.8 -1.2 -0.5 4 0.2 4.9 0.1 6.3 -0.5 4.5 -0.7 -1.8 -0.8 -0.8 -0.5 3.5 0.3 4.4 0.2 5.3 -0.5 3.5 -0.7 -1.8 -0.8 -0.9 -0.5 3.5 0.2 3.6 0.1 5 -0.4 3.5 -0.6 -2.2 -0.8 -1.9 -1.4 2.2 -0.4 2.6 -0.4 6.2 -0.2 8 0.5 2.7 0.4 3 -0.5 1.3 -0.9 -1.7 -1 -1.5 -0.5 1.3 0.6 4 -0.5 9.8 -1.5 8.1 -1.1 -1.6 -2.3 4.5 -1.5 7.3 0.5 1.9 0.4 2 -0.5 0.8 -0.9 -1.2 -1 -0.8 -0.6 2 0.4 2.1 0.3 3 -0.3 2.2 -1.1 -1.8 -2.4 3 -1.6 6.1 0.2 1.2 0.2 1.6 -0.2 0.8 -0.7 -1.7 -7.5 16.7 -6.8 18.6 0.2 0.7 -0.1 1.2 -0.7 1 -0.6 -0.1 -1.3 0.4 -1.6 1.2 -0.3 0.8 0 1.1 0.7 0.7 1.7 -1.1 1.3 0 -0.6 1.5 -1.4 1.2 -1.6 1.2 -0.8 0 0.6 -1.1 0.4 -1.3 -0.9 -0.8 -1 0.4 -2.1 0.7 -2.4 0.7 -0.4 0 -0.2 0.4 0.5 0.8 0.7 0.4 -0.8 0.7 -3.2 0.7 -2.3 0 -4 -0.4 -3.7 -0.9 0.3 -0.5 -0.2 -0.7 -1 -0.3 -1.5 0.5 -4.8 -2 -4.8 -3.7 0 -0.5 0.9 0.2 2.1 1.5 l2.1 2.4 -1.6 -2.5 c-2.2 -3.3 -2 -5.4 0.9 -14 1.4 -4 2.5 -7.8 2.4 -8.4 -0.1 -1.7 -5.9 15.6 -5.9 17.6 0 1.1 -0.7 1.8 -2 1.8 -2.8 0 -2.6 -2 1.6 -15.2 5.2 -16.5 10 -37.3 12.3 -53.3 1.2 -7.7 2.1 -14.6 2.1 -15.4 0 -1.5 -0.5 -1.5 -24.5 2.4 -8.2 1.4 -17.9 2.9 -21.5 3.4 -3.6 0.5 -20.9 3.3 -38.5 6.2 -36.9 6 -46.4 6.5 -55.7 3 -3.2 -1.3 -5.8 -2.7 -5.8 -3.2 0 -0.5 -0.4 -0.9 -0.8 -0.9 -1.2 0 -10.2 -8.8 -10.2 -10 0 -0.5 -0.4 -1 -0.9 -1 -2.3 0 -5.4 -12.9 -9.1 -37.4 -2.2 -14.3 -5.3 -35.1 -7 -46.1 -14.8 -97.2 -20 -133.2 -20 -137.7 0 -6 2.3 -16.7 3.7 -17.7 0.6 -0.3 1.3 -1.8 1.7 -3.3 0.3 -1.5 1.5 -3.2 2.6 -3.8 1.1 -0.6 2 -1.7 2 -2.6 0 -0.8 1.1 -1.9 2.5 -2.4 1.4 -0.5 2.5 -1.4 2.5 -2 0 -0.5 0.7 -1 1.5 -1 0.8 0 1.5 -0.4 1.5 -0.9 0 -2.4 13.5 -5.9 35 -9 52.5 -7.8 142.2 -22 142.9 -22.7 0.3 -0.3 -0.1 -0.9 -0.8 -1.4 -1.1 -0.6 -1.3 -4.2 -0.9 -18.9 0.4 -12 0.2 -18.1 -0.5 -18.1 -0.6 0 -0.8 -4.3 -0.5 -12.5 0.4 -8.1 0.2 -12.5 -0.4 -12.5 -0.7 0 -0.9 -3.9 -0.6 -10.5 0.2 -5.8 0.1 -10.5 -0.3 -10.5 -0.3 0 -0.9 -5.5 -1.3 -12.2 -1.9 -33.5 -8.3 -78.8 -14.7 -103.5 -3.8 -14.8 -10.3 -34.7 -14.9 -45.8 -2.1 -4.9 -4.1 -10.2 -4.4 -11.7 -0.4 -1.6 -1.1 -2.8 -1.6 -2.8 -0.6 0 -1 -0.9 -1 -2 0 -1.1 -0.6 -2.3 -1.4 -2.6 -0.7 -0.3 -2.2 -2.4 -3.2 -4.7 -1 -2.3 -2.4 -4.8 -3.1 -5.5 -0.7 -0.7 -1.3 -2 -1.3 -2.8 0 -0.8 -0.4 -1.4 -1 -1.4 -0.5 0 -1 -0.7 -1 -1.5 0 -0.8 -0.4 -1.5 -0.8 -1.5 -0.5 0 -1.5 -1.2 -2.3 -2.7 -0.8 -1.5 -2.5 -3.8 -3.8 -5.2 -1.3 -1.5 -2.8 -3.8 -3.3 -5.2 -0.5 -1.5 -1.8 -2.9 -2.9 -3.2 -1 -0.3 -2.3 -1.6 -2.8 -2.9 -1.1 -2.7 -9.8 -11.2 -12.4 -12.2 -1.1 -0.3 -2.1 -1.5 -2.4 -2.5 -0.3 -1.1 -1.8 -2.4 -3.3 -3 -1.6 -0.5 -3.3 -1.9 -4 -3 -0.6 -1.2 -1.7 -2.1 -2.5 -2.1 -0.8 0 -1.5 -0.4 -1.5 -1 0 -0.5 -0.7 -1 -1.5 -1 -0.9 0 -1.8 -0.7 -2.1 -1.5 -0.4 -0.8 -1.2 -1.5 -2 -1.5 -0.8 0 -1.4 -0.4 -1.4 -0.9 0 -0.5 -1.1 -1.2 -2.5 -1.5 -1.4 -0.4 -2.5 -1.1 -2.5 -1.6 0 -0.6 -0.6 -1 -1.4 -1 -0.8 0 -1.6 -0.7 -2 -1.5 -0.3 -0.8 -1.4 -1.5 -2.5 -1.5 -1.1 0 -2.7 -0.8 -3.7 -1.7 -0.9 -1 -3.1 -2.3 -4.8 -2.9 -1.7 -0.7 -8.5 -3.6 -15.1 -6.6 -31.7 -14.5 -72.1 -24.5 -107.2 -26.5 -5.7 -0.3 -10.3 -1 -10.3 -1.5 0 -0.4 -5.6 -0.8 -12.5 -0.8 -7.7 0 -12.5 0.4 -12.5 1 0 0.6 -2.8 1 -6.5 1 -12.9 0 -50.2 4.6 -72.5 9 -27.3 5.4 -54.6 13.2 -78.1 22.5 -6.3 2.5 -12.2 4.5 -13.1 4.5 -1 0 -1.8 0.4 -1.8 0.8 0 1.1 -4.6 3.2 -7 3.2 -1 0 -2.5 0.6 -3.2 1.4 -1.9 1.8 -7.4 4.6 -9.2 4.6 -0.8 0 -2.7 1.1 -4.2 2.5 -1.4 1.3 -3.6 2.7 -4.7 3.1 -1.2 0.4 -2.7 1.3 -3.5 2 -0.7 0.8 -2.2 1.4 -3.3 1.4 -1.1 0 -2.2 0.7 -2.5 1.5 -0.4 0.8 -1.2 1.5 -2 1.5 -0.8 0 -1.4 0.5 -1.4 1 0 0.6 -0.5 1 -1 1 -0.6 0 -2 0.9 -3.2 2 -1.2 1.1 -2.8 2 -3.5 2 -0.7 0 -1.3 0.5 -1.3 1 0 0.6 -0.7 1 -1.5 1 -0.8 0 -1.5 0.5 -1.5 1 0 0.6 -0.9 1 -2 1 -1.1 0 -2 0.7 -2 1.5 0 0.8 -0.6 1.5 -1.4 1.5 -0.8 0 -1.6 0.7 -2 1.5 -0.3 0.8 -1.5 1.5 -2.6 1.5 -1.1 0 -2 0.6 -2 1.4 0 0.8 -1.1 1.7 -2.5 2 -1.4 0.4 -2.5 1.3 -2.5 2.1 0 0.8 -1.6 2.2 -3.5 3.1 -1.9 0.9 -3.5 2.2 -3.5 2.8 0 1.5 -4.8 6.1 -7.3 6.9 -0.9 0.4 -2.1 1.7 -2.7 3.1 -0.5 1.3 -3 4.1 -5.5 6.2 -2.6 2.2 -5.1 4.9 -5.6 6.2 -0.5 1.2 -1.5 2.2 -2.4 2.2 -0.9 0 -1.5 0.9 -1.5 2.1 0 1.2 -0.8 2.3 -2 2.6 -1.1 0.3 -2 1.4 -2 2.4 0 1.1 -0.7 2.2 -1.5 2.5 -0.8 0.4 -1.5 1.3 -1.5 2 0 0.8 -0.7 1.7 -1.5 2 -0.8 0.4 -1.5 1.2 -1.5 2 0 0.8 -0.4 1.4 -1 1.4 -0.5 0 -1 0.7 -1 1.5 0 0.8 -0.4 1.5 -1 1.5 -0.5 0 -1 0.7 -1 1.5 0 0.8 -0.4 1.5 -0.9 1.5 -0.5 0 -1.2 1.1 -1.5 2.5 -0.4 1.4 -1.1 2.5 -1.6 2.5 -0.6 0 -1 0.7 -1 1.5 0 0.8 -0.9 2.3 -2 3.2 -1.1 1 -2 2.3 -2 2.9 0 1.6 -9.3 20.8 -10.2 21.2 -0.5 0.2 -0.8 1.1 -0.8 2.1 0 0.9 -1.4 5.2 -3.1 9.6 -13.6 35.2 -24.6 89.1 -26.6 130.3 -0.3 7.2 -0.9 13.2 -1.3 13.2 -0.3 0 -0.6 11.5 -0.6 25.5 -0.1 14.3 0.3 25.5 0.8 25.5 0.5 0 0.8 5.2 0.6 11.5 -0.2 6.3 0.1 11.5 0.6 11.5 0.4 0 0.7 4.3 0.4 9.5 -0.2 5.5 0 9.5 0.5 9.5 0.6 0 0.8 4.4 0.5 10.5 -0.3 5.8 -0.1 10.5 0.3 10.5 0.4 0 0.8 14.5 0.9 32.3 0 17.7 0.5 35.4 1 39.2 2.7 21.4 6 56.7 7 75.5 1.4 26.8 4.9 60.4 6.6 63.1 0.8 1.4 1.6 5.4 3.5 18.4 2.2 15.4 2.9 20.5 3.9 32.5 0.6 6.9 2.2 18.4 3.5 25.5 1.3 7.2 2.6 15.6 2.9 18.8 0.6 5.7 0.3 6.3 -3.5 5.9 -0.8 -0.1 -3.6 2.9 -4.1 4.2 -0.3 1 -9.7 1.5 -9.9 0.6z m596.7 -37.1 c0.7 -3 1.3 -6.1 1.3 -6.9 0 -0.8 -0.6 0.5 -1.3 3 -2.3 8.2 -2.8 10.5 -2.1 9.9 0.3 -0.4 1.3 -3.1 2.1 -6z m7.1 -40.1 c-0.2 -1.3 -0.4 -0.5 -0.4 1.7 -0.1 2.2 0.1 3.2 0.4 2.3 0.2 -1 0.2 -2.8 0 -4z m-124.4 0.5 c-1.8 -0.2 -4.8 -0.2 -6.5 0 -1.8 0.2 -0.4 0.4 3.2 0.4 3.6 0 5 -0.2 3.3 -0.4z m-19.6 -4.5 c-7 -3.8 -12 -9.6 -15.3 -17.5 -1.3 -3.2 -2.4 -5.1 -2.4 -4.3 0 2.6 4 10.2 7.6 14.7 3.3 4 12.5 10.3 14.9 10.3 0.6 0 -1.6 -1.5 -4.8 -3.2z m44.8 1.2 c2.7 -0.7 2.7 -0.8 0.5 -0.8 -1.4 0 -3.8 0.4 -5.5 0.8 -2.7 0.7 -2.7 0.8 -0.5 0.8 1.4 0 3.9 -0.4 5.5 -0.8z m100.2 -5.7 c-0.3 -1 -0.5 -0.2 -0.5 1.7 0 1.9 0.2 2.7 0.5 1.8 0.2 -1 0.2 -2.6 0 -3.5z m1 -8 c-0.3 -1 -0.5 -0.2 -0.5 1.7 0 1.9 0.2 2.7 0.5 1.8 0.2 -1 0.2 -2.6 0 -3.5z m-114.7 -4.3 c2.6 -0.7 1.9 -0.7 -2.5 -0.2 -3.3 0.4 -8.8 0.7 -12.2 0.7 -5.5 0 -6.5 -0.3 -9.3 -3 -4.2 -4 -5.1 -5.8 -6.7 -13 l-1.3 -6 0.6 5.4 c0.8 8.6 4.9 14.7 11.4 17.4 1.9 0.8 15.3 -0.1 20 -1.3z m39 -10.9 c190.8 -30 244.8 -38.8 247.4 -40.4 2.3 -1.6 4.6 -8 4.6 -13.4 0 -6.5 -0.6 -7.3 -5.9 -7.3 -5.9 0 -18.5 -2.7 -18.9 -4 -0.2 -0.6 -1.4 -1 -2.7 -1 -1.2 0 -2.5 -0.7 -2.9 -1.5 -0.3 -0.8 -1.5 -1.5 -2.6 -1.5 -1.1 0 -2 -0.6 -2 -1.4 0 -0.8 -1 -1.6 -2.2 -1.8 -1.2 -0.2 -2.8 -1.4 -3.5 -2.8 -0.6 -1.3 -2.2 -2.8 -3.3 -3.2 -1.2 -0.4 -2.4 -1.7 -2.7 -2.8 -0.3 -1.1 -0.9 -2 -1.4 -2 -0.5 0 -0.9 -0.7 -0.9 -1.5 0 -0.8 -0.4 -1.5 -0.9 -1.5 -0.5 0 -2 -2.6 -3.2 -5.7 -2 -5 -2.3 -7.6 -2.3 -18.8 0 -11.2 0.3 -13.8 2.3 -18.8 1.2 -3.1 2.9 -6.3 3.7 -7.1 0.8 -0.8 1.4 -1.9 1.4 -2.5 0 -0.6 0.7 -1.1 1.5 -1.1 0.8 0 1.5 -0.8 1.5 -1.7 0 -2 5.8 -8.3 7.7 -8.3 0.8 0 1.6 -0.7 1.9 -1.5 0.4 -0.8 1.2 -1.5 2 -1.5 0.8 0 1.4 -0.4 1.4 -1 0 -0.5 1.1 -1 2.5 -1 1.4 0 2.8 -0.7 3.1 -1.5 0.3 -0.8 3.1 -2.2 6.1 -3.2 5.2 -1.6 5.5 -1.9 5.1 -4.8 -8.1 -61.7 -12.4 -90.4 -13.8 -90.9 -0.8 -0.3 -3.1 -1.8 -5 -3.2 -3 -2.2 -4.2 -2.5 -8 -1.9 -2.5 0.3 -23.8 3.8 -47.5 7.6 -99.5 16.2 -150.7 24.4 -196 31.5 -26.4 4.1 -50.4 8.3 -53.4 9.3 -5.1 1.7 -5.5 2.2 -6.9 6.4 -1.3 4.1 -1.2 6 1.2 21.8 26.4 177.5 27.7 185.4 30.8 189.5 0.5 0.7 2.4 1.5 4.3 1.8 1.9 0.4 3.5 1.2 3.5 1.9 0 0.8 0.3 0.9 0.8 0.1 0.4 -0.6 24.3 -4.8 53.2 -9.3z m-18.3 7.8 c7.3 -1.2 13.2 -2.4 12.9 -2.6 -0.5 -0.6 -28.6 3.7 -28.6 4.3 0 0.7 1.9 0.5 15.7 -1.7z m39.3 -6.3 c7.4 -1.3 12.4 -2.4 11 -2.4 -1.4 0 -8.6 1 -16 2.2 -7.4 1.3 -12.4 2.4 -11 2.4 1.4 0 8.6 -1 16 -2.2z m83.6 -13.1 c32.9 -5.2 66.1 -10.5 73.8 -11.7 7.6 -1.2 13.4 -2.4 12.8 -2.6 -1.1 -0.3 -12.1 1.4 -64.7 9.8 -9.9 1.6 -29.9 4.7 -44.5 7 -29.4 4.6 -41.3 6.7 -38.9 6.9 0.8 0 28.5 -4.2 61.5 -9.4z m-178.7 -23.4 c-1.8 -12.1 -3.5 -21.9 -3.7 -21.6 -0.3 0.2 1 10.3 2.8 22.5 1.9 12.1 3.5 21.8 3.8 21.6 0.2 -0.3 -1.1 -10.4 -2.9 -22.5z m-18.2 9.2 c-0.3 -1 -0.5 -0.2 -0.5 1.7 0 1.9 0.2 2.7 0.5 1.8 0.2 -1 0.2 -2.6 0 -3.5z m293.8 -1.3 c4.2 -1.1 0.1 -1.1 -5 -0.1 -3.4 0.7 -3.5 0.9 -1 0.9 1.7 0 4.4 -0.4 6 -0.8z m24.8 -4.1 c10 -1.6 19.6 -3.7 21.5 -4.6 5.3 -2.5 8.5 -8.3 8.8 -15.6 0.1 -3.4 0 -4.6 -0.2 -2.7 -1 8 -1.6 10.1 -4.1 13 -4 4.8 -6.7 5.7 -26.4 9 -10.1 1.7 -18.8 3.2 -19.4 3.5 -2.6 1 3.2 0.2 19.8 -2.6z m-320.6 -7.6 c-0.3 -1 -0.5 -0.2 -0.5 1.7 0 1.9 0.2 2.7 0.5 1.8 0.2 -1 0.2 -2.6 0 -3.5z m8.8 -72 c-4.1 -27.9 -7.7 -51.2 -7.9 -51.8 -1.1 -2.7 -0.3 4.3 3.4 28.6 10 66.6 11.5 76 11.8 75.1 0.2 -0.6 -3.1 -23.9 -7.3 -51.9z m341.2 48 c-0.3 -1 -0.5 -0.2 -0.5 1.7 0 1.9 0.2 2.7 0.5 1.8 0.2 -1 0.2 -2.6 0 -3.5z m-4.9 -3 c-2.1 -0.2 -5.7 -0.2 -8 0 -2.4 0.2 -0.7 0.4 3.7 0.4 4.4 0 6.3 -0.2 4.3 -0.4z m-18.9 -2.7 c-8.2 -2.9 -14.2 -7 -20.4 -13.8 -5.7 -6.3 -8.2 -11.2 -10.1 -19.2 -1.4 -6.1 -1.4 -6.1 -0.9 -1.1 1 9.6 8.3 20.9 18.7 28.9 4.2 3.1 14.2 7.6 17.3 7.6 1.1 0 -1 -1.1 -4.6 -2.4z m30.3 -17.9 c4.7 -3.6 9.4 -10.5 10.3 -15.2 0.4 -2 -0.1 -1.4 -1.3 1.7 -2.7 6.4 -5.4 10 -10.1 13.3 -3.9 2.6 -4.5 2.7 -12.8 2.3 -4.8 -0.3 -7.8 -0.1 -6.7 0.3 1 0.4 5.1 0.8 9.1 0.8 6.6 0.1 7.5 -0.2 11.5 -3.2z m-10.2 -0.6 c0 -0.5 1.8 -1.2 4 -1.6 2.3 -0.4 4 -1.2 4 -2 0 -0.8 1 -2.2 2.3 -3.2 2.4 -1.9 6.7 -10.9 6.7 -14.2 0 -1 0.6 -2.2 1.3 -2.4 0.8 -0.4 0.9 -0.8 0.2 -1.4 -0.6 -0.4 -1.6 -3 -2.3 -5.6 -0.7 -2.7 -1.8 -5.4 -2.5 -6.1 -0.6 -0.7 -2.6 -2.9 -4.4 -4.9 -2 -2.3 -5 -4.2 -8.1 -5.2 -4.5 -1.5 -5.2 -1.5 -9.3 0 -2.4 1 -5.9 2.2 -7.6 2.8 -1.8 0.7 -3.3 1.7 -3.3 2.4 0 0.6 -1.3 2.2 -2.8 3.5 -1.6 1.3 -3.9 4.9 -5.2 8.1 -2.2 5.3 -2.3 6.2 -1.1 10.5 0.6 2.6 1.6 4.9 2.2 5 0.5 0.2 0.9 0.7 0.9 1.2 0 1.1 5.9 7 7.1 7 0.5 0 0.9 0.4 0.9 0.8 0 1 8.8 4.2 11.8 4.2 1.2 0 2.2 0.5 2.2 1 0 0.6 0.7 1 1.5 1 0.8 0 1.5 -0.4 1.5 -0.9z m-18 -0.5 c0 -0.2 -1.6 -1.4 -3.5 -2.6 -3.7 -2.3 -8.4 -8.4 -10.4 -13.5 l-1.1 -3 0.5 2.8 c0.9 4.4 5.1 10.4 9.7 13.7 4.1 3 4.8 3.4 4.8 2.6z m40 -23.8 c-0.1 -3.5 -0.7 -7.6 -1.5 -9.3 -1.1 -2.3 -1.3 -2.4 -0.7 -0.5 0.4 1.4 0.7 5.5 0.7 9.3 0 3.7 0.3 6.7 0.8 6.7 0.4 0 0.7 -2.8 0.7 -6.2z m-54.2 -4.3 c0 -1.6 -0.2 -1.5 -0.8 0.5 -0.4 1.4 -0.8 3.6 -0.8 5 0 2.2 0.1 2.2 0.8 -0.5 0.4 -1.6 0.8 -3.9 0.8 -5z m-14.8 -14 c6 -12.4 18.8 -23 31.9 -26.5 2.3 -0.6 4.1 -1.3 3.8 -1.6 -0.9 -0.9 -13.1 3.7 -17.8 6.7 -11.7 7.4 -21.5 21.9 -22.4 33 l-0.4 5.4 0.9 -5.5 c0.6 -3 2.3 -8.2 4 -11.5z m24.8 -1.4 c2.2 -1.7 6 -4 8.3 -5.1 2.4 -1.1 3.8 -2 3.1 -2 -2 0 -8.5 3.6 -12.2 6.7 -3.4 2.8 -9 10.8 -9 12.7 0 0.6 1.3 -1.2 3 -4 1.6 -2.8 4.7 -6.6 6.8 -8.3z m39.8 4.2 c-2.4 -4.6 -10.5 -11.3 -13.6 -11.3 -0.8 0.1 -0.1 0.7 1.5 1.4 4.2 1.8 9.3 6.3 11.1 9.7 0.8 1.6 1.7 2.9 2 2.9 0.2 0 -0.2 -1.2 -1 -2.7z m-381.9 -31 c-0.3 -1 -0.5 -0.2 -0.5 1.7 0 1.9 0.2 2.7 0.5 1.8 0.2 -1 0.2 -2.6 0 -3.5z m351.7 -23.3 c-1.6 -11.1 -3 -19.7 -3.2 -19 -0.5 1.4 5 40.2 5.6 39.6 0.2 -0.3 -0.9 -9.5 -2.4 -20.6z m-336.4 -6.2 c-2.4 -15.7 -2.1 -19.3 1.7 -23.8 3.6 -4.3 6.6 -5.6 16.1 -7.1 4.5 -0.7 8 -1.5 7.7 -1.7 -0.9 -0.9 -16.1 2.1 -19.6 3.9 -3.9 1.9 -7.3 6.5 -8.4 11.2 -0.7 2.7 3.5 35.1 4.3 32.9 0.2 -0.7 -0.6 -7.6 -1.8 -15.4z m-447.3 3 c-0.2 -1.8 -0.4 -0.6 -0.4 2.7 0 3.3 0.2 4.8 0.4 3.3 0.2 -1.5 0.2 -4.2 0 -6z m-19 -8 c-0.2 -1.3 -0.4 -0.5 -0.4 1.7 -0.1 2.2 0.1 3.2 0.4 2.3 0.2 -1 0.2 -2.8 0 -4z m445 -13 c-0.2 -2.4 -0.4 -0.5 -0.4 4.2 0 4.7 0.2 6.6 0.4 4.3 0.2 -2.4 0.2 -6.2 0 -8.5z m-427 -4.5 c-0.2 -2.7 -0.3 -0.5 -0.3 4.7 0 5.2 0.1 7.4 0.3 4.8 0.2 -2.7 0.2 -6.9 0 -9.5z m780.3 -3.3 c-0.7 -5.5 -1.5 -9.8 -1.8 -9.6 -0.2 0.3 0.1 5 0.8 10.6 0.7 5.5 1.5 9.8 1.8 9.6 0.2 -0.3 -0.1 -5 -0.8 -10.6z m-343.5 -13.5 c2.2 -2.2 5.1 -4.9 6.5 -5.9 2.4 -1.7 2.4 -1.7 -0.5 0 -6 3.4 -12.5 11.1 -13.9 16.4 -0.4 1.4 0.4 0.5 1.6 -1.9 1.2 -2.5 4 -6.3 6.3 -8.6z m-437.8 -4.2 c-0.2 -2.1 -0.4 -0.4 -0.4 3.7 0 4.1 0.2 5.8 0.4 3.8 0.2 -2.1 0.2 -5.5 0 -7.5z m487.1 9 c-1 -0.2 -2.6 -0.2 -3.5 0 -1 0.3 -0.2 0.5 1.7 0.5 1.9 0 2.7 -0.2 1.8 -0.5z m16.7 -2.2 c2.6 -0.6 3.1 -0.9 1.5 -0.9 -1.4 -0.1 -4.3 0.3 -6.5 0.7 -2.6 0.6 -3.1 0.9 -1.5 0.9 1.4 0.1 4.3 -0.3 6.5 -0.7z m275 -7.6 c-0.4 -3.6 -1 -6.4 -1.2 -6.1 -0.3 0.2 -0.2 3.4 0.2 7.1 0.4 3.6 1 6.4 1.2 6.1 0.3 -0.2 0.2 -3.4 -0.2 -7.1z m-262 5.5 c4.2 -1.1 0.1 -1.1 -5 -0.1 -3.4 0.7 -3.5 0.9 -1 0.9 1.7 0 4.4 -0.4 6 -0.8z m13 -2 c4.2 -1.1 0.1 -1.1 -5 -0.1 -3.4 0.7 -3.5 0.9 -1 0.9 1.7 0 4.4 -0.4 6 -0.8z m55.5 -9 c1.7 -0.6 0.9 -0.7 -2.5 -0.3 -2.7 0.3 -5.2 0.7 -5.4 0.9 -0.8 0.7 5.4 0.2 7.9 -0.6z m-586.3 -10.7 c-0.2 -2.1 -0.4 -0.4 -0.4 3.7 0 4.1 0.2 5.8 0.4 3.8 0.2 -2.1 0.2 -5.5 0 -7.5z m598.8 8.8 c3.4 -0.7 3.5 -0.9 1 -0.9 -1.6 0 -4.3 0.4 -6 0.8 -4.2 1.1 -0.1 1.1 5 0.1z m13 -2.1 c4.2 -1.1 0.1 -1.1 -5 -0.1 -3.4 0.7 -3.5 0.9 -1 0.9 1.7 0 4.4 -0.4 6 -0.8z m165.6 -7.7 c-0.6 -3.7 -1.9 -7.9 -2.9 -9.3 -2.1 -2.8 -7.9 -7 -9.6 -7 -0.6 0 0.7 1 2.9 2.3 5.2 2.9 8.1 8.3 9 16.6 0.4 3.6 1 6 1.2 5.4 0.3 -0.7 0 -4.3 -0.6 -8z m-128.6 1.8 c3.4 -0.7 3.5 -0.9 1 -0.9 -1.6 0 -4.3 0.4 -6 0.8 -4.2 1.1 -0.1 1.1 5 0.1z m-117.7 -1.8 c-1 -0.2 -2.6 -0.2 -3.5 0 -1 0.3 -0.2 0.5 1.7 0.5 1.9 0 2.7 -0.2 1.8 -0.5z m178.7 -8.2 c3.4 -0.7 3.5 -0.9 1 -0.9 -1.6 0 -4.3 0.4 -6 0.8 -4.2 1.1 -0.1 1.1 5 0.1z m-710.8 -25.3 c-0.1 -4.6 -0.3 -0.9 -0.3 8.2 0 9.1 0.2 12.8 0.3 8.3 0.2 -4.6 0.2 -12 0 -16.5z m732.8 21.8 c3.9 -0.8 5.9 -1.4 4.5 -1.4 -1.4 -0.1 -5.6 0.5 -9.5 1.2 -3.8 0.8 -5.9 1.4 -4.5 1.4 1.4 0.1 5.7 -0.5 9.5 -1.2z m22.5 -3.5 c3.4 -0.6 3.7 -0.9 1.5 -0.9 -1.6 -0.1 -4.8 0.3 -7 0.7 -5.3 1.1 -0.5 1.2 5.5 0.2z m-131.3 -12.3 c-0.2 -2.4 -0.4 -0.5 -0.4 4.2 0 4.7 0.2 6.6 0.4 4.3 0.2 -2.4 0.2 -6.2 0 -8.5z m-1 -32.1 c-0.2 -2.3 -0.3 -0.1 -0.3 4.8 0 5 0.1 6.8 0.3 4.2 0.2 -2.6 0.2 -6.7 0 -9z m-623 -15.4 c-0.1 -4.3 -0.3 -1 -0.3 7.2 0 8.3 0.2 11.8 0.3 7.8 0.2 -4 0.2 -10.7 0 -15z m622 -12 c-0.2 -2.7 -0.3 -0.5 -0.3 4.7 0 5.2 0.1 7.4 0.3 4.8 0.2 -2.7 0.2 -6.9 0 -9.5z m-621 -8 c-0.2 -1.6 -0.4 -0.3 -0.4 2.7 0 3 0.2 4.3 0.4 2.8 0.2 -1.6 0.2 -4 0 -5.5z m620 -12 c-0.2 -2.1 -0.4 -0.6 -0.4 3.2 0 3.9 0.2 5.5 0.4 3.8 0.2 -1.8 0.2 -5 0 -7z m-619 1.5 c-0.2 -1.3 -0.4 -0.5 -0.4 1.7 -0.1 2.2 0.1 3.2 0.4 2.3 0.2 -1 0.2 -2.8 0 -4z m1 -10.5 c-0.3 -1 -0.5 -0.2 -0.5 1.7 0 1.9 0.2 2.7 0.5 1.8 0.2 -1 0.2 -2.6 0 -3.5z m617 -6 c-0.2 -1.6 -0.4 -0.5 -0.4 2.2 0 2.8 0.2 4 0.4 2.8 0.2 -1.3 0.2 -3.5 0 -5z m-616 -1 c-0.3 -1 -0.5 -0.2 -0.5 1.7 0 1.9 0.2 2.7 0.5 1.8 0.2 -1 0.2 -2.6 0 -3.5z m615 -11.5 c-0.2 -1.3 -0.4 -0.3 -0.4 2.2 0 2.5 0.2 3.5 0.4 2.3 0.2 -1.3 0.2 -3.3 0 -4.5z m-1 -11 c-0.2 -1.3 -0.4 -0.3 -0.4 2.2 0 2.5 0.2 3.5 0.4 2.3 0.2 -1.3 0.2 -3.3 0 -4.5z m-1 -8.5 c-0.3 -1 -0.5 -0.2 -0.5 1.7 0 1.9 0.2 2.7 0.5 1.8 0.2 -1 0.2 -2.6 0 -3.5z m18 -8 c-0.3 -1 -0.5 -0.2 -0.5 1.7 0 1.9 0.2 2.7 0.5 1.8 0.2 -1 0.2 -2.6 0 -3.5z m-19.3 -4.2 c-0.4 -3.4 -0.9 -6 -1.1 -5.7 -0.3 0.3 -0.2 3.2 0.2 6.6 0.4 3.4 0.9 5.9 1.2 5.7 0.2 -0.3 0.1 -3.3 -0.3 -6.6z m-601.5 -8.6 c-0.2 -1.7 -2.7 6.9 -2.7 9 0 1.1 0.6 -0.2 1.4 -3 0.7 -2.7 1.3 -5.4 1.3 -6z m11.7 -40.2 c-0.5 -0.5 -5.6 14.7 -5.5 16.2 0 0.6 1.4 -2.8 3 -7.4 1.6 -4.7 2.7 -8.6 2.5 -8.8z m2.8 -6.3 c0.5 -1.7 0.4 -2 -0.2 -1 -0.5 0.8 -1.3 2.6 -1.6 4 -0.5 1.7 -0.4 2 0.2 1 0.5 -0.8 1.3 -2.6 1.6 -4z m4 -10 c0.3 -1.4 -0.3 -0.7 -1.3 1.5 -1.1 2.2 -2 4.5 -2 5 0 1.5 2.6 -3.7 3.3 -6.5z m571 1.6 c-0.3 -1.5 -0.8 -2.5 -1.1 -2.3 -0.2 0.3 -0.1 1.7 0.3 3.1 0.3 1.5 0.8 2.5 1.1 2.3 0.2 -0.3 0.1 -1.7 -0.3 -3.1z m-553 -35.1 c11.6 -18.1 29.2 -38 45.7 -51.7 5.5 -4.4 9.9 -8.3 9.9 -8.6 0 -0.6 -1.7 0.8 -11.7 9.1 -14.5 12.1 -31.2 30.7 -42.4 47.4 -5.6 8.3 -16.9 28.2 -16.9 29.8 0 0.5 2.3 -3.3 5.1 -8.5 2.9 -5.2 7.5 -13.1 10.3 -17.5z m544.5 8.6 c-0.6 -1.8 -1.3 -3 -1.5 -2.8 -0.2 0.2 0.1 1.8 0.7 3.6 0.6 1.8 1.3 3 1.5 2.8 0.2 -0.2 -0.1 -1.8 -0.7 -3.6z m-576.9 -0.2 c-0.8 -0.5 -5.5 -3.3 -10.5 -6.2 -11.1 -6.4 -24.6 -19.5 -29.2 -28.2 -1.8 -3.3 -3.3 -5.5 -3.3 -5 0 4.4 13.9 21.3 23.2 28.1 4.9 3.7 19.8 12.5 20.8 12.3 0.3 0 -0.2 -0.5 -1 -1z m14.2 -16.6 c1.1 -1.8 1.7 -3.3 1.4 -3.3 -0.6 0 -10.3 16.1 -11.2 18.6 -0.3 1 1.3 -1.2 3.6 -5.1 2.3 -3.8 5.1 -8.5 6.2 -10.2z m559.2 7.8 c-0.9 -2.3 -1.8 -4 -2 -3.8 -0.2 0.2 0.4 2.2 1.3 4.5 0.9 2.3 1.8 4 2 3.8 0.2 -0.2 -0.4 -2.2 -1.3 -4.5z m-567.4 -4.6 c1.4 -2.7 3.2 -5.7 4 -6.6 0.8 -0.8 2.4 -3.2 3.4 -5.3 1.1 -2 3 -4.8 4.3 -6.2 1.3 -1.4 2.3 -2.9 2.3 -3.4 0 -0.5 0.9 -1.4 2 -2 1.1 -0.6 2 -1.7 2 -2.6 0 -0.8 0.7 -1.7 1.5 -2 0.8 -0.4 1.5 -1.2 1.5 -2 0 -0.7 1 -2 2.1 -2.8 1.2 -0.8 2.7 -2.5 3.3 -3.8 0.6 -1.3 2 -2.7 3.1 -3.3 1.1 -0.5 5.3 -4.4 9.3 -8.6 5.1 -5.3 7.1 -8.1 6.6 -9.2 -0.3 -1 -1.3 -1.7 -2.1 -1.7 -0.8 0 -1.7 -0.9 -2 -2 -0.3 -1.1 -1.4 -2 -2.4 -2 -1.1 0 -2.2 -0.7 -2.5 -1.5 -0.4 -0.8 -1.3 -1.5 -2 -1.5 -0.8 0 -1.7 -0.7 -2 -1.5 -0.4 -0.8 -1.3 -1.5 -2 -1.5 -0.8 0 -1.7 -0.7 -2 -1.5 -0.4 -0.8 -1.3 -1.5 -2 -1.5 -0.8 0 -1.7 -0.7 -2 -1.5 -0.4 -0.8 -1.2 -1.5 -1.9 -1.5 -0.7 0 -1.5 -0.3 -1.7 -0.7 -0.5 -1.1 -5.1 -3.8 -14.8 -8.6 -10.7 -5.3 -17.4 -5.6 -25.8 -1.4 -3 1.5 -6 2.7 -6.8 2.7 -0.8 0 -1.4 0.5 -1.4 1.2 0 1.6 -6.1 7.8 -7.7 7.8 -0.7 0 -1.3 0.9 -1.3 2 0 1.1 -0.3 2 -0.7 2 -1.6 0 -8.5 16.1 -9.6 22.3 -0.9 5.5 -0.8 7.4 0.7 13.1 1 3.6 3.3 9.1 5.2 12.2 1.9 3.1 3.4 6 3.4 6.4 0 0.4 0.7 1 1.5 1.4 0.8 0.3 2 1.7 2.5 3.1 0.5 1.4 2.1 3 3.5 3.5 1.3 0.5 3 1.8 3.7 3 0.7 1.1 1.7 2 2.3 2 0.6 0 2.5 1.4 4.3 3 1.8 1.7 3.7 3 4.2 3 0.5 0 1.5 0.6 2.2 1.3 0.7 0.6 2.9 1.9 4.8 2.8 4.2 2 4.9 1.4 9 -6.6z m562.1 -7.1 c-1.6 -3.3 -3 -5.6 -3.1 -5.2 0 1.1 5.3 11.8 5.8 11.4 0.2 -0.2 -1 -3 -2.7 -6.2z m-548 -5.1 c6.5 -9.7 18.6 -24.1 28.5 -34 5.6 -5.7 9.9 -10.3 9.5 -10.3 -1.4 0 -20.6 20.4 -28.2 30 -7.9 9.9 -14.4 19 -13.5 19 0.3 0 1.9 -2.1 3.7 -4.7z m585.5 -9.2 c4.4 -3.2 9.9 -8.3 12.3 -11.2 4.1 -5.1 9.6 -14.7 8.9 -15.4 -0.2 -0.2 -1.8 2.5 -3.7 6 -4.1 7.9 -15.9 19.5 -25.9 25.5 -4 2.3 -7.2 4.4 -7.2 4.6 0 1.1 8.6 -4.1 15.6 -9.5z m-43.1 2.9 c-1.4 -2.7 -2.8 -5 -3 -5 -0.3 0 0.6 2.3 2 5 1.4 2.8 2.8 5 3 5 0.3 0 -0.6 -2.2 -2 -5z m23 0.1 c-2.1 -4.3 -2.9 -3.9 -0.8 0.4 0.9 1.9 1.8 3.3 2.1 3.1 0.2 -0.2 -0.4 -1.8 -1.3 -3.5z m8.5 -1.1 c0 -0.5 1.1 -1.2 2.4 -1.6 1.4 -0.3 2.7 -1.2 3 -2 0.3 -0.8 1.2 -1.4 2.1 -1.4 0.8 0 1.5 -0.4 1.5 -1 0 -0.5 1.5 -1.6 3.3 -2.3 4.8 -2.1 8 -6.5 14.7 -20.2 4.3 -8.8 4.8 -13.9 1.9 -22.4 -1.2 -3.9 -2.6 -7.1 -3.1 -7.1 -0.4 0 -0.8 -0.4 -0.8 -0.9 0 -2 -7.6 -8.3 -13.7 -11.3 -4.7 -2.3 -8.4 -3.3 -12.8 -3.6 -9.6 -0.6 -26.3 3.3 -41.3 9.8 l-5.3 2.3 3.8 4.1 c2.2 2.3 4.5 5.4 5.3 7 0.8 1.5 2.5 3.2 3.7 3.7 1.3 0.5 2.7 1.9 3.2 3.2 0.5 1.4 1.7 2.7 2.5 3 0.9 0.4 1.6 1.3 1.6 2.1 0 0.7 0.7 1.6 1.5 2 0.8 0.3 1.5 1.2 1.5 2.1 0 0.8 0.5 1.5 1 1.5 0.6 0 1 0.7 1 1.5 0 0.8 0.5 1.5 1 1.5 0.6 0 1 0.7 1 1.5 0 0.8 0.4 1.5 0.8 1.5 0.5 0 1.7 1.7 2.8 3.7 1 2.1 2.5 4.4 3.2 5.1 0.6 0.7 1.2 2.2 1.2 3.3 0 1.1 0.6 2.2 1.4 2.5 0.8 0.3 2.3 2.6 3.3 5 1 2.4 2.1 4.4 2.6 4.4 0.4 0 0.7 0.9 0.7 2 0 1.5 0.7 2 2.5 2 1.4 0 2.5 -0.4 2.5 -1z m-14.3 -9.4 c-9.5 -17.3 -21.4 -33.2 -33.8 -45.1 -6.3 -6.1 -6 -5.7 2.1 3 12.8 13.8 24.8 30.3 31.9 44.3 1.2 2.3 2.4 4.2 2.7 4.2 0.3 0 -1 -2.9 -2.9 -6.4z m-22.7 0.7 c-1.1 -2.1 -3 -4.9 -4.2 -6.3 l-2 -2.5 1.7 2.9 c1 1.6 2.6 4.4 3.7 6.3 2.7 4.6 3.4 4.2 0.8 -0.4z m-14.8 -21 c-4.4 -5.5 -21.7 -22.1 -28.7 -27.4 -7 -5.4 -18.6 -12.9 -24.4 -15.8 -7.2 -3.7 -4.4 -1.5 4.9 3.9 14.4 8.2 24.6 16.3 38 30 6.9 7.1 12.7 12.9 12.8 12.9 0.2 0.1 -1 -1.6 -2.6 -3.6z m-582.8 -15.1 c1.4 -3.1 1.9 -4.8 1.1 -3.8 -2.3 3 -5.5 12.3 -6 17.5 -0.4 4 -0.3 3.7 0.9 -1.7 0.8 -3.5 2.6 -8.9 4 -12z m669.5 8.9 c0.1 -3.5 -0.5 -2.2 -1.2 2.4 -0.5 2.8 -0.4 3.4 0.3 2 0.5 -1.1 0.9 -3.1 0.9 -4.4z m-516.9 -15.4 c5.8 -3.6 12.9 -7.7 15.8 -9.2 2.8 -1.6 5 -3 4.8 -3.3 -1.1 -1.1 -39.9 22.9 -42.8 26.6 -0.7 0.9 1.6 -0.5 5.2 -3.1 3.6 -2.6 11.2 -7.5 17 -11z m-54.4 11.4 c-0.7 -1.1 -22.7 -17.8 -27.6 -21 l-3.5 -2.2 2.9 2.3 c5.8 4.6 28.1 21.7 28.4 21.7 0.2 0.1 0.1 -0.3 -0.2 -0.8z m-90.6 -16.7 c2.3 -3 6.9 -7.5 10.2 -10 6.7 -4.9 7 -6 0.4 -1.4 -4.4 2.9 -12.9 11.8 -14.7 15.2 -1.8 3.3 -0.2 1.8 4.1 -3.8z m659.5 0.9 c-0.9 -1.5 -1.3 -1.9 -1 -0.8 0.4 1.1 1 2.9 1.3 4 0.3 1.1 0.7 1.4 0.9 0.8 0.3 -0.7 -0.3 -2.4 -1.2 -4z m-3.2 -6.4 c-3.4 -5.8 -15.9 -14.9 -20.5 -14.9 -0.7 0 1.1 1.1 4.1 2.5 6.8 3.2 12.4 7.6 15.1 12 2.7 4.3 3.8 4.6 1.3 0.4z m-68.7 -8.7 c-0.5 -0.4 -15.6 6.5 -15.6 7.2 0 0.2 3.6 -1.2 8 -3.2 4.3 -2 7.8 -3.8 7.6 -4z m-397.4 -3.3 c7 -2.9 12.6 -5.5 12.4 -5.7 -0.7 -0.7 -35.6 14.3 -35.6 15.3 0 0.2 2.4 -0.6 5.3 -1.9 2.8 -1.4 10.9 -4.8 17.9 -7.7z m-134.2 8.6 c0 -0.7 -11.7 -6.5 -13.2 -6.5 -0.7 0 1.9 1.5 5.7 3.4 8.1 4 7.5 3.7 7.5 3.1z m-29.1 -8.1 c1 -0.9 -4.5 -0.3 -5.9 0.6 -1.1 0.7 -0.5 0.8 2 0.4 1.9 -0.4 3.7 -0.8 3.9 -1z m488.1 -2.9 c0 -0.6 -7.6 -4.5 -8.7 -4.5 -0.4 0.1 1.2 1.2 3.7 2.5 5 2.7 5 2.7 5 2z m110.8 -2.2 c-1 -0.2 -2.8 -0.2 -4 0 -1.3 0.2 -0.5 0.4 1.7 0.4 2.2 0.1 3.2 -0.1 2.3 -0.4z m44.2 0.4 c0 -0.2 -1.9 -2.1 -4.2 -4.2 l-4.3 -4 4 4.3 c3.6 3.9 4.5 4.7 4.5 3.9z m-168 -4.7 c-1.9 -1.1 -3.9 -1.9 -4.5 -1.9 -0.5 0 0.6 0.8 2.5 1.9 1.9 1.1 4 1.9 4.5 1.9 0.6 0 -0.6 -0.8 -2.5 -1.9z m-282.5 -2.1 c2.8 -1 4.5 -1.8 3.9 -1.8 -1.4 -0.1 -13.4 4 -13.4 4.6 0 0.5 1.9 -0.1 9.5 -2.8z m271.5 -2.3 c0 -0.6 -16.9 -6.6 -18.3 -6.5 -0.7 0 2.9 1.5 7.8 3.4 9.3 3.4 10.5 3.8 10.5 3.1z m-27.5 -9.6 c-1.1 -0.5 -2.7 -0.9 -3.5 -0.9 -0.9 0 -0.8 0.4 0.5 0.9 1.1 0.5 2.7 0.9 3.5 0.9 0.9 0 0.8 -0.4 -0.5 -0.9z m-190.5 -2 c2 -0.6 2.1 -0.8 0.5 -0.8 -1.1 0 -3.1 0.4 -4.5 0.8 -2 0.6 -2.1 0.8 -0.5 0.8 1.1 0 3.1 -0.4 4.5 -0.8z m183.5 0 c-1.1 -0.5 -2.9 -0.8 -4 -0.8 -1.6 0 -1.5 0.2 0.5 0.8 3.4 1.1 6 1.1 3.5 0z m-8 -2 c-1.1 -0.5 -2.9 -0.8 -4 -0.8 -1.6 0 -1.5 0.2 0.5 0.8 3.4 1.1 6 1.1 3.5 0z m-119.7 -6.7 c-1 -0.2 -2.8 -0.2 -4 0 -1.3 0.2 -0.5 0.4 1.7 0.4 2.2 0.1 3.2 -0.1 2.3 -0.4z m82 0 c-1 -0.2 -2.6 -0.2 -3.5 0 -1 0.3 -0.2 0.5 1.7 0.5 1.9 0 2.7 -0.2 1.8 -0.5z m-69.5 -1 c-1.3 -0.2 -3.5 -0.2 -5 0 -1.6 0.2 -0.5 0.4 2.2 0.4 2.8 0 4 -0.2 2.8 -0.4z m59.5 0 c-1 -0.2 -2.8 -0.2 -4 0 -1.3 0.2 -0.5 0.4 1.7 0.4 2.2 0.1 3.2 -0.1 2.3 -0.4z m-20.6 -1 c-6.2 -0.2 -16.1 -0.2 -22 0 -5.9 0.1 -0.8 0.3 11.3 0.3 12.1 0 16.9 -0.2 10.7 -0.3z"/>
        <path d="M642 713.9 c-2.4 -2.4 -3.4 -4.3 -3.8 -7.5 -0.7 -6.3 0.5 -11.1 2.8 -11.7 1.1 -0.3 2 -1.2 2 -2.1 0 -2.2 3.5 -2.9 36.5 -7.6 16 -2.3 42.1 -6.3 58 -9 27.3 -4.6 45.5 -6.2 45.5 -4 0 0.4 0.9 1 2 1.3 1.2 0.3 2 1.4 2 2.6 0 1.2 0.5 2.1 1.1 2.1 0.8 0 1 2.3 0.7 7 -0.3 5.5 -0.8 7.4 -2.5 9 -1.2 1.1 -2.9 2 -3.7 2 -0.8 0 -1.6 0.4 -1.8 1 -0.7 2 -117 20 -129.4 20 -5.5 0 -6.4 -0.3 -9.4 -3.1z m23.8 -2 c5.1 -0.6 9 -1.4 8.8 -1.6 -0.6 -0.7 -18.7 1.8 -21.1 2.9 -1.7 0.7 -1.6 0.8 0.5 0.4 1.4 -0.2 6.7 -1 11.8 -1.7z m-18.3 -0.1 c-3.2 -1.7 -4.5 -3.9 -4.5 -7.9 0 -5.4 3 -8.5 9.3 -9.9 2.8 -0.6 17.8 -2.8 33.2 -5.1 15.4 -2.2 28.5 -4.2 29 -4.4 3 -1.5 -63 8.1 -66.8 9.7 -3.9 1.5 -5.7 4.5 -5.7 9.6 0 3.2 0.6 4.9 2.5 6.7 1.3 1.4 3 2.5 3.7 2.5 0.7 0 0.4 -0.6 -0.7 -1.2z m34.3 -2.5 c-1 -0.2 -2.8 -0.2 -4 0 -1.3 0.2 -0.5 0.4 1.7 0.4 2.2 0.1 3.2 -0.1 2.3 -0.4z m7 -1 c-1 -0.2 -2.6 -0.2 -3.5 0 -1 0.3 -0.2 0.5 1.7 0.5 1.9 0 2.7 -0.2 1.8 -0.5z m7 -1 c-1 -0.2 -2.6 -0.2 -3.5 0 -1 0.3 -0.2 0.5 1.7 0.5 1.9 0 2.7 -0.2 1.8 -0.5z m7 -1 c-1 -0.2 -2.6 -0.2 -3.5 0 -1 0.3 -0.2 0.5 1.7 0.5 1.9 0 2.7 -0.2 1.8 -0.5z m53.7 -8.3 c4.2 -1.1 0.1 -1.1 -5 -0.1 -3.4 0.7 -3.5 0.9 -1 0.9 1.7 0 4.4 -0.4 6 -0.8z m20.4 -3.6 c5.1 -1.1 8.1 -4.9 8.1 -10.4 0 -4.2 -0.4 -5.2 -3.1 -7.4 -2.3 -2 -4.1 -2.6 -7.2 -2.5 l-4.2 0.1 5 0.9 c6.2 1 8.5 3.5 8.5 9.4 0 5 -1.9 7 -8.2 9 -4.6 1.5 -4.1 1.9 1.1 0.9z m-32.5 -14.6 c13.7 -2.3 24.4 -4.4 23.8 -4.6 -1 -0.3 -47.5 7.4 -49.7 8.3 -2.7 1 3 0.2 25.9 -3.7z"/>
        <path d="M636.3 659.8 c-1.3 -0.6 -2.3 -1.7 -2.3 -2.4 0 -0.7 -0.5 -1.4 -1.2 -1.6 -0.7 -0.3 -1.4 -3.2 -1.6 -7.5 -0.4 -6.5 -0.2 -7.3 1.8 -9 1.3 -1 3.1 -2.6 4.1 -3.5 2.4 -2.3 60.2 -11.8 74.9 -12.4 11.4 -0.4 14 0 14 2.2 0 0.8 0.6 1.4 1.4 1.4 2 0 2.6 2.3 2.6 9.3 0 6.6 -0.5 8 -3.2 9 -1 0.3 -1.8 1.3 -1.8 2.1 0 1.7 -3.7 2.5 -24.5 5.6 -7.7 1.1 -21.9 3.4 -31.7 5 -18.2 3.1 -28.7 3.7 -32.5 1.8z m3.5 -4.4 c-1.6 -0.8 -3.1 -2.8 -3.7 -4.7 -0.7 -2.5 -0.9 -2.7 -1 -0.9 -0.1 2.5 4 7.2 6.1 7.2 0.7 -0.1 0.1 -0.7 -1.4 -1.6z m16.7 0.7 c3.4 -0.7 3.5 -0.9 1 -0.9 -1.6 0 -4.3 0.4 -6 0.8 -4.2 1.1 -0.1 1.1 5 0.1z m31 -5.1 c4.2 -1.1 0.1 -1.1 -5 -0.1 -3.4 0.7 -3.5 0.9 -1 0.9 1.7 0 4.4 -0.4 6 -0.8z m13 -1.9 c2.6 -0.6 3.1 -0.9 1.5 -0.9 -1.4 -0.1 -4.3 0.3 -6.5 0.7 -2.6 0.6 -3.1 0.9 -1.5 0.9 1.4 0.1 4.3 -0.3 6.5 -0.7z m-59.9 -9.9 c1.6 -0.7 5.4 -1.6 8.4 -2.1 3 -0.5 4.3 -0.9 2.8 -1 -1.5 0 -5 0.4 -7.7 1 -5.2 1.1 -9.1 4.5 -9.1 7.8 0.1 0.9 0.7 0.2 1.4 -1.5 0.8 -1.7 2.6 -3.6 4.2 -4.2z m82 5.3 c5.6 -3.9 5.3 -14 -0.6 -17 -4 -2.1 -5.5 -2 -30.5 1.9 -28.6 4.5 -35.7 5.7 -35.2 6.3 0.3 0.2 8.7 -1 18.8 -2.6 25.5 -4.2 38.8 -6.1 42 -6.1 1.5 0 4 1.1 5.6 2.4 2.2 1.9 2.8 3.2 2.8 6.6 0 3.5 -0.6 4.7 -3.3 7.1 -3.4 3 -3.1 3.9 0.4 1.4z"/>
        <path d="M751 642 c0 -0.5 -0.9 -1 -2.1 -1 -1.2 0 -2.3 -0.8 -2.6 -2 -0.3 -1.1 -0.9 -2 -1.4 -2 -0.5 0 -0.9 -3.1 -0.9 -7 0 -6.6 0.2 -7.1 3.6 -10.5 4.1 -4.1 3.3 -3.9 36.6 -8.9 12.8 -1.9 26.6 -3.5 30.6 -3.5 7 0.1 7.5 0.2 10.8 3.5 3.1 3.2 3.4 3.9 3.4 9.7 0 6.6 -0.5 8 -3.2 9 -1 0.3 -1.8 1.3 -1.8 2.1 0 1.8 -2.8 2.4 -35.4 7.6 -24.5 3.9 -37.6 5 -37.6 3z m1.3 -5 c-5.7 -3.5 -5.4 -13.3 0.5 -15.9 2.4 -1.2 33 -6.2 54.9 -9.1 7.2 -1 9.9 -1 12.1 -0.1 3.1 1.3 5.2 4.7 5.2 8.6 0 2.8 -4.5 8.5 -6.8 8.6 -1 0 -1.2 0.3 -0.5 0.5 3.8 1.6 8.9 -5.7 7.9 -11.4 -1.2 -7.7 -5.3 -9 -21.2 -6.8 -26.4 3.7 -49.6 7.6 -52.1 8.8 -3.7 1.8 -5.5 5.5 -4.9 10.1 0.5 4.1 3.9 8.7 6.5 8.7 0.9 0 0.2 -0.9 -1.6 -2z m36.2 -2 c5.5 -1 8.9 -1.8 7.5 -1.8 -1.4 -0.1 -7 0.7 -12.5 1.8 -5.5 1 -8.9 1.8 -7.5 1.8 1.4 0.1 7 -0.7 12.5 -1.8z"/>
        <path d="M629 600.1 c0 -0.6 -0.7 -1.1 -1.6 -1.1 -2.5 0 -5.2 -3.7 -5.9 -8.1 -0.8 -4.9 0.3 -11.9 1.9 -11.9 0.7 0 1.8 -1.1 2.6 -2.4 1.5 -2.9 1.8 -3 20.6 -5.6 23.4 -3.3 75 -11.4 174.3 -27.6 32.5 -5.3 43.1 -6.4 43.1 -4.5 0 0.5 0.8 1.2 1.8 1.5 4.6 1.5 6.2 4.4 6.2 11.1 0 5.5 -0.4 6.8 -2.2 8.3 -1.1 0.9 -3 2.5 -4 3.5 -2.4 2.3 -3.3 2.5 -82.8 15.2 -139.1 22.4 -154 24.5 -154 21.6z m3.3 -3.8 c-7.2 -1.4 -8.4 -15.1 -1.6 -17.8 0.9 -0.3 11.1 -1.9 22.7 -3.6 18.7 -2.7 25 -3.9 20.5 -3.9 -1.6 0 -25.6 3.4 -36.4 5.1 -8.6 1.4 -12.5 4.7 -12.5 10.4 0 5.9 3.4 10.5 7.5 10.3 1.7 -0.1 1.7 -0.1 -0.2 -0.5z m9.5 0 c-1 -0.2 -2.6 -0.2 -3.5 0 -1 0.3 -0.2 0.5 1.7 0.5 1.9 0 2.7 -0.2 1.8 -0.5z m21 -3 c-1 -0.2 -2.6 -0.2 -3.5 0 -1 0.3 -0.2 0.5 1.7 0.5 1.9 0 2.7 -0.2 1.8 -0.5z m11.7 -1.3 c2.9 -0.7 2.8 -0.8 -1 -0.8 -2.2 0 -5.1 0.4 -6.5 0.8 -2.3 0.7 -2.2 0.8 1 0.8 1.9 0 4.9 -0.4 6.5 -0.8z m14.3 -2.7 c-1 -0.2 -2.6 -0.2 -3.5 0 -1 0.3 -0.2 0.5 1.7 0.5 1.9 0 2.7 -0.2 1.8 -0.5z m22.7 -3.2 c3.4 -0.7 3.5 -0.9 1 -0.9 -1.6 0 -4.3 0.4 -6 0.8 -4.2 1.1 -0.1 1.1 5 0.1z m21.5 -3.5 c3.6 -0.8 5.6 -1.4 4.5 -1.4 -1.1 -0.1 -6.5 0.8 -12 1.8 -5.7 1.1 -7.7 1.7 -4.5 1.4 3 -0.3 8.4 -1.1 12 -1.8z m28.5 -4.6 c4.2 -1.1 0.1 -1.1 -5 -0.1 -3.4 0.7 -3.5 0.9 -1 0.9 1.7 0 4.4 -0.4 6 -0.8z m31 -5 c4.2 -1.1 0.1 -1.1 -5 -0.1 -3.4 0.7 -3.5 0.9 -1 0.9 1.7 0 4.4 -0.4 6 -0.8z m-108 -2.9 c3.4 -0.7 3.5 -0.9 1 -0.9 -1.6 0 -4.3 0.4 -6 0.8 -4.2 1.1 -0.1 1.1 5 0.1z m136 -1.5 c3.9 -0.8 5.9 -1.4 4.5 -1.4 -1.4 -0.1 -5.6 0.5 -9.5 1.2 -3.8 0.8 -5.9 1.4 -4.5 1.4 1.4 0.1 5.7 -0.5 9.5 -1.2z m-118 -1.3 c6.1 -0.9 10.3 -1.8 9.5 -2 -0.8 -0.2 -6.4 0.5 -12.5 1.6 -6 1 -10.3 1.9 -9.5 2 0.8 0.1 6.5 -0.7 12.5 -1.6z m142.5 -2.7 c3.6 -0.8 5.6 -1.4 4.5 -1.4 -1.1 -0.1 -5.1 0.5 -9 1.2 -3.8 0.8 -5.9 1.4 -4.5 1.4 1.4 0.1 5.4 -0.5 9 -1.2z m-102.3 -3.6 c26.4 -4.3 42.4 -7.2 35.8 -6.6 -4.4 0.4 -44.8 6.9 -56.5 9 -15.9 2.9 -3 1.4 20.7 -2.4z m123.2 -2.6 c1.2 -1.5 2.1 -3.4 2 -4.3 0 -0.9 -0.4 -0.6 -1 0.9 -0.5 1.4 -2 3.3 -3.2 4.2 -1.2 1 -1.7 1.8 -1 1.8 0.6 0 2.1 -1.2 3.2 -2.6z m-45.7 -9.9 c18.8 -3 35.9 -5.5 38.1 -5.5 5.2 0 7.3 1.3 8.7 5.6 0.7 1.9 1.4 3.3 1.7 3.1 0.7 -0.8 -2.3 -7.1 -4.1 -8.6 -2.4 -2 -9 -1.8 -22.6 0.7 -6.3 1.2 -21.8 3.7 -34.5 5.7 -20.2 3.2 -26.6 4.5 -22.7 4.5 0.6 0 16.6 -2.5 35.4 -5.5z"/>
        <path d="M970.3 642 c0 -4.7 0.2 -6.6 0.4 -4.2 0.2 2.3 0.2 6.1 0 8.5 -0.2 2.3 -0.4 0.4 -0.4 -4.3z"/>
        <path d="M453.5 549.4 c-3.7 -0.9 -9.5 -3.7 -9.5 -4.6 0 -0.4 -0.6 -0.8 -1.3 -0.8 -1.5 0 -5.7 -4.1 -5.7 -5.6 0 -0.5 -0.9 -1.7 -2 -2.7 -1.1 -0.9 -2 -2.5 -2 -3.6 0 -1.1 -0.5 -2.1 -1 -2.3 -1.6 -0.5 -5.6 -12.2 -7 -20.5 l-1.3 -7.3 -3.3 0 c-7.2 0 -23.4 -4.9 -23.4 -7.1 0 -0.5 -0.7 -0.9 -1.5 -0.9 -0.9 0 -2 -1.2 -2.5 -2.6 -0.6 -1.4 -1.9 -2.8 -3 -3.1 -1.1 -0.3 -2 -1.2 -2 -1.9 0 -0.8 -0.6 -1.7 -1.4 -2 -2.3 -0.9 -5.6 -9.8 -6.8 -18.4 -0.9 -6 -0.9 -9.7 0 -15.5 1.3 -8.5 6.5 -20.5 8.8 -20.5 0.7 0 1.4 -0.9 1.4 -2 0 -1.1 0.5 -2 1.1 -2 1.5 0 3.8 -3.1 3.8 -5 0 -0.8 -0.4 -0.5 -0.9 0.8 -0.5 1.2 -1.6 2.2 -2.4 2.2 -0.9 0 -2 0.9 -2.6 2 -0.6 1.1 -1.7 2 -2.5 2 -0.8 0 -1.5 0.5 -1.5 1 0 0.6 -0.7 1 -1.5 1 -0.8 0 -1.5 0.5 -1.5 1 0 0.6 -0.5 1 -1.1 1 -0.6 0 -1.7 0.7 -2.5 1.5 -0.9 0.8 -2.4 1.5 -3.4 1.5 -1.1 0 -2.3 0.6 -2.7 1.4 -1.1 1.8 -4.7 3.6 -7.2 3.6 -1.2 0 -2.1 0.4 -2.1 0.9 0 2.4 -29.2 11.1 -44.3 13.1 -12.2 1.7 -41.1 0.6 -51.7 -1.8 -14 -3.3 -37 -12.1 -37 -14.2 0 -0.4 -1.1 -1.1 -2.5 -1.4 -1.4 -0.4 -2.5 -1.1 -2.5 -1.6 0 -0.6 -0.7 -1 -1.5 -1 -0.8 0 -1.5 -0.4 -1.5 -1 0 -0.5 -0.7 -1 -1.5 -1 -0.8 0 -1.9 -0.9 -2.5 -2 -0.6 -1.1 -1.7 -2 -2.4 -2 -0.8 0 -2.1 -1.1 -3 -2.5 -0.9 -1.4 -2.2 -2.5 -2.9 -2.5 -1.6 0 -7.7 -6.2 -7.7 -7.8 0 -0.6 -1.1 -1.9 -2.5 -2.8 -1.4 -0.9 -2.5 -2.2 -2.5 -2.9 0 -0.7 -0.7 -1.5 -1.5 -1.9 -0.8 -0.3 -1.5 -1.2 -1.5 -2.1 0 -0.8 -0.4 -1.5 -1 -1.5 -0.5 0 -1 -0.7 -1 -1.5 0 -0.8 -0.4 -1.5 -1 -1.5 -0.5 0 -1 -0.7 -1 -1.5 0 -0.8 -0.4 -1.5 -0.8 -1.5 -1.3 0 -9.6 -18.2 -12 -26.1 -7.4 -24.2 -6.6 -55.9 2 -81.9 3 -9.2 8.6 -21.3 10.4 -22.3 0.7 -0.4 1.4 -1.7 1.4 -2.7 0 -1.1 0.5 -2 1 -2 0.6 0 1 -0.7 1 -1.5 0 -0.8 0.5 -1.5 1 -1.5 0.6 0 1 -0.7 1 -1.5 0 -0.8 0.5 -1.5 1 -1.5 0.6 0 1 -0.7 1 -1.5 0 -0.9 0.7 -1.8 1.5 -2.1 0.8 -0.4 1.5 -1.2 1.5 -1.9 0 -0.7 1.1 -2 2.5 -2.9 1.4 -0.9 2.5 -2.2 2.5 -2.9 0 -1.6 4.2 -5.7 5.8 -5.7 0.7 0 1.2 -0.5 1.2 -1.2 0 -1.6 5 -6.8 6.6 -6.8 0.6 0 1.9 -1.1 2.8 -2.5 0.9 -1.4 2.3 -2.5 3 -2.5 0.8 0 1.6 -0.7 2 -1.5 0.3 -0.8 1.2 -1.5 2.1 -1.5 0.8 0 1.5 -0.4 1.5 -1 0 -0.5 0.7 -1 1.5 -1 0.8 0 1.5 -0.4 1.5 -1 0 -0.5 0.7 -1 1.5 -1 0.8 0 1.5 -0.4 1.5 -0.9 0 -0.5 1 -1.3 2.3 -1.7 1.2 -0.4 2.4 -1 2.7 -1.4 0.9 -1.4 10.9 -6 13 -6 1.1 0 2 -0.4 2 -0.9 0 -1.2 10 -4.9 22.5 -8.1 26.4 -6.8 57.2 -6.2 81 1.5 9 3 23.5 9.5 23.5 10.5 0 0.4 1.1 1.1 2.5 1.4 1.4 0.4 2.5 1.1 2.5 1.6 0 0.6 0.7 1 1.5 1 0.9 0 1.8 0.7 2.1 1.5 0.4 0.8 1.2 1.5 1.9 1.5 0.7 0 2 1.1 2.9 2.5 0.9 1.4 2.2 2.5 2.9 2.5 1.6 0 7.7 6.2 7.7 7.8 0 0.6 0.9 1.6 2 2.2 1.1 0.6 2 1.7 2 2.6 0 0.8 0.7 1.7 1.5 2 0.8 0.4 1.5 1.5 1.5 2.5 0 1 0.6 1.9 1.4 1.9 0.8 0 1.8 1 2.2 2.2 0.3 1.2 1.3 2.8 2 3.6 0.8 0.7 1.4 2.2 1.4 3.3 0 1 0.9 2.8 2.1 4 2.5 2.5 7.4 14.5 10 24.7 6.8 26.8 6 61.1 -2.1 85.2 -2.7 8.1 -10 24 -11 24 -0.4 0 -1.1 1.1 -1.4 2.5 -0.4 1.4 -1.1 2.5 -1.6 2.5 -0.6 0 -1 0.7 -1 1.5 0 0.8 -0.4 1.5 -1 1.5 -0.5 0 -1 0.7 -1 1.5 0 0.8 -0.9 1.9 -2 2.5 -1.1 0.6 -2 1.7 -2 2.6 0 0.8 -0.8 1.8 -1.7 2.1 -1.9 0.7 -5.2 4.2 -5.3 5.5 0 0.4 0.7 0.5 1.5 0.2 0.8 -0.4 1.5 -1.3 1.5 -2.1 0 -0.8 1.3 -1.9 2.9 -2.4 1.6 -0.6 3.1 -1.9 3.4 -3 0.3 -1.1 1.4 -1.9 2.6 -1.9 1.2 0 2.1 -0.6 2.1 -1.5 0 -0.8 0.9 -1.5 2 -1.5 1.1 0 2 -0.7 2 -1.5 0 -0.8 0.7 -1.5 1.5 -1.5 0.8 0 1.5 -0.7 1.5 -1.5 0 -0.8 0.5 -1.5 1 -1.5 0.6 0 1 -0.9 1 -2 0 -1.1 0.5 -2 1 -2 0.6 0 1 -0.7 1 -1.5 0 -0.8 0.4 -1.5 1 -1.5 1.2 0 5.5 -4.4 6.3 -6.4 0.4 -0.9 1.3 -1.6 2.2 -1.6 0.8 0 1.5 -0.4 1.5 -1 0 -0.5 0.9 -1 2 -1 1 0 2.3 -0.7 2.8 -1.6 1.4 -2.5 16.9 -7.2 27.7 -8.5 9.1 -1 17.6 -0.8 27.7 0.8 l3.8 0.6 -3.4 -7.4 c-7.6 -16.4 -10.6 -29.5 -11.3 -49.4 -0.6 -16.2 0.5 -27.7 3.8 -41 2.5 -9.7 7.7 -23.5 8.9 -23.5 0.5 0 1.4 -1.8 2 -4 0.6 -2.1 1.6 -4.5 2.3 -5.2 0.7 -0.7 1.8 -2.5 2.4 -4.1 0.7 -1.5 1.7 -2.7 2.3 -2.7 0.5 0 1 -0.7 1 -1.5 0 -0.8 0.5 -1.5 1 -1.5 0.6 0 1 -0.7 1 -1.5 0 -0.9 0.7 -1.8 1.6 -2.2 0.8 -0.3 2 -1.6 2.5 -3 0.5 -1.3 1.9 -2.7 3.1 -3.2 2.6 -1 6.6 -5 8.2 -8.3 0.6 -1.3 2.4 -2.9 3.9 -3.6 1.5 -0.7 2.7 -1.7 2.7 -2.3 0 -0.5 0.7 -0.9 1.5 -0.9 0.9 0 1.8 -0.7 2.1 -1.5 0.4 -0.8 1.2 -1.5 2 -1.5 0.8 0 1.4 -0.4 1.4 -1 0 -0.5 0.5 -1 1.1 -1 0.6 0 1.7 -0.7 2.5 -1.5 0.9 -0.8 2.4 -1.5 3.4 -1.5 1.1 0 2.3 -0.7 2.7 -1.4 2.1 -3.9 25.8 -12.3 42.3 -15.2 11.3 -1.9 35.8 -1.4 45.4 1 8.8 2.2 21.6 6.8 21.6 7.8 0 0.4 0.9 0.8 1.9 0.8 1 0 2.1 0.7 2.5 1.5 0.3 0.8 1.4 1.5 2.5 1.5 1.1 0 2.6 0.7 3.5 1.5 0.8 0.8 1.9 1.5 2.5 1.5 0.6 0 1.1 0.5 1.1 1 0 0.6 0.7 1 1.5 1 0.8 0 1.5 0.5 1.5 1 0 0.6 1.1 1.5 2.5 2 1.4 0.5 2.5 1.6 2.5 2.3 0 0.7 1.7 2.2 3.7 3.3 2.2 1.1 4.6 3.5 5.7 5.7 1.1 2 2.6 3.7 3.4 3.7 0.7 0 1.6 0.9 1.9 1.9 0.3 1.1 1.1 2.2 1.9 2.5 0.8 0.3 1.4 1.2 1.4 2.1 0 0.8 0.5 1.5 1 1.5 0.6 0 1 0.7 1 1.5 0 0.8 0.5 1.5 1 1.5 0.6 0 1 0.9 1 2 0 1 0.7 2.3 1.5 2.7 1.9 1.1 8.6 15.8 11.8 25.8 4.4 14.1 5.6 25 5.3 47 -0.3 21.2 -1.4 29 -6.2 43.5 -3 8.8 -10.4 25 -11.4 25 -0.4 0 -1.1 1.1 -1.4 2.5 -0.4 1.4 -1.1 2.5 -1.6 2.5 -0.6 0 -1 0.7 -1 1.5 0 0.8 -0.7 1.5 -1.5 1.5 -0.8 0 -1.5 0.9 -1.5 1.9 0 1 -0.7 2.1 -1.5 2.5 -0.8 0.3 -2 1.7 -2.5 3.1 -0.5 1.4 -1.4 2.5 -2 2.5 -1.3 0 -9 7.7 -9 9.1 0 0.5 -1.3 1.5 -3 2 -1.6 0.6 -3 1.7 -3 2.5 0 0.8 -0.9 1.4 -2 1.4 -1.1 0 -2 0.6 -2 1.3 0 0.8 -1.7 2.2 -3.7 3.3 -2.1 1 -4 2.2 -4.3 2.5 -0.9 1.1 -9.2 5.1 -15.9 7.6 -21.4 8.1 -52 9.4 -75 3.4 -6.3 -1.6 -7.2 -1.7 -6.7 -0.4 2.1 5.3 2.8 11.5 2.4 21 -0.3 8.5 -0.9 11.9 -2.7 16.1 -1.3 2.8 -2.7 5.2 -3.2 5.2 -0.5 0 -0.9 0.7 -0.9 1.5 0 0.9 -1.1 2 -2.4 2.4 -1.3 0.5 -2.6 1.9 -2.9 3 -0.3 1.2 -1.2 2.1 -2.1 2.1 -0.9 0 -1.6 0.4 -1.6 0.9 0 0.5 -1.8 1.6 -4 2.5 -2.7 1.1 -4 2.2 -4.1 3.6 -0.1 1.1 -0.3 7.7 -0.4 14.8 -0.2 12.9 -2.1 21.9 -5.1 24.9 -0.8 0.8 -1.4 2.3 -1.4 3.4 0 1 -0.4 1.9 -1 1.9 -0.5 0 -1 0.6 -1 1.3 0 1.6 -4.2 5.7 -5.8 5.7 -0.7 0 -1.2 0.5 -1.2 1 0 0.6 -0.7 1 -1.5 1 -0.8 0 -1.5 0.4 -1.5 0.9 0 3.1 -20.4 6.1 -29.9 4.3 -6 -1.1 -8.1 -0.7 -8.1 1.4 0 0.8 -0.7 1.4 -1.5 1.4 -0.8 0 -1.5 0.4 -1.5 0.9 0 2.3 -11.6 5.4 -21.5 5.7 -5.5 0.1 -10.9 0.1 -12 -0.2z m26.4 -6.5 c5 -2.2 11.1 -6.5 11.1 -7.9 0 -0.5 -1.2 0.2 -2.7 1.7 -3.8 3.4 -9.2 6.1 -16.1 7.8 -5.2 1.4 -5.3 1.4 -1.2 1 2.4 -0.3 6.4 -1.5 8.9 -2.6z m-34.8 -3.6 c-2.4 -2 -5.6 -5.7 -7.2 -8.2 -1.6 -2.5 -2.9 -4.3 -2.9 -3.8 0 2.6 11.3 15.7 13.7 15.7 0.4 0 -1.3 -1.6 -3.6 -3.7z m66.7 -3 c-2.1 -0.2 -5.7 -0.2 -8 0 -2.4 0.2 -0.7 0.4 3.7 0.4 4.4 0 6.3 -0.2 4.3 -0.4z m14.3 -4.2 c2.4 -1.5 5.7 -4.4 7.4 -6.2 2.9 -3.4 2.9 -3.3 -1 0.3 -2.2 2 -6 4.8 -8.5 6.2 -2.5 1.4 -4 2.6 -3.4 2.6 0.5 0 3 -1.3 5.5 -2.9z m-67.1 -1.8 c-2.7 -1 -8.1 -6.7 -10.2 -10.7 -1.1 -2.2 -3.1 -8 -4.4 -13 -1.2 -5 -2.3 -8.2 -2.4 -7.1 0 3.1 3.8 16.2 6.2 20.9 2.5 4.9 8.3 10.6 10.6 10.5 1.4 0 1.4 -0.2 0.2 -0.6z m19.7 -3.7 c3.4 -3.7 5.4 -9.1 5.2 -14.6 -0.1 -2.8 -0.3 -2.5 -0.9 1.7 -1.2 8 -3.8 12.4 -9 15.2 -3.7 1.9 -4 2.2 -1.5 1.7 1.7 -0.4 4.4 -2.2 6.2 -4z m-4.5 -2.8 c4.8 -5.4 6.5 -14.3 5.3 -28.2 l-0.7 -8.5 -5.9 2.9 c-3.2 1.7 -6.8 3 -7.9 3 -1.1 0 -2 0.4 -2 0.9 0 0.5 -3.4 2 -7.6 3.3 -4.2 1.2 -7.8 2.8 -8.1 3.4 -0.4 1 1.8 8 5.9 18.5 2.6 7 4.5 8 13.6 7.4 4.1 -0.3 5.9 -0.9 7.4 -2.7z m-42.3 -6.8 c-1.6 -4.7 -2.6 -6.9 -2.3 -5 0.7 3.8 4.4 14.3 4.9 13.8 0.2 -0.2 -1 -4.1 -2.6 -8.8z m80.4 5.1 c8.3 -2 14.1 -8.6 15.1 -17.2 0.3 -2.4 0.3 -3.5 0 -2.4 -2.1 8.1 -3.9 11.7 -6.9 14.4 -3.1 2.7 -4.8 3.3 -16 5.5 -1.2 0.2 -0.8 0.4 1 0.5 1.7 0 4.7 -0.3 6.8 -0.8z m-12 -1.3 c-2.1 -1 -2.1 -1.5 -1.7 -11.7 0.3 -5.8 0.2 -14 -0.3 -18.1 -0.7 -6 -0.8 -3.8 -0.7 10.9 0.1 18.4 0.5 20.2 3.9 20 0.6 0 0 -0.5 -1.2 -1.1z m13.9 -4.9 l5.4 -2 2.2 -7.2 c1.2 -4 2.2 -8.4 2.2 -9.9 0 -1.6 0.5 -2.8 1 -2.8 0.6 0 1 -2.8 1 -6.4 0 -7.1 -0.5 -7.6 -8.2 -7.6 -2.1 0 -3.8 -0.4 -3.8 -1 0 -1.1 -11.9 -1.4 -12.1 -0.2 -0.5 3.6 -0.7 28 -0.2 33 l0.5 6.2 3.3 0 c1.8 0 5.7 -0.9 8.7 -2.1z m27.6 -8.4 c0 -1.6 -0.2 -1.5 -0.8 0.5 -1.1 3.4 -1.1 6 0 3.5 0.5 -1.1 0.8 -2.9 0.8 -4z m0.9 -7.2 c-0.3 -1 -0.5 -0.2 -0.5 1.7 0 1.9 0.2 2.7 0.5 1.8 0.2 -1 0.2 -2.6 0 -3.5z m-14.1 -23 c-0.3 -0.7 -1.6 -1.2 -2.8 -1.2 l-2.3 0.2 2.3 0.4 c2.1 0.4 2.2 0.9 2.4 12.1 l0.2 11.7 0.3 -10.9 c0.2 -6.1 0.1 -11.6 -0.1 -12.3z m-107.3 20 c-1.3 -0.2 -3.3 -0.2 -4.5 0 -1.3 0.2 -0.3 0.4 2.2 0.4 2.5 0 3.5 -0.2 2.3 -0.4z m61.8 -10.8 l-1.1 -4 0.5 4 c0.3 2.2 0.6 5.6 0.7 7.5 l0.1 3.5 0.4 -3.5 c0.2 -1.9 -0.1 -5.3 -0.6 -7.5z m-29 6.6 c7.6 -2.5 27.5 -11.9 25.6 -12 -0.4 -0.1 -4.4 1.7 -8.8 4 -4.4 2.2 -12.6 5.5 -18.2 7.4 -5.6 1.9 -9.5 3.5 -8.6 3.5 0.8 0 5.3 -1.3 10 -2.9z m-51.6 -0.4 c-4.8 -3 -12.3 -11.1 -14.5 -15.7 -1.3 -2.7 -2.5 -4.8 -2.7 -4.6 -0.6 0.6 3.6 8.6 6.4 12.3 2.2 2.9 10.8 9.4 12.2 9.2 0.3 0 -0.3 -0.6 -1.4 -1.2z m141.2 -9.4 c-0.2 -2.1 -0.4 -0.6 -0.4 3.2 0 3.9 0.2 5.5 0.4 3.8 0.2 -1.8 0.2 -5 0 -7z m-47 -5 c-0.3 -1 -0.5 -0.2 -0.5 1.7 0 1.9 0.2 2.7 0.5 1.8 0.2 -1 0.2 -2.6 0 -3.5z m-67.9 3 c-2.1 -0.2 -5.7 -0.2 -8 0 -2.4 0.2 -0.7 0.4 3.7 0.4 4.4 0 6.3 -0.2 4.3 -0.4z m-17.4 -2.7 c-5.2 -2.4 -9.3 -6.7 -11.3 -12.1 l-1.1 -3 0.6 3 c1 5.6 10.4 14.5 15.4 14.5 0.8 0 -0.8 -1.1 -3.6 -2.4z m38.4 -1.3 c2.3 -0.9 4.1 -1.7 3.9 -1.9 -0.2 -0.2 -3.4 0.8 -7.2 2.2 -3.9 1.3 -5.6 2.2 -4 1.9 1.7 -0.3 4.9 -1.3 7.3 -2.2z m-21.8 0.9 c0 -0.4 3 -1.3 6.6 -2 3.7 -0.7 10.1 -2.6 14.3 -4.3 4.2 -1.7 9 -3.6 10.6 -4.2 1.7 -0.7 3.6 -1.7 4.2 -2.4 2.1 -1.9 16.7 -7.2 24.5 -8.8 9.2 -2 42.6 -1.4 43.9 0.7 0.7 1 0.9 1 0.9 0.1 0 -0.7 0.8 -1.3 1.8 -1.3 0.9 0 3.4 -0.6 5.6 -1.4 3.4 -1.2 4.1 -2 5.7 -6.7 1.1 -2.9 1.9 -6.2 1.9 -7.2 0 -1.9 -4.8 -13.7 -6 -14.7 -0.3 -0.3 -3.8 -4 -7.8 -8.2 l-7.2 -7.7 -1.6 3.9 c-0.9 2.2 -2 4 -2.5 4 -0.5 0 -0.9 0.7 -0.9 1.5 0 0.8 -0.4 1.5 -0.9 1.5 -1.2 0 -6.7 5.5 -7.4 7.5 -0.4 0.8 -1.3 1.5 -2.2 1.5 -0.8 0 -1.5 0.5 -1.5 1 0 0.6 -0.9 1 -2 1 -1.1 0 -2.3 0.7 -2.6 1.5 -0.3 0.8 -4.3 2.7 -8.8 4.1 -6.9 2.3 -10.3 2.7 -22.6 3 -8.5 0.3 -16.6 -0.1 -19.5 -0.7 -6 -1.3 -16.5 -5.8 -16.5 -7 0 -0.5 -0.6 -0.9 -1.4 -0.9 -0.7 0 -2.6 -1.6 -4.1 -3.6 -2 -2.6 -3 -3.3 -3.8 -2.5 -0.6 0.6 -1.9 1.1 -2.9 1.1 -1 0 -1.8 0.7 -1.8 1.5 0 0.9 -1 1.9 -2.3 2.4 -3.8 1.5 -8.9 6.3 -10.3 9.8 -0.8 1.8 -1.9 3.3 -2.4 3.3 -0.6 0 -1 0.6 -1 1.4 0 0.8 -0.6 1.6 -1.4 1.9 -1.3 0.5 -1.9 2.4 -3.2 10.4 -1.3 7.4 5.9 17.5 13.5 18.8 2.2 0.4 4.1 1.1 4.1 1.6 0 0.5 1.6 0.9 3.5 0.9 1.9 0 3.5 -0.3 3.5 -0.8z m87.8 -2.9 c-3.2 -0.2 -8.6 -0.2 -12 0 -3.5 0.2 -0.9 0.3 5.7 0.3 6.6 0 9.4 -0.1 6.3 -0.3z m-47.7 -6.3 c6.8 -3.3 12 -6 11.4 -6 -1.1 0 -25.3 11.8 -24.4 11.9 0.3 0.1 6.2 -2.6 13 -5.9z m81.9 4 c4.3 -2.2 10.2 -7.7 12.1 -11.2 0.7 -1.3 -1 0.1 -3.6 3 -2.6 2.9 -6.9 6.4 -9.4 7.7 -2.5 1.3 -4.2 2.4 -3.8 2.5 0.4 0 2.5 -0.9 4.7 -2z m-166.3 -18.2 c-0.2 -2.4 -0.4 -0.7 -0.4 3.7 0 4.4 0.2 6.3 0.4 4.3 0.2 -2.1 0.2 -5.7 0 -8z m19.4 -8.8 c2.9 -5.5 13.1 -16.3 21.9 -23.4 1.9 -1.5 2.7 -2.4 1.8 -1.9 -3.3 1.6 -14.9 11.8 -18.8 16.5 -6 7.1 -9 13.6 -9.5 20.4 l-0.4 5.9 0.9 -5.8 c0.5 -3.2 2.3 -8.5 4.1 -11.7z m132.7 14.3 c-1.5 -0.2 -4.2 -0.2 -6 0 -1.8 0.2 -0.6 0.4 2.7 0.4 3.3 0 4.8 -0.2 3.3 -0.4z m-27 -2 c-1.6 -0.2 -4 -0.2 -5.5 0 -1.6 0.2 -0.3 0.4 2.7 0.4 3 0 4.3 -0.2 2.8 -0.4z m36.6 -0.8 c2.2 -1.7 5.6 -6.5 5.6 -8 0 -0.5 -0.9 0.4 -1.9 2.1 -1 1.7 -3.1 4 -4.6 5.2 -3 2.4 -2.2 3 0.9 0.7z m-245.1 -6.2 c-1.3 -0.2 -3.3 -0.2 -4.5 0 -1.3 0.2 -0.3 0.4 2.2 0.4 2.5 0 3.5 -0.2 2.3 -0.4z m-12.5 -1 c-1 -0.2 -2.8 -0.2 -4 0 -1.3 0.2 -0.5 0.4 1.7 0.4 2.2 0.1 3.2 -0.1 2.3 -0.4z m26 0 c-1 -0.2 -2.8 -0.2 -4 0 -1.3 0.2 -0.5 0.4 1.7 0.4 2.2 0.1 3.2 -0.1 2.3 -0.4z m-51.3 -4.3 c-1.1 -0.5 -2.7 -0.9 -3.5 -0.9 -0.9 0 -0.8 0.4 0.5 0.9 1.1 0.5 2.7 0.9 3.5 0.9 0.9 0 0.8 -0.4 -0.5 -0.9z m80.5 -1.5 c1.9 -0.7 2.8 -1.4 2 -1.4 -0.8 0 -2.8 0.6 -4.5 1.4 -3.9 1.7 -2.1 1.8 2.5 0z m50.4 -12.9 c5.2 -7.2 11.6 -13.4 24.8 -23.9 6.2 -4.9 10.3 -9 11.4 -11.3 2.4 -5 10.3 -12.5 17.1 -16.2 3.2 -1.7 5.4 -3.2 4.8 -3.2 -0.5 0 -3.4 1.4 -6.4 3.1 -6.5 3.8 -14.2 11.2 -16.2 15.7 -0.9 2.1 -5.4 6.5 -12.4 12.1 -17.3 13.9 -28.7 27.2 -30.9 36.1 -0.3 1.4 0.3 0.5 1.4 -1.9 1.1 -2.4 4 -7.2 6.4 -10.5z m174.3 8.7 c-0.3 -1 -0.5 -0.2 -0.5 1.7 0 1.9 0.2 2.7 0.5 1.8 0.2 -1 0.2 -2.6 0 -3.5z m-327.2 -2.7 c-17.6 -8.6 -30.1 -18.7 -40.7 -33.1 -3.3 -4.3 -7.1 -10.1 -8.4 -12.7 -1.3 -2.6 -2.7 -4.8 -2.9 -4.8 -1.2 0 4.8 10.2 10.3 17.5 10.7 14.5 24 25.4 40.7 33.6 5.5 2.7 10.4 4.9 11 4.9 0.5 0 -3.9 -2.5 -10 -5.4z m123.4 -1.2 c20.8 -9.6 42.6 -29.4 52.5 -47.9 3.1 -5.7 2.2 -4.5 -4.9 6.3 -10 15.6 -30.2 32.7 -47.6 40.5 -4.1 1.9 -8.5 3.9 -9.9 4.5 l-2.5 1.2 2.5 -0.6 c1.4 -0.4 5.8 -2.2 9.9 -4z m110.9 0.9 c-1.5 -0.2 -4.2 -0.2 -6 0 -1.8 0.2 -0.6 0.4 2.7 0.4 3.3 0 4.8 -0.2 3.3 -0.4z m-26.6 -4.8 c-2.9 -1.3 -6.7 -3.4 -8.5 -4.7 -2.6 -1.8 -2.9 -1.9 -1.7 -0.4 1.5 1.9 12.6 7.6 14.5 7.5 0.6 0 -1.4 -1.1 -4.3 -2.4z m-154.2 -0.5 c0 -0.5 -1.7 -1 -3.9 -1 -2.1 0 -6 -0.2 -8.7 -0.5 -7.3 -0.8 -4 0.3 4.1 1.4 3.9 0.4 7.3 0.9 7.8 1 0.4 0 0.7 -0.3 0.7 -0.9z m18.3 -0.7 c-1.3 -0.2 -3.5 -0.2 -5 0 -1.6 0.2 -0.5 0.4 2.2 0.4 2.8 0 4 -0.2 2.8 -0.4z m194.5 -3.3 c9.2 -6.2 14.9 -13.6 16.5 -21.5 0.6 -2.9 0.6 -2.9 -0.4 -0.5 -0.6 1.4 -1.9 4.3 -2.8 6.4 -2 5 -9.4 12.4 -16.3 16.4 -2.9 1.8 -4.8 3.2 -4.2 3.2 0.7 0 3.9 -1.8 7.2 -4z m-179.7 1.4 c3.9 -0.9 6.9 -1.8 6.7 -2 -0.2 -0.2 -4.4 0.5 -9.3 1.6 -5 1 -8 1.9 -6.7 1.9 1.3 0.1 5.5 -0.6 9.3 -1.5z m-58.6 -1.8 c-17.4 -5.1 -30.4 -11.9 -42 -22.1 -10.9 -9.5 -21.5 -25.7 -26 -39.3 -0.9 -2.9 -1.9 -5.1 -2.1 -4.9 -0.8 0.8 3.7 12.2 7.7 19.6 9.8 18.3 24.5 31.9 44.3 41.2 8.2 3.8 20.4 7.8 24.1 7.8 1.1 0 -1.6 -1.1 -6 -2.3z m43.3 -0.7 c10.8 -1.2 24.5 -4.7 32.6 -8.3 3.2 -1.4 6.7 -2.6 7.8 -2.6 1 0 2.1 -0.6 2.4 -1.4 0.3 -0.8 2 -2 3.7 -2.7 1.8 -0.7 3.4 -1.6 3.7 -1.9 1.3 -1.6 7 -5 8.3 -5 0.8 0 1.7 -0.9 2 -2 0.3 -1.2 1.4 -2 2.6 -2 1.2 0 2.5 -1.1 3.3 -2.7 0.7 -1.5 2.6 -3.4 4.2 -4.1 1.5 -0.8 3.4 -2.9 4.2 -4.8 0.8 -1.9 2.1 -3.4 2.9 -3.4 0.8 0 1.5 -0.9 1.5 -2 0 -1.1 0.5 -2 1 -2 0.6 0 1 -0.7 1 -1.5 0 -0.8 0.5 -1.5 1 -1.5 0.6 0 1 -0.6 1 -1.4 0 -0.8 0.6 -2.1 1.3 -2.8 0.7 -0.7 1.9 -2.8 2.6 -4.5 0.7 -1.8 1.7 -3.3 2.2 -3.3 0.5 0 0.9 -0.6 0.9 -1.4 0 -0.8 1.3 -5.5 3 -10.3 5.6 -16.8 7.2 -32.6 4.9 -48.9 -1.5 -10.9 -7.8 -31.2 -10.6 -34.2 -0.6 -0.7 -1.7 -2.8 -2.4 -4.7 -0.7 -1.9 -1.7 -3.5 -2.1 -3.5 -0.4 0 -0.8 -0.7 -0.8 -1.5 0 -0.8 -0.4 -1.5 -1 -1.5 -0.5 0 -1 -0.9 -1 -2 0 -1.1 -0.7 -2 -1.5 -2 -0.8 0 -2.1 -1.5 -2.9 -3.2 -1.5 -3.7 -6.8 -8.8 -9.1 -8.8 -0.8 0 -2 -0.9 -2.7 -2 -0.7 -1.1 -1.8 -2 -2.5 -2 -0.7 0 -1.3 -0.4 -1.3 -1 0 -0.5 -0.6 -1 -1.4 -1 -0.8 0 -1.6 -0.3 -1.8 -0.7 -0.6 -1.4 -18.3 -9.3 -25.3 -11.3 -3.9 -1.1 -10.3 -2.3 -14.2 -2.7 -4 -0.3 -7.3 -1 -7.3 -1.4 0 -0.5 -1.8 -0.9 -4 -0.9 -2.2 0 -4 0.5 -4 1 0 0.6 -2.1 1 -4.7 1 -5.5 0 -19.7 3 -29.3 6.1 -7.6 2.5 -25.9 10.8 -27.8 12.6 -0.7 0.7 -2 1.3 -2.8 1.3 -0.8 0 -1.4 0.5 -1.4 1 0 0.6 -0.9 1 -2 1 -1.1 0 -2 0.7 -2 1.5 0 0.8 -0.6 1.5 -1.4 1.5 -0.7 0 -2.1 1.1 -3 2.5 -0.9 1.4 -3.1 3.1 -5 3.9 -3.5 1.4 -7.6 5.9 -7.6 8.3 0 0.7 -1.1 1.8 -2.5 2.3 -1.5 0.6 -2.5 1.7 -2.5 3 0 1.1 -0.4 2 -1 2 -0.5 0 -1 0.7 -1 1.5 0 0.9 -0.6 1.8 -1.4 2.1 -0.8 0.3 -1.7 1.6 -2 3 -0.4 1.3 -1.1 2.4 -1.6 2.4 -0.6 0 -1 0.7 -1 1.5 0 0.8 -1.1 2.4 -2.4 3.7 -1.3 1.3 -2.6 3.7 -2.9 5.3 -0.3 1.7 -1.9 6.7 -3.6 11.2 -6.6 18 -7.8 38.7 -3.1 55.3 2.1 7.5 9.8 25.2 11.3 25.8 0.4 0.2 0.7 1 0.7 1.8 0 0.8 0.5 1.4 1 1.4 0.6 0 1 0.6 1 1.4 0 0.8 0.7 1.6 1.5 2 0.8 0.3 1.5 1.5 1.5 2.6 0 1.1 0.6 2 1.3 2 1.6 0 9.7 8.1 9.7 9.7 0 0.6 1.4 1.6 3 2.2 1.7 0.5 3 1.5 3 2 0 0.6 0.7 1.1 1.5 1.1 0.8 0 1.5 0.5 1.5 1 0 0.6 0.6 1 1.4 1 0.8 0 2.1 0.6 2.8 1.3 4.3 4 26 12 37.9 13.9 4.4 0.7 7.9 1.5 7.9 1.8 0 0.8 11.1 0.2 22.8 -1.1z m30.3 -1.8 c7.4 -2.5 21.1 -9.5 28.4 -14.4 8.9 -6 20.6 -18.2 27.3 -28.4 10.6 -16.2 16.6 -35.5 17.6 -56.3 0.5 -10.8 0.3 -10.3 -1.5 6.3 -4.7 43.9 -29.9 76.2 -71.7 91.7 -8.5 3.2 -8.6 4.1 -0.1 1.1z m203.9 -2 c-2.9 -4.2 -3.6 -3.9 -0.8 0.3 1.3 1.9 2.4 3.3 2.6 3.1 0.3 -0.2 -0.6 -1.8 -1.8 -3.4z m-112.2 -0.1 c-2.2 -3 -3.5 -4.1 -2.2 -1.7 0.9 1.6 3.6 4.7 4.1 4.7 0.2 0 -0.6 -1.3 -1.9 -3z m167 -0.7 c-1.6 -0.2 -4 -0.2 -5.5 0 -1.6 0.2 -0.3 0.4 2.7 0.4 3 0 4.3 -0.2 2.8 -0.4z m19 0 c-1 -0.2 -2.8 -0.2 -4 0 -1.3 0.2 -0.5 0.4 1.7 0.4 2.2 0.1 3.2 -0.1 2.3 -0.4z m-36.8 -2.3 c-3.4 -1.1 -6 -1.1 -3.5 0 1.1 0.5 2.9 0.8 4 0.8 1.6 0 1.5 -0.2 -0.5 -0.8z m-22.5 -3 c-0.9 -1.6 -1.8 -3 -2.1 -3 -0.2 0 0.2 1.4 1.1 3 0.9 1.7 1.8 3 2.1 3 0.2 0 -0.2 -1.3 -1.1 -3z m82 1 c1.3 -0.5 1.4 -0.9 0.5 -0.9 -0.8 0 -2.4 0.4 -3.5 0.9 -1.3 0.5 -1.4 0.9 -0.5 0.9 0.8 0 2.4 -0.4 3.5 -0.9z m-104 -4.1 c-2.2 -2.2 -5.8 -5.5 -8 -7.2 -2.2 -1.7 -0.6 0.1 3.5 4.1 8.3 7.8 10.6 9.5 4.5 3.1z m28.5 1.7 c0 -0.2 -1.3 -0.9 -3 -1.5 -3.5 -1.2 -4.1 -0.5 -0.7 0.9 2.5 1 3.7 1.2 3.7 0.6z m90 -3.6 c21.2 -10.7 37 -26.2 47.8 -46.9 2.9 -5.4 5.2 -10.2 5.2 -10.7 0 -0.5 -2.4 3.6 -5.3 9.1 -11.4 21.7 -25.6 35.9 -47.2 47.2 -4.4 2.3 -7.6 4.3 -7.2 4.3 0.4 0 3.5 -1.4 6.7 -3z m-50 -8 c0 -0.6 -2.6 -0.9 -6.2 -0.8 l-6.3 0.1 5.5 0.7 c3 0.4 5.8 0.7 6.3 0.8 0.4 0.1 0.7 -0.2 0.7 -0.8z m18.7 -1.4 c18.8 -4 34 -12.1 46.9 -25 17.4 -17.5 27.9 -41.1 28.9 -65.1 l0.4 -9 -0.9 9 c-3.6 36 -22.9 66.5 -51 80.5 -11.4 5.6 -23.4 9.1 -36 10.3 -3.3 0.4 -3.2 0.4 0.7 0.5 2.3 0.1 7.3 -0.5 11 -1.2z m-38.7 -1.2 c-3 -0.7 -5.9 -1.2 -6.5 -1 -1.2 0.4 7.1 2.4 10 2.4 1.1 0 -0.5 -0.6 -3.5 -1.4z m31 -2.5 c4.1 -0.6 11.3 -2.3 16 -3.9 4.7 -1.5 10 -3.1 11.8 -3.5 1.7 -0.3 3.2 -1.2 3.2 -1.8 0 -1.4 7.2 -5.7 9.3 -5.7 0.8 0 1.7 -0.9 2 -2 0.3 -1.2 1.4 -2 2.6 -2 1.2 0 2.1 -0.5 2.1 -1.2 0 -1.6 7.1 -8.8 8.7 -8.8 0.7 0 1.3 -0.9 1.3 -2 0 -1.1 0.7 -2.3 1.5 -2.6 0.8 -0.4 1.5 -1.3 1.5 -2 0 -0.8 0.7 -1.7 1.5 -2 0.8 -0.4 1.5 -1.2 1.5 -1.9 0 -0.8 0.6 -2 1.3 -2.7 2.2 -2.3 9.4 -19 11.6 -26.8 1.1 -4.2 2.4 -10.4 2.7 -13.8 0.4 -3.4 1 -6.2 1.3 -6.2 0.8 0 0.8 -15.3 0.1 -16 -0.3 -0.3 -1.1 -4.3 -1.8 -9 -1.8 -13.1 -9.6 -35.3 -13.9 -39.8 -0.7 -0.7 -1.3 -2 -1.3 -2.8 0 -0.8 -0.4 -1.4 -1 -1.4 -0.5 0 -1 -0.9 -1 -2 0 -1.1 -0.6 -2 -1.4 -2 -0.8 0 -1.7 -1.1 -2 -2.5 -0.4 -1.4 -1.2 -2.5 -1.9 -2.5 -1.6 0 -6.1 -4.7 -7 -7.2 -0.3 -1 -1.8 -2 -3.2 -2.4 -1.4 -0.3 -2.5 -1.2 -2.5 -2 0 -0.8 -0.9 -1.4 -2 -1.4 -1.1 0 -2 -0.4 -2 -0.9 0 -0.5 -1.1 -1.2 -2.4 -1.5 -1.4 -0.3 -3.1 -1.2 -3.8 -1.9 -3.5 -3.3 -22.4 -8.7 -33 -9.4 -10.1 -0.7 -20.8 0.8 -31 4.3 -4 1.3 -8 2.4 -9 2.4 -1 0 -1.8 0.4 -1.8 0.8 0 1 -8.5 5.2 -10.6 5.2 -0.8 0 -1.7 0.7 -2 1.5 -0.4 0.8 -1.2 1.5 -2 1.5 -0.8 0 -1.4 0.5 -1.4 1 0 0.6 -0.6 1 -1.4 1 -0.8 0 -1.6 0.7 -2 1.5 -0.3 0.8 -1.3 1.5 -2.3 1.5 -1 0 -2.3 1 -2.8 2.2 -0.6 1.3 -1.9 2.5 -3 2.7 -2.5 0.4 -8.5 6.5 -8.5 8.5 0 0.9 -0.9 2.1 -2 2.8 -1.1 0.7 -2 1.9 -2 2.6 0 0.7 -0.7 1.5 -1.5 1.8 -0.8 0.4 -1.5 1.2 -1.5 2 0 0.8 -0.4 1.4 -1 1.4 -0.5 0 -1 0.6 -1 1.4 0 0.8 -0.6 2.1 -1.3 2.8 -0.7 0.7 -2.1 3.2 -3.1 5.6 -1.1 2.3 -2.3 4.2 -2.8 4.2 -0.4 0 -0.8 0.7 -0.8 1.5 0 0.8 -1.1 4.8 -2.5 8.8 -8.1 24.2 -6.8 49.3 3.6 71.6 2.1 4.6 3.9 9 3.9 9.8 0 0.7 0.7 1.6 1.5 1.9 0.8 0.4 1.5 1.5 1.5 2.5 0 1 0.7 1.9 1.5 1.9 0.8 0 1.5 0.8 1.5 1.9 0 1 0.9 2.1 2 2.4 1.1 0.3 2.3 1.3 2.6 2.4 1 2.7 3.6 5.4 6.2 6.4 1.3 0.5 2.6 1.8 2.9 2.9 0.3 1.1 1.4 2 2.4 2 1.1 0 1.9 0.7 1.9 1.5 0 0.8 0.9 1.5 2 1.5 1.1 0 2 0.5 2 1 0 0.6 0.6 1 1.4 1 0.8 0 1.6 0.5 1.8 1.1 0.2 0.6 1.9 1.7 3.8 2.4 1.9 0.7 6.7 2.6 10.5 4.3 7.3 3 19.4 6.2 23.9 6.2 1.5 0 2.6 0.5 2.6 1 0 1.1 2.9 0.9 18 -1.1z m-45.7 -1.8 c-33.5 -13.2 -55 -41.2 -60.3 -78.3 l-0.9 -6.3 0.4 7.1 c0.9 14 7.7 31.9 17 44.9 5.6 7.9 16.3 18 25.1 23.9 7.1 4.7 21.6 11.6 24.4 11.6 0.8 -0.1 -1.7 -1.3 -5.7 -2.9z m-386.2 -15.8 c-1.1 -2.1 -2 -3.5 -2.1 -3.1 0 1.2 3.3 7.8 3.8 7.4 0.2 -0.2 -0.6 -2.1 -1.7 -4.3z m329 -0.1 c-1 -1.9 -10 -7.2 -12.2 -7.2 -0.8 0 0.9 1.1 3.6 2.4 2.8 1.3 5.9 3.3 6.9 4.5 2.3 2.6 3 2.7 1.7 0.3z m-91.2 -7.7 c0 -0.5 -0.6 0.1 -1.4 1.5 -0.8 1.4 -1.4 3 -1.4 3.5 0 0.6 0.6 -0.1 1.4 -1.5 0.8 -1.4 1.4 -2.9 1.4 -3.5z m88 -0.6 c-2.3 -3.4 -5.8 -9.8 -7.9 -14.3 -2 -4.4 -4.2 -9.2 -4.8 -10.6 l-1.2 -2.5 0.6 2.5 c0.9 4.1 10 22.2 13.4 26.8 4.7 6.3 4.7 5.1 -0.1 -1.9z m-329.8 -2 c-1.1 -3 -2 -4.9 -2 -4.3 -0.1 1.5 3 10.6 3.5 10.1 0.2 -0.2 -0.5 -2.8 -1.5 -5.8z m244.3 -3.9 c0.5 -1.7 0.4 -2 -0.2 -1 -0.5 0.8 -1.3 2.6 -1.6 4 -0.5 1.7 -0.4 2 0.2 1 0.5 -0.8 1.3 -2.6 1.6 -4z m60.9 4.3 c-2.3 -0.2 -6.4 -0.2 -9 0 -2.6 0.2 -0.7 0.3 4.2 0.3 5 0 7.1 -0.1 4.8 -0.3z m-290.8 -20.8 c-0.7 -4.4 -1.3 -6.6 -1.4 -4.8 -0.1 3.3 1.8 13.7 2.4 13.1 0.2 -0.2 -0.2 -3.9 -1 -8.3z m517.9 -7.5 c0.5 -1.7 0.4 -2 -0.2 -1 -0.5 0.8 -1.3 2.6 -1.6 4 -0.5 1.7 -0.4 2 0.2 1 0.5 -0.8 1.3 -2.6 1.6 -4z m-217.8 -3.6 c-0.8 -2.7 -1.5 -4.3 -1.5 -3.5 -0.1 1.8 2.1 9.2 2.6 8.7 0.2 -0.2 -0.2 -2.6 -1.1 -5.2z m-301.9 -8.6 c-0.2 -2.4 -0.4 -0.7 -0.4 3.7 0 4.4 0.2 6.3 0.4 4.3 0.2 -2.1 0.2 -5.7 0 -8z m523.1 -1.3 c0 -1.1 -0.6 0.3 -1.4 3 -0.7 2.8 -1.3 5.5 -1.3 6 0.2 1.7 2.7 -6.9 2.7 -9z m-284.1 -15.7 c-0.1 -4 -0.3 -0.8 -0.3 7.2 0 8 0.2 11.2 0.3 7.3 0.2 -4 0.2 -10.6 0 -14.5z m-257 7 c-0.2 -1.3 -0.4 -0.3 -0.4 2.2 0 2.5 0.2 3.5 0.4 2.3 0.2 -1.3 0.2 -3.3 0 -4.5z m23.9 -18.8 c10.2 -33.1 37.2 -61.2 70.2 -73 3.4 -1.3 6.1 -2.5 5.9 -2.7 -0.3 -0.2 -3.4 0.8 -7.1 2.1 -37.6 14.2 -64.8 45.8 -73.1 85.1 -0.8 3.9 -1.4 8.1 -1.4 9.5 0.1 1.4 0.7 -0.9 1.5 -5 0.7 -4.1 2.5 -11.3 4 -16z m292.1 16.3 c-0.3 -1 -0.5 -0.2 -0.5 1.7 0 1.9 0.2 2.7 0.5 1.8 0.2 -1 0.2 -2.6 0 -3.5z m227 -3 c-0.3 -1 -0.5 -0.2 -0.5 1.7 0 1.9 0.2 2.7 0.5 1.8 0.2 -1 0.2 -2.6 0 -3.5z m-305.6 -12.8 l-1.1 -4 0.5 4 c0.3 2.2 0.6 5.6 0.7 7.5 l0.1 3.5 0.4 -3.5 c0.2 -1.9 -0.1 -5.3 -0.6 -7.5z m306.6 -6.7 c-0.2 -2.4 -0.4 -0.7 -0.4 3.7 0 4.4 0.2 6.3 0.4 4.3 0.2 -2.1 0.2 -5.7 0 -8z m-19 -5.5 c-0.2 -2.1 -0.4 -0.4 -0.4 3.7 0 4.1 0.2 5.8 0.4 3.8 0.2 -2.1 0.2 -5.5 0 -7.5z m-517.1 -2 c-0.5 -0.5 -3.6 8.6 -3.5 10.1 0 0.6 0.9 -1.3 2 -4.3 1 -3 1.7 -5.6 1.5 -5.8z m308.1 4.5 c-0.2 -1.3 -0.4 -0.3 -0.4 2.2 0 2.5 0.2 3.5 0.4 2.3 0.2 -1.3 0.2 -3.3 0 -4.5z m23.3 -17.8 c8.7 -29.2 30.1 -53.1 58 -65.1 4.7 -2 10.7 -4.2 13.3 -4.9 2.6 -0.7 4.6 -1.5 4.3 -1.7 -0.7 -0.7 -11.9 2.9 -19.4 6.3 -29 13.2 -50.5 38.7 -58.2 69.1 -1.1 4.1 -2.2 10.5 -2.5 14.1 -0.4 6.3 -0.4 6.2 1 -2.1 0.8 -4.8 2.4 -11.9 3.5 -15.7z m-106.1 9.3 c-8.2 -25.2 -23.9 -43.7 -46.5 -55.1 -6.4 -3.2 -17.4 -7.2 -19.6 -7.2 -0.7 0.1 2.3 1.3 6.7 2.9 19.6 6.8 35.6 18.6 46.3 34.3 4.7 6.9 10.7 19.7 12.8 27.4 1 3.7 2 6.2 2.2 5.6 0.2 -0.7 -0.6 -4.2 -1.9 -7.9z m-208.9 -25.6 c12.6 -17.5 32.5 -34 52.1 -43 5.2 -2.4 10.5 -4.9 11.9 -5.5 l2.5 -1.2 -2.5 0.6 c-5.4 1.2 -26.9 12.7 -34.5 18.4 -17.6 13.2 -32.8 31.1 -41.1 48.6 -2.4 5 -4.4 9.5 -4.4 10 0.1 0.5 2.3 -3.6 4.9 -9.1 2.6 -5.5 7.7 -14 11.1 -18.8z m228.4 24.9 c-0.3 -1.5 -0.8 -2.5 -1.1 -2.3 -0.2 0.3 -0.1 1.7 0.3 3.1 0.3 1.5 0.8 2.5 1.1 2.3 0.2 -0.3 0.1 -1.7 -0.3 -3.1z m290.3 -1.3 c-0.3 -1 -0.5 -0.2 -0.5 1.7 0 1.9 0.2 2.7 0.5 1.8 0.2 -1 0.2 -2.6 0 -3.5z m-21.1 -10.4 c-5.9 -23.5 -17.5 -42.1 -33.9 -54.5 -6.6 -5 -20.2 -12 -25.2 -12.9 -1.7 -0.3 -0.8 0.3 2 1.3 26.9 10.1 46.4 31.9 54.9 61.4 1.4 4.8 2.9 11.1 3.3 14 0.5 3.2 0.9 4.3 1.1 2.8 0.1 -1.4 -0.8 -6.8 -2.2 -12.1z m-201.8 0.1 c0 -0.9 -0.3 -0.7 -0.8 0.5 -0.5 1.1 -0.8 2.9 -0.8 4 0 1.6 0.2 1.5 0.8 -0.5 0.4 -1.4 0.8 -3.2 0.8 -4z m-72.8 -3.9 c-3 -7.3 -8.7 -18.1 -9.6 -18.1 -0.3 0 1.1 2.8 3 6.3 1.9 3.4 4.7 9.3 6.1 13 1.5 3.7 2.9 6.6 3.1 6.4 0.2 -0.2 -0.9 -3.7 -2.6 -7.6z m80.9 -17.6 c1.2 -2.7 1.8 -4.5 1.2 -4 -1.3 1.3 -9.1 20.8 -9.1 22.6 0.1 0.8 1.4 -2 2.9 -6.1 1.6 -4.1 3.8 -9.7 5 -12.5z m211.5 14.1 c-0.3 -1.5 -0.8 -2.5 -1.1 -2.3 -0.2 0.3 -0.1 1.7 0.3 3.1 0.3 1.5 0.8 2.5 1.1 2.3 0.2 -0.3 0.1 -1.7 -0.3 -3.1z m-303 -16.8 c-3.7 -6.4 -15.9 -19.5 -23.9 -25.5 -4.4 -3.3 -15.5 -9.8 -15.5 -9 0 0.3 2.6 2 5.8 3.7 11.5 6.6 21.7 15.7 29.7 26.8 3.3 4.7 5.7 7.1 3.9 4z m292.8 -9.5 c-8.5 -16.9 -22.7 -32.4 -38.2 -41.7 -8 -4.9 -22.4 -10.8 -29 -12 -1.9 -0.4 1.5 1 7.6 3.1 26.3 9.1 45.9 25.9 58.2 50 2.5 5 4.8 9 5 8.8 0.2 -0.1 -1.5 -3.8 -3.6 -8.2z m-193.1 -1.8 c6.1 -9.4 19.8 -23.8 28.6 -30.1 3.3 -2.5 10.3 -6.7 15.5 -9.4 10.3 -5.5 11.4 -6.8 1.5 -1.9 -20.5 10.3 -39 27.4 -49.8 46.4 -3.5 6.1 -1.6 3.9 4.2 -5z m-229.1 -12 l4.5 -1.5 -4 0.6 c-2.2 0.3 -4.7 1 -5.5 1.5 -2.3 1.3 0 1 5 -0.6z m39.8 -5.2 c-3.2 -0.2 -8.6 -0.2 -12 0 -3.5 0.2 -0.9 0.3 5.7 0.3 6.6 0 9.4 -0.1 6.3 -0.3z m47.2 -7.8 c-1.4 -0.8 -2.9 -1.4 -3.5 -1.4 -0.5 0 0.1 0.6 1.5 1.4 1.4 0.8 3 1.4 3.5 1.4 0.6 0 -0.1 -0.6 -1.5 -1.4z m-5 -1.9 c0 -0.6 -9.3 -3.7 -9.7 -3.2 -0.2 0.2 1.5 1.1 3.9 1.9 4.7 1.7 5.8 1.9 5.8 1.3z m-87.5 -3.6 c1.3 -0.5 1.4 -0.9 0.5 -0.9 -0.8 0 -2.4 0.4 -3.5 0.9 -1.3 0.5 -1.4 0.9 -0.5 0.9 0.8 0 2.4 -0.4 3.5 -0.9z m8.5 -2 c2 -0.6 2.1 -0.8 0.5 -0.8 -1.1 0 -3.1 0.4 -4.5 0.8 -2 0.6 -2.1 0.8 -0.5 0.8 1.1 0 3.1 -0.4 4.5 -0.8z m343.5 -2 c-1.1 -0.5 -3.6 -0.8 -5.5 -0.8 l-3.5 0.1 3.5 0.7 c1.9 0.4 4.4 0.8 5.5 0.8 l2 0.1 -2 -0.9z m-25.5 -0.8 c0 -0.5 -1.3 -0.7 -3 -0.4 -1.6 0.2 -3 0.6 -3 0.8 0 0.2 1.4 0.4 3 0.4 1.7 0 3 -0.4 3 -0.8z m12 -0.6 c0.8 -0.2 -0.9 -0.4 -3.7 -0.5 -2.9 0 -5.3 0.3 -5.3 0.7 0 0.7 5.2 0.6 9 -0.2z m-293.2 -0.3 c-3.8 -0.2 -9.8 -0.2 -13.5 0 -3.8 0.2 -0.7 0.3 6.7 0.3 7.4 0 10.5 -0.1 6.8 -0.3z m266.2 -15.3 c4.8 -1.2 5.9 -1.7 3 -1.3 -4.4 0.5 -13.4 3 -11.5 3.2 0.6 0 4.4 -0.8 8.5 -1.9z m16.3 -2.7 c-1.3 -0.2 -3.3 -0.2 -4.5 0 -1.3 0.2 -0.3 0.4 2.2 0.4 2.5 0 3.5 -0.2 2.3 -0.4z"/>
        <path d="M256.3 378.9 c-1.8 -0.5 -3.3 -1.3 -3.3 -1.8 0 -0.5 -1.4 -1.1 -3 -1.5 -1.7 -0.3 -3.3 -1.4 -3.7 -2.3 -0.8 -2.2 -3.9 -5.3 -5.3 -5.3 -0.5 0 -1 -0.7 -1 -1.5 0 -0.8 -0.4 -1.5 -0.8 -1.5 -2.4 0 -6.1 -13.3 -6.2 -21.6 0 -9.3 3.7 -23.4 6.2 -23.4 0.4 0 0.8 -0.7 0.8 -1.5 0 -0.8 0.6 -1.5 1.3 -1.5 1.5 0 5.7 -4.5 5.7 -6 0 -0.6 0.7 -1 1.5 -1 0.8 0 1.5 -0.4 1.5 -0.9 0 -3.9 28.1 -5.5 30.1 -1.8 0.6 0.9 2.1 1.7 3.4 1.7 1.4 0 2.5 0.5 2.5 1 0 0.6 0.7 1 1.5 1 0.9 0 2 1.1 2.5 2.5 0.5 1.4 1.6 2.5 2.5 2.5 0.8 0 1.5 0.9 1.5 2 0 1.1 0.6 2 1.4 2 2.4 0 5.8 9.8 6.3 18.5 0.6 8.9 -1.1 19 -3.2 19.9 -0.8 0.3 -1.7 2.1 -2.1 4 -0.3 2 -1.2 3.6 -1.9 3.6 -0.8 0 -1.5 1 -1.7 2.2 -0.2 1.3 -1.5 2.9 -3 3.6 -1.6 0.7 -2.8 1.7 -2.8 2.3 0 0.5 -0.7 0.9 -1.5 0.9 -0.8 0 -1.5 0.4 -1.5 0.8 0 3.2 -20 5.3 -27.7 3.1z m21.3 -4.6 c7 -2.4 15.4 -11 18.3 -18.8 3.2 -8.5 2.7 -21.7 -1.3 -29.3 -5.8 -11.3 -15.6 -17.7 -27.1 -17.7 -12 0 -21.1 5.9 -27 17.5 -1.4 2.7 -2.5 5.7 -2.5 6.7 0 1 1.1 -0.8 2.4 -3.9 8.9 -21.6 33.5 -26.3 48.4 -9.2 6.2 7 8.5 14 8 24.4 -0.6 10.3 -3.1 16.4 -9.8 23.1 -5.4 5.4 -11.8 7.9 -20 7.9 -7.1 0 -11.3 -1.4 -16.6 -5.4 -5 -3.7 -7.8 -7.6 -10.4 -14.2 -1.1 -2.7 -1.9 -4.2 -2 -3.3 0 0.9 1.4 4.3 3.1 7.7 6.8 13.7 21.6 19.6 36.5 14.5z m-39.9 -35 c-0.2 -2.1 -0.4 -0.4 -0.4 3.7 0 4.1 0.2 5.8 0.4 3.8 0.2 -2.1 0.2 -5.5 0 -7.5z"/>
        <path d="M546.3 342.7 c-1.8 -0.5 -3.3 -1.4 -3.3 -1.8 0 -0.5 -0.7 -0.9 -1.5 -0.9 -0.8 0 -1.5 -0.4 -1.5 -0.9 0 -0.5 -0.9 -1.1 -2 -1.4 -1.1 -0.3 -2 -1.2 -2 -2 0 -0.8 -0.9 -1.7 -2 -2 -1.1 -0.3 -2 -1.2 -2 -2.1 0 -0.9 -0.4 -1.6 -0.9 -1.6 -0.5 0 -1.7 -1.9 -2.6 -4.2 -1.3 -3.2 -1.9 -7.7 -2.1 -17.1 -0.2 -13.3 0.4 -17.6 3 -20.3 0.9 -0.8 1.6 -2.4 1.6 -3.5 0 -1 0.4 -1.9 0.9 -1.9 1.2 0 7.1 -5.9 7.1 -7.1 0 -0.5 0.7 -0.9 1.5 -0.9 0.8 0 1.5 -0.4 1.5 -0.9 0 -0.5 2.2 -1.7 4.9 -2.6 7.6 -2.5 29.1 -0.6 29.1 2.6 0 0.5 0.6 0.9 1.3 0.9 0.7 0 1.7 1 2.2 2.3 0.6 1.2 2 2.6 3.3 3.2 1.2 0.5 2.2 1.5 2.2 2.2 0 0.7 0.4 1.3 0.9 1.3 0.5 0 1.9 2.4 3.2 5.3 2.1 4.6 2.4 6.7 2.4 17.7 0 11 -0.3 13.1 -2.4 17.8 -1.3 2.8 -2.7 5.2 -3.2 5.2 -0.5 0 -0.9 0.7 -0.9 1.5 0 0.9 -1.2 2 -2.6 2.5 -1.4 0.6 -2.8 1.9 -3.1 3 -0.3 1.1 -1.2 2 -1.9 2 -0.8 0 -1.4 0.4 -1.4 0.9 0 0.5 -1.7 1.6 -3.7 2.4 -4.4 1.7 -20.9 2 -26 0.4z m15.5 -2.4 c-1.6 -0.2 -4 -0.2 -5.5 0 -1.6 0.2 -0.3 0.4 2.7 0.4 3 0 4.3 -0.2 2.8 -0.4z m-12.5 -2 c-6 -2.1 -13.6 -9.2 -16.2 -15.3 -1.2 -2.7 -2.6 -8.9 -3.1 -13.7 l-0.9 -8.8 0.3 8.7 c0.4 10.2 3.2 17.4 9.1 23.1 3.9 3.8 10.9 7.8 13.5 7.6 0.8 0 -0.4 -0.7 -2.7 -1.6z m23.3 -1.2 c8.5 -4.9 14.8 -15.5 15.8 -26.6 l0.6 -6 -1.6 7.4 c-2.7 13 -8.8 21.7 -18.4 26 -2.5 1.1 -3.8 2.1 -3 2.1 0.8 0 3.8 -1.3 6.6 -2.9z m12.6 -45.4 c-1.6 -3.4 -4.1 -7.6 -5.6 -9.4 -3.9 -4.6 -13.8 -9.3 -19.5 -9.2 -4.5 0.1 -4.5 0.1 2 1.4 8.2 1.6 11.4 3.2 16 8.2 4.5 4.6 7.6 10.6 8.6 16.5 0.7 3.6 0.8 3.9 1.1 1.5 0.2 -1.6 -0.9 -5.4 -2.6 -9z m-49.2 -5.2 c3.4 -4.9 9.2 -9.2 15.2 -11 2.4 -0.8 3.4 -1.4 2.2 -1.4 -3.6 -0.2 -12.3 4.9 -16.3 9.5 -3.7 4.2 -7.2 11.8 -7 15.3 0 0.9 0.7 -0.6 1.6 -3.3 0.8 -2.8 2.7 -6.8 4.3 -9.1z"/>
        <path d="M110.3 523.5 c0 -3.8 0.2 -5.3 0.4 -3.2 0.2 2 0.2 5.2 0 7 -0.2 1.7 -0.4 0.1 -0.4 -3.8z"/>
        <path d="M265 135.5 c0 -0.7 6.1 -3.7 6.6 -3.3 0.2 0.3 -1.2 1.2 -3.1 2.1 -1.9 0.9 -3.5 1.5 -3.5 1.2z"/>
        <path d="M630 116.5 c-1.4 -0.8 -2 -1.4 -1.5 -1.4 0.6 0 2.1 0.6 3.5 1.4 1.4 0.8 2.1 1.4 1.5 1.4 -0.5 0 -2.1 -0.6 -3.5 -1.4z"/>
        <path d="M423.3 88.3 c0.9 -0.2 2.5 -0.2 3.5 0 0.9 0.3 0.1 0.5 -1.8 0.5 -1.9 0 -2.7 -0.2 -1.7 -0.5z"/>
    </g>
    <g fill="#5bb7bf">
        <path d="M366 865.3 c-69.8 -1.9 -90.4 -2.6 -119 -3.9 -18.4 -0.8 -45 -2.1 -59 -2.8 -14 -0.8 -25.9 -1.1 -26.4 -0.8 -0.5 0.3 -0.6 -0.1 -0.1 -0.8 0.5 -0.9 0.2 -1 -1.4 -0.5 -2 0.6 -2 0.6 -0.4 -2.3 1.7 -2.9 1.6 -3.7 -1 -17.9 -1.4 -8.1 -3.1 -20.2 -3.7 -26.8 -1.1 -11.6 -1.7 -17.2 -3.9 -32 -1.9 -13 -2.7 -17 -3.5 -18.4 -1.7 -2.7 -5.2 -36.3 -6.6 -63.1 -1 -18.8 -4.3 -54.1 -7 -75.5 -0.5 -3.8 -1 -20 -1 -36 -0.1 -15.9 -0.8 -41.1 -1.6 -56 -3.3 -60 -2.9 -105.2 1.2 -139 5.8 -48.6 19 -96.9 35.4 -129.5 42.6 -84.5 137.6 -137.4 272 -151.4 44.7 -4.7 86.7 -2.2 125.2 7.5 59.8 15 102.9 41.3 130.2 79.3 19.6 27.3 35.2 68.2 43 112.6 7.8 44.4 9.9 72.1 13 167.2 l0.5 13.7 -2.7 0.5 c-4.6 1 -84.3 13.4 -141.7 22.1 -8.8 1.3 -18.7 3.2 -22 4 -15.3 4.1 -25.1 14.7 -27.6 30.2 -1.2 7.3 -2.4 -1.6 19.1 139.8 1.7 11 4.8 31.8 7 46.1 2.3 15.4 4.8 28.6 6.1 32 3.1 8.2 12.1 17.2 20.4 20.3 8.3 3.1 14.8 2.9 41 -1.4 60.6 -9.8 96.8 -15.5 99.2 -15.5 1.6 0 1.7 -1.4 -1.8 23 -2.2 16 -7.1 37.3 -11.9 52.3 -1.7 5.4 -3.2 10.7 -3.3 11.7 -0.1 2.2 -1.2 2.3 -23.7 4 -40.6 3 -100.8 5.5 -163.5 7 -36.7 0.8 -153.7 1.1 -180.5 0.3z m112.1 -321.2 c3.2 -1.2 7.7 -3.9 10.1 -6 4.3 -3.8 4.4 -3.9 7.3 -2.3 4 2.1 18.4 2.1 24.3 -0.1 16.4 -6.2 23 -18.5 23.9 -44.9 l0.6 -14.7 5.2 -2.6 c6.5 -3.1 11.8 -8.9 15.4 -16.4 2.3 -4.9 2.6 -6.8 2.6 -16.1 0 -10.2 -0.1 -10.7 -4 -18.5 -5.2 -10.6 -5 -10.2 -3.4 -8.9 2 1.6 15.4 6.1 24 8 10.6 2.4 34.7 2.4 45.9 0 45.5 -9.8 77.5 -43.2 88.5 -92.6 2.6 -11.7 3.1 -38.5 1 -51.2 -9.4 -56.6 -48.8 -94 -101.5 -96.5 -25.6 -1.2 -54.2 7.9 -77.2 24.4 -41.7 30 -60 88.2 -43.7 139.3 3.1 10 10.3 24.1 16.1 31.7 l5.2 6.8 -4.4 -3.7 c-17.7 -15.2 -61.1 -10.9 -79.2 7.9 -2 2.1 -4.7 5.7 -6 8 -1.4 2.4 -5.3 6.4 -8.9 9.2 -23.7 18.1 -34.2 31.5 -36.9 47.4 -2.8 15.9 5.4 33.7 18.7 41 5.4 2.9 15.7 5.7 21.4 5.7 l3.6 0 1.3 7.2 c3.9 22 13.8 36.4 27.3 39.9 5.1 1.3 16.7 0.3 22.8 -2z m-161.6 -93.1 c18.1 -2.6 42.2 -10.7 56.3 -18.9 14.1 -8.2 27.9 -20.5 37.7 -33.6 5.2 -7 14.5 -25.1 17.6 -34.5 11.5 -35.1 7.7 -77.2 -9.9 -108.5 -10.9 -19.4 -25.3 -33.4 -43.7 -42.5 -19.4 -9.5 -35.5 -13.3 -57 -13.3 -22.1 -0.1 -40.8 3.9 -61.6 13.2 -68.6 30.6 -100.1 111.1 -68.3 174.3 17.4 34.7 50.6 57.7 91.9 63.7 8.4 1.2 28.7 1.3 37 0.1z"/>
        <path d="M141.3 244 c-25.3 -14 -39.3 -32.7 -39.3 -52.5 0 -17.7 12.5 -38.4 27.7 -46 5.1 -2.6 6.9 -2.9 14.9 -3 8.8 0 9.3 0.1 18.5 4.7 7.4 3.7 35.2 23.1 41.3 28.9 0.6 0.5 -4 6 -11.5 13.6 -16.9 17.4 -27.7 31.6 -39.1 51.3 l-4.3 7.6 -8.2 -4.6z"/>
        <path d="M732.2 215.2 c-10 -20 -22.4 -37.8 -37 -53.2 -5 -5.2 -9 -9.5 -8.9 -9.6 1.5 -1.2 12.1 -5.8 18.7 -8.2 19.9 -7 38.3 -8.1 49.2 -3 7.6 3.5 14.2 9.8 17.5 16.7 2.5 4.9 2.8 6.7 2.8 15.2 0 9 -0.2 9.9 -3.7 17 -4.3 8.7 -9.6 15.1 -17.7 21.3 -5 3.8 -16.1 10.7 -17.2 10.6 -0.2 -0.1 -1.9 -3.1 -3.7 -6.8z"/>
    </g>
    <g fill="#dacbb2">
        <path d="M919.1 667.9 c-8.4 -1.6 -17.5 -8.9 -20.7 -16.5 -4.8 -11.4 2.1 -26.5 14.9 -33 9.9 -5.1 19.8 -4.1 27.2 2.7 6.5 6 9 11.8 8.9 20.9 0 8.9 -2.5 15.5 -8.2 21.3 -5.3 5.4 -11.4 6.7 -22.1 4.6z"/>
        <path d="M414.1 479.5 c-5.1 -1.6 -10.7 -6.6 -12.7 -11.2 -0.8 -1.8 -1.4 -6 -1.4 -9.3 0 -10.9 6.8 -21.3 21.8 -33.2 l7.4 -5.9 5.2 5 c9.6 9 21 13.1 36.8 13.1 17.1 0 31.4 -5.1 41.9 -14.8 5.6 -5.1 10.9 -13.7 10.9 -17.4 0 -3.3 2.2 -1.9 11.6 7.5 11.2 11.2 15.4 18.8 15.4 27.7 0 7 -3.2 13.7 -7.8 16.3 -3.9 2.3 -8.9 2.5 -28.8 1.3 -19.8 -1.2 -30.9 1.1 -49.6 10.6 -20.3 10.2 -38.9 14 -50.7 10.3z"/>
    </g>
    <g fill="#ffffff">
        <path d="M617.4 763.6 c-3.6 -1.6 -6.9 -5.5 -8.3 -9.9 -0.6 -1.8 -6.2 -38.1 -12.6 -80.7 -6.4 -42.6 -13.1 -87.4 -14.9 -99.4 -2.2 -14.5 -3.1 -23.1 -2.6 -25.3 1.2 -5.1 3.8 -8.3 8.3 -10.3 2.5 -1.1 23.5 -4.8 52.7 -9.4 48.9 -7.6 117 -18.5 197 -31.6 51.3 -8.4 55.4 -8.9 59.7 -6.7 4.6 2.4 8.1 7.2 8.8 12 0.3 2.3 3 22.4 6.1 44.7 3 22.3 5.7 42.1 6 44.1 0.6 3.5 0.5 3.7 -2.9 4.3 -6.8 1.3 -17.8 7.7 -24.1 14 -19.7 19.8 -19.4 47.8 0.6 66 9.3 8.5 22.3 13.5 35 13.6 5.5 0 5.8 0.6 6 10.8 0.2 7.6 -1.6 11.9 -6.3 15.4 -3.1 2.3 -8.9 3.3 -115.4 20.2 -138.6 22 -186.9 29.6 -188.4 29.6 -0.9 -0.1 -3 -0.7 -4.7 -1.4z m62.1 -53.1 c34.6 -4.9 97.3 -15.3 99.9 -16.7 3.8 -1.9 5.6 -4 6.2 -7.5 0.8 -4.1 -1 -8.7 -4.2 -10.8 -3.6 -2.3 -8.8 -1.9 -37.5 3 -14.5 2.4 -41.9 6.7 -60.9 9.5 -36.6 5.3 -38 5.7 -40.8 11.4 -3.1 6.2 2.2 14.6 9.1 14.6 1.8 0 14.5 -1.6 28.2 -3.5z m-6.8 -56.5 c13.6 -2.2 30.2 -4.9 36.8 -6 11 -1.7 12.2 -2.1 14.7 -5 4 -4.4 3.9 -10.1 -0.3 -14.2 -3 -3.1 -3.1 -3.1 -11.2 -2.5 -10 0.7 -70.4 10.5 -72.8 11.8 -2.8 1.5 -5.9 6 -5.9 8.6 0 3.6 2.8 8.9 5.3 10.1 3.6 1.7 7.4 1.4 33.4 -2.8z m112.9 -18 c34.7 -5.5 34.9 -5.6 37.9 -9.1 3.7 -4.5 3.5 -10.1 -0.6 -14.1 -3 -3 -3.2 -3.1 -10.7 -2.5 -9.3 0.6 -53.4 7.4 -57.9 8.8 -8.9 2.8 -10 15.2 -1.8 19.7 3.1 1.8 6.5 1.5 33.1 -2.8z m-106.1 -44.5 c36.2 -5.6 144.9 -23 166 -26.6 6.6 -1.1 13.4 -2.4 15.2 -3 4.5 -1.4 8.3 -6.2 8.3 -10.4 0 -4.3 -4.1 -9.2 -8.3 -10 -1.9 -0.3 -17.3 1.7 -36.7 4.9 -92.4 15.1 -151 24.3 -174.9 27.6 -17.3 2.4 -18.7 2.8 -21.7 6.1 -4.4 5 -3.5 12.6 1.9 16 4.1 2.6 5.1 2.5 50.2 -4.6z"/>
        <path d="M455 527.4 c-1.7 -1.5 -4.2 -4.9 -5.6 -7.6 -2.3 -4.5 -6.4 -18.3 -6.4 -21.4 0 -0.6 3.7 -2.4 8.3 -3.9 4.5 -1.4 12.9 -4.8 18.6 -7.6 7.6 -3.6 10.7 -4.6 11.2 -3.7 1.2 2 2.2 17.5 1.6 26.4 -0.9 15.4 -5.4 20.4 -18 20.4 -5.6 0 -7 -0.4 -9.7 -2.6z"/>
        <path d="M499.5 519.9 c-0.4 -0.6 -0.7 -7.2 -0.6 -14.7 0 -7.5 -0.3 -16.8 -0.8 -20.7 -0.5 -4.8 -0.4 -7.3 0.3 -7.8 1.2 -0.9 25.2 -0.2 27.9 0.9 3.5 1.3 1.7 25.7 -2.6 34.4 -3 6 -8.7 9 -17.4 9 -3.4 0 -6.5 -0.5 -6.8 -1.1z"/>
        <path d="M278.5 429.5 c-40 -7.5 -68.3 -31.9 -79.1 -68.2 -3.2 -10.8 -4.4 -31 -2.4 -43.1 5.7 -35.7 28.9 -67.1 61.5 -83.5 27.3 -13.6 61 -17.9 87 -11.1 9.1 2.4 27.2 11.6 34.3 17.4 15.4 12.6 26.6 31.7 31.8 54.5 2.9 12.1 2.7 39.8 -0.3 51.7 -5.3 21 -13.7 36.2 -27.3 49.9 -16 16.1 -34.9 26.1 -59 31.4 -10.8 2.3 -36.3 2.9 -46.5 1z m0.7 -55.5 c6.8 -3.2 12.5 -9.1 16.1 -16.8 2.8 -5.9 3.2 -7.7 3.2 -15.2 0 -7.1 -0.5 -9.4 -2.6 -14 -9.7 -20.5 -32.3 -26.4 -47.7 -12.5 -6.1 5.5 -9.7 12.2 -11.2 20.8 -3.1 17.9 6.4 34.4 23 39.8 4.2 1.4 14.2 0.3 19.2 -2.1z"/>
        <path d="M590 401.5 c-30.3 -5.5 -55.3 -24.3 -68.1 -51 -7.7 -16.2 -9.3 -23.8 -9.3 -44.5 0 -15.8 0.3 -18.5 2.7 -27.5 9.1 -34.1 34.8 -61.1 68.2 -71.8 11 -3.6 18.2 -4.7 29.7 -4.7 22.7 0 41.8 7.4 57.4 22.3 36.5 34.6 40.7 102.4 9 143.6 -20.5 26.6 -55.5 39.7 -89.6 33.6z m-19.3 -63.1 c6.3 -3.1 11.7 -8.9 15.2 -16.3 2.2 -4.8 2.6 -6.9 2.6 -15.1 0 -8.1 -0.4 -10.3 -2.6 -15 -5.4 -11.5 -13.7 -17.9 -24.3 -18.7 -8.5 -0.7 -15.1 1.5 -21.6 7.4 -7.6 6.8 -10.3 12.8 -10.8 23.9 -0.7 14.8 3.4 24.6 13 31.2 5.9 4 9.2 5 16.9 5.1 5.1 0.1 7.6 -0.5 11.6 -2.5z"/>
    </g>
</svg>